<svg width="481" height="481" viewBox="0 0 481 481" fill="none" xmlns="http://www.w3.org/2000/svg">
<g clip-path="url(#clip0)">
<path d="M56.259 432H0.259033V448H56.259V432Z" fill="#909090"/>
<path d="M88.259 400H32.259V416H88.259V400Z" fill="#57A4FF"/>
<path d="M16.259 400H0.259033V416H16.259V400Z" fill="#909090"/>
<path d="M88.259 464H32.259V480H88.259V464Z" fill="black"/>
<path d="M16.259 464H0.259033V480H16.259V464Z" fill="#909090"/>
<path d="M88.259 432H72.259V448H88.259V432Z" fill="#57A4FF"/>
<path d="M448.259 432H392.259V448H448.259V432Z" fill="black"/>
<path d="M480.259 400H424.259V416H480.259V400Z" fill="#909090"/>
<path d="M408.259 400H392.259V416H408.259V400Z" fill="#909090"/>
<path d="M480.259 464H424.259V480H480.259V464Z" fill="#57A4FF"/>
<path d="M408.259 464H392.259V480H408.259V464Z" fill="#909090"/>
<path d="M480.259 432H464.259V448H480.259V432Z" fill="#909090"/>
<path d="M56.259 40H0.259033V56H56.259V40Z" fill="#909090"/>
<path d="M88.259 8H32.259V24H88.259V8Z" fill="#909090"/>
<path d="M16.259 8H0.259033V24H16.259V8Z" fill="#57A4FF"/>
<path d="M88.259 72H32.259V88H88.259V72Z" fill="#909090"/>
<path d="M16.259 72H0.259033V88H16.259V72Z" fill="#909090"/>
<path d="M88.259 40H72.259V56H88.259V40Z" fill="black"/>
<path d="M448.259 40H392.259V56H448.259V40Z" fill="#57A4FF"/>
<path d="M480.259 8H424.259V24H480.259V8Z" fill="#909090"/>
<path d="M408.259 8H392.259V24H408.259V8Z" fill="#57A4FF"/>
<path d="M480.259 72H424.259V88H480.259V72Z" fill="#57A4FF"/>
<path d="M408.259 72H392.259V88H408.259V72Z" fill="black"/>
<path d="M480.259 40H464.259V56H480.259V40Z" fill="#909090"/>
<path d="M438.919 321.518C434.872 317.46 429.809 314.565 424.259 313.136V166.864C441.34 162.45 451.609 145.025 447.195 127.944C442.781 110.863 425.356 100.594 408.275 105.008C402.747 106.437 397.703 109.321 393.668 113.36L270.875 40.8C271.748 37.946 272.214 34.984 272.259 32C272.259 14.327 257.932 0 240.259 0C222.586 0 208.259 14.327 208.259 32C208.304 34.984 208.77 37.946 209.643 40.8L86.851 113.36C74.391 100.864 54.16 100.835 41.664 113.295C29.168 125.755 29.139 145.986 41.599 158.482C45.646 162.54 50.709 165.435 56.259 166.864V313.136C39.178 317.55 28.909 334.975 33.323 352.056C37.737 369.137 55.162 379.406 72.243 374.992C77.771 373.563 82.815 370.679 86.85 366.64L209.642 439.2C204.501 456.109 214.04 473.984 230.949 479.125C247.858 484.266 265.733 474.727 270.874 457.818C272.719 451.749 272.719 445.269 270.874 439.2L393.666 366.64C406.126 379.136 426.357 379.165 438.853 366.705C451.35 354.245 451.379 334.014 438.919 321.518ZM416.259 120C425.096 120 432.259 127.163 432.259 136C432.259 144.837 425.096 152 416.259 152C407.422 152 400.259 144.837 400.259 136C400.259 127.163 407.422 120 416.259 120ZM240.259 16C249.096 16 256.259 23.163 256.259 32C256.259 40.837 249.096 48 240.259 48C231.422 48 224.259 40.837 224.259 32C224.259 23.163 231.422 16 240.259 16ZM94.875 127.2L217.667 54.64C230.14 67.117 250.365 67.121 262.843 54.648C262.846 54.645 262.849 54.642 262.851 54.64L385.643 127.2C383.798 132.922 383.798 139.078 385.643 144.8L240.259 230.704L94.875 144.8C96.72 139.078 96.72 132.922 94.875 127.2ZM48.259 136C48.259 127.163 55.422 120 64.259 120C73.096 120 80.259 127.163 80.259 136C80.259 144.837 73.096 152 64.259 152C55.422 152 48.259 144.837 48.259 136ZM64.259 360C55.422 360 48.259 352.837 48.259 344C48.259 335.163 55.422 328 64.259 328C73.096 328 80.259 335.163 80.259 344C80.259 352.837 73.095 360 64.259 360ZM94.875 352.8C99.965 336.273 90.694 318.749 74.167 313.658C73.537 313.464 72.9 313.29 72.259 313.136V166.864C77.767 165.472 82.802 162.633 86.843 158.64L232.259 244.568V417.136C226.75 418.529 221.712 421.369 217.667 425.36L94.875 352.8ZM240.259 464C231.422 464 224.259 456.837 224.259 448C224.259 439.163 231.422 432 240.259 432C249.096 432 256.259 439.163 256.259 448C256.259 456.837 249.095 464 240.259 464ZM384.259 344C384.304 346.984 384.77 349.946 385.643 352.8L262.851 425.36C258.806 421.369 253.768 418.529 248.259 417.136V244.568L393.667 158.64C397.712 162.631 402.75 165.47 408.259 166.864V313.136C394.173 316.773 384.313 329.453 384.259 344ZM416.259 360C407.422 360 400.259 352.837 400.259 344C400.259 335.163 407.422 328 416.259 328C425.096 328 432.259 335.163 432.259 344C432.259 352.837 425.095 360 416.259 360Z" fill="#57A4FF"/>
<path d="M190.678 260.015L177.806 267.623L185.947 281.397L198.819 273.79L190.678 260.015Z" fill="#909090"/>
<path d="M164.944 275.23L152.072 282.837L160.213 296.612L173.085 289.004L164.944 275.23Z" fill="#909090"/>
<path d="M216.434 244.799L203.562 252.406L211.702 266.181L224.574 258.573L216.434 244.799Z" fill="#909090"/>
<path d="M139.218 290.422L126.346 298.03L134.487 311.804L147.359 304.196L139.218 290.422Z" fill="#909090"/>
<path d="M113.435 305.656L100.563 313.264L108.704 327.038L121.576 319.431L113.435 305.656Z" fill="#909090"/>
<path d="M367.063 305.615L358.924 319.389L371.796 326.995L379.935 313.221L367.063 305.615Z" fill="#909090"/>
<path d="M341.331 290.411L333.194 304.187L346.068 311.791L354.205 298.015L341.331 290.411Z" fill="#909090"/>
<path d="M315.558 275.225L307.419 289L320.291 296.606L328.431 282.831L315.558 275.225Z" fill="#909090"/>
<path d="M264.055 244.819L255.916 258.593L268.788 266.199L276.927 252.425L264.055 244.819Z" fill="#909090"/>
<path d="M289.83 259.996L281.693 273.772L294.567 281.377L302.704 267.601L289.83 259.996Z" fill="#909090"/>
<path d="M248.259 200H232.259V216H248.259V200Z" fill="#909090"/>
<path d="M248.259 168H232.259V184H248.259V168Z" fill="#909090"/>
<path d="M248.259 136H232.259V152H248.259V136Z" fill="#909090"/>
<path d="M248.259 104H232.259V120H248.259V104Z" fill="#909090"/>
<path d="M248.259 72H232.259V88H248.259V72Z" fill="#909090"/>
</g>
<defs>
<clipPath id="clip0">
<rect width="480.518" height="480.518" fill="white"/>
</clipPath>
</defs>
</svg>
