<svg width="512" height="512" viewBox="0 0 512 512" fill="none" xmlns="http://www.w3.org/2000/svg">
<g clip-path="url(#clip0)">
<path d="M470.316 32.427H41.683C18.7 32.427 0 51.127 0 74.111V114.544C0 119.509 4.024 123.535 8.991 123.535C13.958 123.535 17.982 119.509 17.982 114.544V74.111C17.982 61.042 28.614 50.41 41.683 50.41H470.317C483.386 50.41 494.018 61.042 494.018 74.111V341.113C494.018 346.078 498.042 350.104 503.009 350.104C507.976 350.104 512 346.079 512 341.113V74.111C512 51.127 493.3 32.427 470.316 32.427Z" fill="#909090"/>
<path d="M503.009 365.419C498.042 365.419 494.018 369.444 494.018 374.41C494.018 387.479 483.386 398.111 470.317 398.111H41.683C28.614 398.112 17.982 387.479 17.982 374.41V149.308C17.982 144.343 13.958 140.317 8.991 140.317C4.025 140.317 0 144.343 0 149.308V374.41C0 397.394 18.7 416.094 41.683 416.094H213.522L202.599 461.59H160.096C155.13 461.59 151.105 465.615 151.105 470.581C151.105 475.547 155.129 479.572 160.096 479.572H209.686H302.309H351.9C356.866 479.572 360.891 475.547 360.891 470.581C360.891 465.615 356.867 461.59 351.9 461.59H309.397L298.475 416.094H470.314C493.298 416.094 511.997 397.396 511.997 374.411C512 369.445 507.975 365.419 503.009 365.419ZM221.094 461.589L232.017 416.093H279.985L290.907 461.589H221.094Z" fill="#909090"/>
<path d="M472.65 353.264H39.35C34.384 353.264 30.359 357.289 30.359 362.255C30.359 367.221 34.385 371.246 39.35 371.246H472.65C477.617 371.246 481.641 367.221 481.641 362.255C481.641 357.289 477.617 353.264 472.65 353.264Z" fill="black"/>
<path d="M472.65 77.276H39.35C34.384 77.276 30.359 81.302 30.359 86.267C30.359 91.232 34.383 95.258 39.35 95.258H472.65C477.616 95.258 481.641 91.233 481.641 86.267C481.641 81.301 477.617 77.276 472.65 77.276Z" fill="black"/>
<path d="M276.382 146.938H246.111V146.939C241.144 146.939 237.12 150.964 237.12 155.93V292.59C237.12 297.555 241.144 301.581 246.111 301.581C251.078 301.581 255.102 297.555 255.102 292.59V257.797H276.383C294.601 257.797 309.424 242.975 309.424 224.756V179.978C309.423 161.76 294.601 146.938 276.382 146.938ZM291.44 224.758C291.44 233.062 284.685 239.817 276.381 239.817H255.1V164.922H276.381C284.685 164.921 291.44 171.676 291.44 179.98V224.758Z" fill="#57A4FF"/>
<path d="M202.973 290.356L191.881 247.126C190.647 242.318 185.753 239.418 180.937 240.651C176.128 241.886 173.229 246.784 174.464 251.595L175.405 255.264H142.99L159.197 192.103L167.671 225.121C168.905 229.929 173.802 232.832 178.615 231.594C183.425 230.359 186.323 225.46 185.088 220.65L167.907 153.695C166.886 149.719 163.303 146.939 159.198 146.939C155.093 146.939 151.51 149.719 150.489 153.695L115.421 290.355C114.187 295.165 117.086 300.064 121.894 301.299C122.644 301.491 123.395 301.583 124.134 301.583C128.142 301.583 131.795 298.885 132.837 294.824L138.374 273.245H180.017L185.554 294.824C186.596 298.884 190.25 301.583 194.257 301.583C194.995 301.583 195.748 301.491 196.497 301.299C201.309 300.065 204.208 295.166 202.973 290.356Z" fill="#57A4FF"/>
<path d="M387.868 283.599H372.284V164.921H387.868C392.834 164.921 396.859 160.896 396.859 155.93C396.859 150.964 392.835 146.939 387.868 146.939H338.718C333.752 146.939 329.727 150.964 329.727 155.93C329.727 160.896 333.751 164.921 338.718 164.921H354.302V283.6H338.718C333.752 283.6 329.727 287.626 329.727 292.591C329.727 297.556 333.751 301.582 338.718 301.582H387.868C392.834 301.582 396.859 297.556 396.859 292.591C396.859 287.625 392.835 283.599 387.868 283.599Z" fill="#57A4FF"/>
</g>
<defs>
<clipPath id="clip0">
<rect width="511.999" height="511.999" fill="white"/>
</clipPath>
</defs>
</svg>
