<svg width="191" height="86" viewBox="0 0 191 86" fill="none" xmlns="http://www.w3.org/2000/svg">
<g clip-path="url(#clip0)">
<path d="M10.6722 42.6567C15.6083 43.6689 18.0764 46.9706 18.0764 52.5617C18.0764 54.3933 17.8763 56.5623 17.4761 59.0687C17.0314 62.1534 16.809 64.6839 16.809 66.6601C16.809 71.2391 17.6539 75.0228 19.3438 78.0111C21.0781 80.9995 23.2349 83.0721 25.8142 84.2289V85.1688H15.1414C14.0297 84.5904 12.8067 83.5782 11.4726 82.1322C10.1385 80.7344 8.93786 78.6859 7.87059 75.9867C6.84778 73.3358 6.33638 70.1305 6.33638 66.3709C6.33638 64.4911 6.55873 62.0088 7.00343 58.9241C7.40366 56.3213 7.60377 54.1041 7.60377 52.2725C7.60377 50.3445 7.09237 48.6816 6.06956 47.2839C5.09122 45.8379 3.40137 44.9944 1 44.7534V40.4154C5.40251 39.8852 7.60377 37.3788 7.60377 32.8963C7.60377 31.0647 7.40366 28.8475 7.00343 26.2447C6.55873 23.1599 6.33638 20.6776 6.33638 18.7979C6.33638 15.0383 6.84778 11.833 7.87059 9.18203C8.93786 6.48285 10.1385 4.43437 11.4726 3.03658C12.8067 1.59059 14.0297 0.578394 15.1414 0H25.8142V0.93989C23.2349 2.09668 21.0781 4.16927 19.3438 7.15765C17.6539 10.146 16.809 13.9297 16.809 18.5087C16.809 20.4848 17.0314 22.9671 17.4761 25.9555C17.8763 28.5583 18.0764 30.7514 18.0764 32.5348C18.0764 35.3303 17.4761 37.5716 16.2754 39.2586C15.0747 40.8974 13.207 41.9819 10.6722 42.5121V42.6567Z" fill="#326EE6"/>
<path d="M10.6722 42.6567C15.6083 43.6689 18.0764 46.9706 18.0764 52.5617C18.0764 54.3933 17.8763 56.5623 17.4761 59.0687C17.0314 62.1534 16.809 64.6839 16.809 66.6601C16.809 71.2391 17.6539 75.0228 19.3438 78.0111C21.0781 80.9995 23.2349 83.0721 25.8142 84.2289V85.1688H15.1414C14.0297 84.5904 12.8067 83.5782 11.4726 82.1322C10.1385 80.7344 8.93786 78.6859 7.87059 75.9867C6.84778 73.3358 6.33638 70.1305 6.33638 66.3709C6.33638 64.4911 6.55873 62.0088 7.00343 58.9241C7.40366 56.3213 7.60377 54.1041 7.60377 52.2725C7.60377 50.3445 7.09237 48.6816 6.06956 47.2839C5.09122 45.8379 3.40137 44.9944 1 44.7534V40.4154C5.40251 39.8852 7.60377 37.3788 7.60377 32.8963C7.60377 31.0647 7.40366 28.8475 7.00343 26.2447C6.55873 23.1599 6.33638 20.6776 6.33638 18.7979C6.33638 15.0383 6.84778 11.833 7.87059 9.18203C8.93786 6.48285 10.1385 4.43437 11.4726 3.03658C12.8067 1.59059 14.0297 0.578394 15.1414 0H25.8142V0.93989C23.2349 2.09668 21.0781 4.16927 19.3438 7.15765C17.6539 10.146 16.809 13.9297 16.809 18.5087C16.809 20.4848 17.0314 22.9671 17.4761 25.9555C17.8763 28.5583 18.0764 30.7514 18.0764 32.5348C18.0764 35.3303 17.4761 37.5716 16.2754 39.2586C15.0747 40.8974 13.207 41.9819 10.6722 42.5121V42.6567Z" fill="url(#paint0_linear)"/>
<path d="M74.5222 60.1532H56.8454L53.9104 69.4798H41.9035L59.1801 18.7256H72.3209L89.5974 69.4798H77.4572L74.5222 60.1532ZM71.5872 50.7542L65.7171 31.9564L59.7804 50.7542H71.5872Z" fill="#326EE6"/>
<path d="M74.5222 60.1532H56.8454L53.9104 69.4798H41.9035L59.1801 18.7256H72.3209L89.5974 69.4798H77.4572L74.5222 60.1532ZM71.5872 50.7542L65.7171 31.9564L59.7804 50.7542H71.5872Z" fill="url(#paint1_linear)"/>
<path d="M105.438 51.5495V69.4798H94.0312V18.3641H112.508C118.112 18.3641 122.381 19.8824 125.316 22.9189C128.251 25.9073 129.718 29.9561 129.718 35.0652C129.718 38.2464 129.051 41.0902 127.717 43.5966C126.427 46.0548 124.493 48.0069 121.914 49.4528C119.335 50.8506 116.199 51.5495 112.508 51.5495H105.438ZM111.241 41.6445C115.821 41.6445 118.112 39.4514 118.112 35.0652C118.112 30.5827 115.821 28.3414 111.241 28.3414H105.438V41.6445H111.241Z" fill="#326EE6"/>
<path d="M105.438 51.5495V69.4798H94.0312V18.3641H112.508C118.112 18.3641 122.381 19.8824 125.316 22.9189C128.251 25.9073 129.718 29.9561 129.718 35.0652C129.718 38.2464 129.051 41.0902 127.717 43.5966C126.427 46.0548 124.493 48.0069 121.914 49.4528C119.335 50.8506 116.199 51.5495 112.508 51.5495H105.438ZM111.241 41.6445C115.821 41.6445 118.112 39.4514 118.112 35.0652C118.112 30.5827 115.821 28.3414 111.241 28.3414H105.438V41.6445H111.241Z" fill="url(#paint2_linear)"/>
<path d="M146.737 18.3641V69.4798H135.331V18.3641H146.737Z" fill="#326EE6"/>
<path d="M146.737 18.3641V69.4798H135.331V18.3641H146.737Z" fill="url(#paint3_linear)"/>
<path d="M181.641 42.5121C179.106 41.9819 177.239 40.9938 176.038 39.5478C174.837 38.0536 174.237 36.0774 174.237 33.6193C174.237 31.8359 174.437 29.6428 174.837 27.04C175.282 24.0516 175.504 21.5693 175.504 19.5932C175.504 16.6048 175.082 13.8333 174.237 11.2787C173.436 8.67593 172.347 6.48285 170.968 4.69947C169.59 2.91608 168.1 1.66289 166.499 0.93989V0H177.172C178.284 0.578394 179.507 1.59059 180.841 3.03658C182.175 4.43437 183.353 6.48285 184.376 9.18203C185.443 11.833 185.977 15.0383 185.977 18.7979C185.977 20.6776 185.755 23.1599 185.31 26.2447C184.865 29.1367 184.643 31.3539 184.643 32.8963C184.643 34.8724 185.154 36.6076 186.177 38.1018C187.244 39.5478 188.956 40.319 191.313 40.4154V44.7534C188.956 44.8016 187.244 45.5728 186.177 47.067C185.154 48.5611 184.643 50.2963 184.643 52.2725C184.643 53.8149 184.865 56.0321 185.31 58.9241C185.755 62.0088 185.977 64.4911 185.977 66.3709C185.977 70.1305 185.443 73.3358 184.376 75.9867C183.353 78.6859 182.175 80.7344 180.841 82.1322C179.507 83.5782 178.284 84.5904 177.172 85.1688H166.499V84.2289C168.1 83.5059 169.59 82.2527 170.968 80.4693C172.347 78.6859 173.436 76.4928 174.237 73.8901C175.082 71.3355 175.504 68.564 175.504 65.5756C175.504 63.5994 175.282 61.069 174.837 57.9842C174.437 55.4778 174.237 53.3088 174.237 51.4772C174.237 46.6091 176.705 43.6689 181.641 42.6567V42.5121Z" fill="#326EE6"/>
<path d="M181.641 42.5121C179.106 41.9819 177.239 40.9938 176.038 39.5478C174.837 38.0536 174.237 36.0774 174.237 33.6193C174.237 31.8359 174.437 29.6428 174.837 27.04C175.282 24.0516 175.504 21.5693 175.504 19.5932C175.504 16.6048 175.082 13.8333 174.237 11.2787C173.436 8.67593 172.347 6.48285 170.968 4.69947C169.59 2.91608 168.1 1.66289 166.499 0.93989V0H177.172C178.284 0.578394 179.507 1.59059 180.841 3.03658C182.175 4.43437 183.353 6.48285 184.376 9.18203C185.443 11.833 185.977 15.0383 185.977 18.7979C185.977 20.6776 185.755 23.1599 185.31 26.2447C184.865 29.1367 184.643 31.3539 184.643 32.8963C184.643 34.8724 185.154 36.6076 186.177 38.1018C187.244 39.5478 188.956 40.319 191.313 40.4154V44.7534C188.956 44.8016 187.244 45.5728 186.177 47.067C185.154 48.5611 184.643 50.2963 184.643 52.2725C184.643 53.8149 184.865 56.0321 185.31 58.9241C185.755 62.0088 185.977 64.4911 185.977 66.3709C185.977 70.1305 185.443 73.3358 184.376 75.9867C183.353 78.6859 182.175 80.7344 180.841 82.1322C179.507 83.5782 178.284 84.5904 177.172 85.1688H166.499V84.2289C168.1 83.5059 169.59 82.2527 170.968 80.4693C172.347 78.6859 173.436 76.4928 174.237 73.8901C175.082 71.3355 175.504 68.564 175.504 65.5756C175.504 63.5994 175.282 61.069 174.837 57.9842C174.437 55.4778 174.237 53.3088 174.237 51.4772C174.237 46.6091 176.705 43.6689 181.641 42.6567V42.5121Z" fill="url(#paint4_linear)"/>
</g>
<defs>
<linearGradient id="paint0_linear" x1="217.481" y1="124.346" x2="23.2859" y2="-119.744" gradientUnits="userSpaceOnUse">
<stop stop-color="#2DA8E6"/>
<stop offset="1" stop-color="white" stop-opacity="0"/>
</linearGradient>
<linearGradient id="paint1_linear" x1="217.481" y1="124.346" x2="23.2859" y2="-119.744" gradientUnits="userSpaceOnUse">
<stop stop-color="#2DA8E6"/>
<stop offset="1" stop-color="white" stop-opacity="0"/>
</linearGradient>
<linearGradient id="paint2_linear" x1="217.481" y1="124.346" x2="23.2859" y2="-119.744" gradientUnits="userSpaceOnUse">
<stop stop-color="#2DA8E6"/>
<stop offset="1" stop-color="white" stop-opacity="0"/>
</linearGradient>
<linearGradient id="paint3_linear" x1="217.481" y1="124.346" x2="23.2859" y2="-119.744" gradientUnits="userSpaceOnUse">
<stop stop-color="#2DA8E6"/>
<stop offset="1" stop-color="white" stop-opacity="0"/>
</linearGradient>
<linearGradient id="paint4_linear" x1="217.481" y1="124.346" x2="23.2859" y2="-119.744" gradientUnits="userSpaceOnUse">
<stop stop-color="#2DA8E6"/>
<stop offset="1" stop-color="white" stop-opacity="0"/>
</linearGradient>
<clipPath id="clip0">
<rect width="191" height="86" fill="white"/>
</clipPath>
</defs>
</svg>
