<svg width="911" height="573" viewBox="0 0 911 573" fill="none" xmlns="http://www.w3.org/2000/svg">
  <path d="M271.801 284.576C282.457 286.592 287.785 293.168 287.785 304.304C287.785 307.952 287.353 312.272 286.489 317.264C285.529 323.408 285.049 328.448 285.049 332.384C285.049 341.504 286.873 349.04 290.521 354.992C294.265 360.944 298.921 365.072 304.489 367.376V369.248H281.449C279.049 368.096 276.409 366.08 273.529 363.2C270.649 360.416 268.057 356.336 265.753 350.96C263.545 345.68 262.441 339.296 262.441 331.808C262.441 328.064 262.921 323.12 263.881 316.976C264.745 311.792 265.177 307.376 265.177 303.728C265.177 299.888 264.073 296.576 261.865 293.792C259.753 290.912 256.105 289.232 250.921 288.752V280.112C260.425 279.056 265.177 274.064 265.177 265.136C265.177 261.488 264.745 257.072 263.881 251.888C262.921 245.744 262.441 240.8 262.441 237.056C262.441 229.568 263.545 223.184 265.753 217.904C268.057 212.528 270.649 208.448 273.529 205.664C276.409 202.784 279.049 200.768 281.449 199.616H304.489V201.488C298.921 203.792 294.265 207.92 290.521 213.872C286.873 219.824 285.049 227.36 285.049 236.48C285.049 240.416 285.529 245.36 286.489 251.312C287.353 256.496 287.785 260.864 287.785 264.416C287.785 269.984 286.489 274.448 283.897 277.808C281.305 281.072 277.273 283.232 271.801 284.288V284.576ZM409.638 319.424H371.478L365.142 338H339.222L376.518 236.912H404.886L442.182 338H415.974L409.638 319.424ZM403.302 300.704L390.63 263.264L377.814 300.704H403.302ZM476.378 302.288V338H451.754V236.192H491.642C503.738 236.192 512.954 239.216 519.29 245.264C525.626 251.216 528.794 259.28 528.794 269.456C528.794 275.792 527.354 281.456 524.474 286.448C521.69 291.344 517.514 295.232 511.946 298.112C506.378 300.896 499.61 302.288 491.642 302.288H476.378ZM488.906 282.56C498.794 282.56 503.738 278.192 503.738 269.456C503.738 260.528 498.794 256.064 488.906 256.064H476.378V282.56H488.906ZM565.534 236.192V338H540.91V236.192H565.534ZM640.883 284.288C635.411 283.232 631.379 281.264 628.787 278.384C626.195 275.408 624.899 271.472 624.899 266.576C624.899 263.024 625.331 258.656 626.195 253.472C627.155 247.52 627.635 242.576 627.635 238.64C627.635 232.688 626.723 227.168 624.899 222.08C623.171 216.896 620.819 212.528 617.843 208.976C614.867 205.424 611.651 202.928 608.195 201.488V199.616H631.235C633.635 200.768 636.275 202.784 639.155 205.664C642.035 208.448 644.579 212.528 646.787 217.904C649.091 223.184 650.243 229.568 650.243 237.056C650.243 240.8 649.763 245.744 648.803 251.888C647.843 257.648 647.363 262.064 647.363 265.136C647.363 269.072 648.467 272.528 650.675 275.504C652.979 278.384 656.675 279.92 661.763 280.112V288.752C656.675 288.848 652.979 290.384 650.675 293.36C648.467 296.336 647.363 299.792 647.363 303.728C647.363 306.8 647.843 311.216 648.803 316.976C649.763 323.12 650.243 328.064 650.243 331.808C650.243 339.296 649.091 345.68 646.787 350.96C644.579 356.336 642.035 360.416 639.155 363.2C636.275 366.08 633.635 368.096 631.235 369.248H608.195V367.376C611.651 365.936 614.867 363.44 617.843 359.888C620.819 356.336 623.171 351.968 624.899 346.784C626.723 341.696 627.635 336.176 627.635 330.224C627.635 326.288 627.155 321.248 626.195 315.104C625.331 310.112 624.899 305.792 624.899 302.144C624.899 292.448 630.227 286.592 640.883 284.576V284.288Z" fill="#326EE6" />
  <path d="M271.801 284.576C282.457 286.592 287.785 293.168 287.785 304.304C287.785 307.952 287.353 312.272 286.489 317.264C285.529 323.408 285.049 328.448 285.049 332.384C285.049 341.504 286.873 349.04 290.521 354.992C294.265 360.944 298.921 365.072 304.489 367.376V369.248H281.449C279.049 368.096 276.409 366.08 273.529 363.2C270.649 360.416 268.057 356.336 265.753 350.96C263.545 345.68 262.441 339.296 262.441 331.808C262.441 328.064 262.921 323.12 263.881 316.976C264.745 311.792 265.177 307.376 265.177 303.728C265.177 299.888 264.073 296.576 261.865 293.792C259.753 290.912 256.105 289.232 250.921 288.752V280.112C260.425 279.056 265.177 274.064 265.177 265.136C265.177 261.488 264.745 257.072 263.881 251.888C262.921 245.744 262.441 240.8 262.441 237.056C262.441 229.568 263.545 223.184 265.753 217.904C268.057 212.528 270.649 208.448 273.529 205.664C276.409 202.784 279.049 200.768 281.449 199.616H304.489V201.488C298.921 203.792 294.265 207.92 290.521 213.872C286.873 219.824 285.049 227.36 285.049 236.48C285.049 240.416 285.529 245.36 286.489 251.312C287.353 256.496 287.785 260.864 287.785 264.416C287.785 269.984 286.489 274.448 283.897 277.808C281.305 281.072 277.273 283.232 271.801 284.288V284.576ZM409.638 319.424H371.478L365.142 338H339.222L376.518 236.912H404.886L442.182 338H415.974L409.638 319.424ZM403.302 300.704L390.63 263.264L377.814 300.704H403.302ZM476.378 302.288V338H451.754V236.192H491.642C503.738 236.192 512.954 239.216 519.29 245.264C525.626 251.216 528.794 259.28 528.794 269.456C528.794 275.792 527.354 281.456 524.474 286.448C521.69 291.344 517.514 295.232 511.946 298.112C506.378 300.896 499.61 302.288 491.642 302.288H476.378ZM488.906 282.56C498.794 282.56 503.738 278.192 503.738 269.456C503.738 260.528 498.794 256.064 488.906 256.064H476.378V282.56H488.906ZM565.534 236.192V338H540.91V236.192H565.534ZM640.883 284.288C635.411 283.232 631.379 281.264 628.787 278.384C626.195 275.408 624.899 271.472 624.899 266.576C624.899 263.024 625.331 258.656 626.195 253.472C627.155 247.52 627.635 242.576 627.635 238.64C627.635 232.688 626.723 227.168 624.899 222.08C623.171 216.896 620.819 212.528 617.843 208.976C614.867 205.424 611.651 202.928 608.195 201.488V199.616H631.235C633.635 200.768 636.275 202.784 639.155 205.664C642.035 208.448 644.579 212.528 646.787 217.904C649.091 223.184 650.243 229.568 650.243 237.056C650.243 240.8 649.763 245.744 648.803 251.888C647.843 257.648 647.363 262.064 647.363 265.136C647.363 269.072 648.467 272.528 650.675 275.504C652.979 278.384 656.675 279.92 661.763 280.112V288.752C656.675 288.848 652.979 290.384 650.675 293.36C648.467 296.336 647.363 299.792 647.363 303.728C647.363 306.8 647.843 311.216 648.803 316.976C649.763 323.12 650.243 328.064 650.243 331.808C650.243 339.296 649.091 345.68 646.787 350.96C644.579 356.336 642.035 360.416 639.155 363.2C636.275 366.08 633.635 368.096 631.235 369.248H608.195V367.376C611.651 365.936 614.867 363.44 617.843 359.888C620.819 356.336 623.171 351.968 624.899 346.784C626.723 341.696 627.635 336.176 627.635 330.224C627.635 326.288 627.155 321.248 626.195 315.104C625.331 310.112 624.899 305.792 624.899 302.144C624.899 292.448 630.227 286.592 640.883 284.576V284.288Z" fill="url(#paint0_linear)" />
  <defs>
    <linearGradient id="paint0_linear" x1="764.5" y1="500" x2="289.5" y2="24.9999" gradientUnits="userSpaceOnUse">
      <stop stop-color="#2DA8E6" />
      <stop offset="1" stop-color="white" stop-opacity="0" />
    </linearGradient>
  </defs>
</svg>
