<svg width="911" height="573" viewBox="0 0 911 573" fill="none" xmlns="http://www.w3.org/2000/svg">
<path fill-rule="evenodd" clip-rule="evenodd" d="M542.872 148V134.368H549.256C553 134.368 555.864 133.488 557.848 131.728C559.832 129.936 560.824 127.456 560.824 124.288C560.824 121.152 559.864 118.688 557.944 116.896C556.024 115.072 553.128 114.16 549.256 114.16H538.504V148H542.872ZM554.584 129.04C553.432 130.16 551.528 130.72 548.872 130.72H542.872V117.808H548.872C551.528 117.808 553.432 118.368 554.584 119.488C555.768 120.576 556.36 122.176 556.36 124.288C556.36 126.336 555.768 127.92 554.584 129.04ZM576.294 142.384L567.75 121.648H562.854L573.942 147.568L568.47 160.48H573.414L589.062 121.648H584.214L576.294 142.384ZM605.642 148V144.16H602.954C601.418 144.16 600.33 143.856 599.69 143.248C599.082 142.608 598.778 141.44 598.778 139.744V125.44H605.594V121.648H598.778V115.072H594.362V121.648H590.426V125.44H594.362V139.648C594.362 142.656 595.018 144.8 596.33 146.08C597.674 147.36 599.69 148 602.378 148H605.642ZM632.285 124.192C630.397 122.208 627.917 121.216 624.845 121.216C622.605 121.216 620.621 121.792 618.893 122.944C617.197 124.096 616.013 125.744 615.341 127.888V112.48H610.973V148H615.341V134.032C615.341 131.056 616.061 128.8 617.501 127.264C618.941 125.696 620.861 124.912 623.261 124.912C625.565 124.912 627.389 125.616 628.733 127.024C630.077 128.432 630.749 130.448 630.749 133.072V148H635.117V132.688C635.117 128.976 634.173 126.144 632.285 124.192ZM660.536 122.944C658.552 121.856 656.296 121.312 653.768 121.312C651.24 121.312 648.968 121.856 646.952 122.944C644.968 124.032 643.4 125.6 642.248 127.648C641.096 129.696 640.52 132.096 640.52 134.848C640.52 137.6 641.096 140 642.248 142.048C643.4 144.064 644.968 145.616 646.952 146.704C648.968 147.792 651.24 148.336 653.768 148.336C656.296 148.336 658.552 147.792 660.536 146.704C662.552 145.616 664.12 144.064 665.24 142.048C666.392 140 666.968 137.6 666.968 134.848C666.968 132.096 666.392 129.696 665.24 127.648C664.12 125.6 662.552 124.032 660.536 122.944ZM649.4 126.208C650.744 125.504 652.2 125.152 653.768 125.152C655.336 125.152 656.776 125.504 658.088 126.208C659.432 126.912 660.504 128 661.304 129.472C662.136 130.912 662.552 132.704 662.552 134.848C662.552 136.96 662.136 138.752 661.304 140.224C660.504 141.664 659.432 142.736 658.088 143.44C656.776 144.144 655.336 144.496 653.768 144.496C652.2 144.496 650.744 144.144 649.4 143.44C648.088 142.736 647.016 141.664 646.184 140.224C645.384 138.752 644.984 136.96 644.984 134.848C644.984 132.704 645.384 130.912 646.184 129.472C647.016 128 648.088 126.912 649.4 126.208ZM693.972 124.192C692.084 122.208 689.604 121.216 686.532 121.216C684.292 121.216 682.308 121.792 680.58 122.944C678.884 124.096 677.7 125.744 677.028 127.888V121.648H672.66V148H677.028V134.032C677.028 131.056 677.748 128.8 679.188 127.264C680.628 125.696 682.548 124.912 684.948 124.912C687.252 124.912 689.076 125.616 690.42 127.024C691.764 128.432 692.436 130.448 692.436 133.072V148H696.804V132.688C696.804 128.976 695.86 126.144 693.972 124.192ZM269.32 137.112V161.016C269.32 164.28 268.408 166.824 266.584 168.648C264.792 170.44 262.296 171.336 259.096 171.336C255.64 171.336 252.904 170.344 250.888 168.36C248.872 166.376 247.864 163.544 247.864 159.864H254.536C254.536 161.592 254.888 162.92 255.592 163.848C256.328 164.776 257.4 165.24 258.808 165.24C260.088 165.24 261.032 164.872 261.64 164.136C262.248 163.368 262.552 162.328 262.552 161.016V137.112H269.32ZM285.66 144.072C287.9 144.072 289.82 144.6 291.42 145.656C293.02 146.712 294.156 148.136 294.828 149.928V144.408H301.548V171H294.828V165.432C294.156 167.224 293.02 168.664 291.42 169.752C289.82 170.808 287.9 171.336 285.66 171.336C283.42 171.336 281.404 170.792 279.612 169.704C277.82 168.616 276.412 167.048 275.388 165C274.396 162.92 273.9 160.488 273.9 157.704C273.9 154.92 274.396 152.504 275.388 150.456C276.412 148.376 277.82 146.792 279.612 145.704C281.404 144.616 283.42 144.072 285.66 144.072ZM287.772 149.976C285.66 149.976 283.964 150.664 282.684 152.04C281.404 153.416 280.764 155.304 280.764 157.704C280.764 160.104 281.404 161.992 282.684 163.368C283.964 164.712 285.66 165.384 287.772 165.384C289.82 165.384 291.5 164.696 292.812 163.32C294.156 161.912 294.828 160.04 294.828 157.704C294.828 155.336 294.156 153.464 292.812 152.088C291.5 150.68 289.82 149.976 287.772 149.976ZM319.249 164.232L325.969 144.408H333.169L323.329 171H315.073L305.233 144.408H312.481L319.249 164.232ZM347.347 144.072C349.587 144.072 351.507 144.6 353.107 145.656C354.707 146.712 355.843 148.136 356.515 149.928V144.408H363.235V171H356.515V165.432C355.843 167.224 354.707 168.664 353.107 169.752C351.507 170.808 349.587 171.336 347.347 171.336C345.107 171.336 343.091 170.792 341.299 169.704C339.507 168.616 338.099 167.048 337.075 165C336.083 162.92 335.587 160.488 335.587 157.704C335.587 154.92 336.083 152.504 337.075 150.456C338.099 148.376 339.507 146.792 341.299 145.704C343.091 144.616 345.107 144.072 347.347 144.072ZM349.459 149.976C347.347 149.976 345.651 150.664 344.371 152.04C343.091 153.416 342.451 155.304 342.451 157.704C342.451 160.104 343.091 161.992 344.371 163.368C345.651 164.712 347.347 165.384 349.459 165.384C351.507 165.384 353.187 164.696 354.499 163.32C355.843 161.912 356.515 160.04 356.515 157.704C356.515 155.336 355.843 153.464 354.499 152.088C353.187 150.68 351.507 149.976 349.459 149.976ZM468.464 231.696C462.96 227.536 455.952 225.456 447.44 225.456C440.656 225.456 434.704 226.928 429.584 229.872C424.528 232.752 420.592 236.816 417.776 242.064C415.024 247.312 413.648 253.296 413.648 260.016C413.648 266.736 415.024 272.72 417.776 277.968C420.592 283.216 424.56 287.312 429.68 290.256C434.8 293.136 440.784 294.576 447.632 294.576C453.264 294.576 458.256 293.52 462.608 291.408C467.024 289.296 470.64 286.544 473.456 283.152C476.272 279.76 478.32 276.08 479.6 272.112V255.888H445.136V267.696H465.872C464.656 271.664 462.576 274.736 459.632 276.912C456.688 279.024 453.264 280.08 449.36 280.08C443.28 280.08 438.576 278.352 435.248 274.896C431.984 271.44 430.352 266.48 430.352 260.016C430.352 254.064 431.92 249.36 435.056 245.904C438.192 242.384 442.352 240.624 447.536 240.624C450.864 240.624 453.712 241.36 456.08 242.832C458.448 244.24 460.208 246.16 461.36 248.592H478.736C477.392 241.488 473.968 235.856 468.464 231.696ZM528.053 243.12C523.893 240.88 519.157 239.76 513.845 239.76C508.533 239.76 503.765 240.88 499.541 243.12C495.317 245.296 491.989 248.464 489.557 252.624C487.189 256.784 486.005 261.648 486.005 267.216C486.005 272.784 487.189 277.648 489.557 281.808C491.989 285.968 495.317 289.168 499.541 291.408C503.765 293.584 508.533 294.672 513.845 294.672C519.157 294.672 523.893 293.584 528.053 291.408C532.277 289.168 535.573 285.968 537.941 281.808C540.373 277.648 541.589 272.784 541.589 267.216C541.589 261.648 540.373 256.784 537.941 252.624C535.573 248.464 532.277 245.296 528.053 243.12ZM505.877 257.424C508.053 255.12 510.709 253.968 513.845 253.968C516.981 253.968 519.605 255.12 521.717 257.424C523.829 259.664 524.885 262.928 524.885 267.216C524.885 271.504 523.829 274.768 521.717 277.008C519.605 279.248 516.981 280.368 513.845 280.368C510.709 280.368 508.053 279.248 505.877 277.008C503.765 274.768 502.709 271.504 502.709 267.216C502.709 262.928 503.765 259.664 505.877 257.424ZM164.64 433.872V399.096H152.328V433.872C152.328 437.52 150.768 439.344 147.648 439.344C144.048 439.344 142.248 436.968 142.248 432.216H130.08C130.08 438.12 131.712 442.656 134.976 445.824C138.24 448.944 142.656 450.504 148.224 450.504C153.36 450.504 157.368 449.064 160.248 446.184C163.176 443.304 164.64 439.2 164.64 433.872ZM195.948 411.408C193.74 410.016 191.1 409.32 188.028 409.32C184.716 409.32 181.74 410.16 179.1 411.84C176.508 413.472 174.444 415.848 172.908 418.968C171.42 422.04 170.676 425.688 170.676 429.912C170.676 434.088 171.42 437.736 172.908 440.856C174.444 443.976 176.508 446.376 179.1 448.056C181.74 449.688 184.716 450.504 188.028 450.504C191.1 450.504 193.74 449.808 195.948 448.416C198.156 447.024 199.788 445.128 200.844 442.728V450H213.084V409.824H200.844V417.096C199.788 414.696 198.156 412.8 195.948 411.408ZM185.58 422.712C187.212 420.984 189.348 420.12 191.988 420.12C194.58 420.12 196.692 421.008 198.324 422.784C200.004 424.512 200.844 426.888 200.844 429.912C200.844 432.888 200.004 435.264 198.324 437.04C196.692 438.816 194.58 439.704 191.988 439.704C189.348 439.704 187.212 438.84 185.58 437.112C183.996 435.384 183.204 432.984 183.204 429.912C183.204 426.84 183.996 424.44 185.58 422.712ZM248.848 409.824L240.136 437.976L231.28 409.824H218.176L232.432 450H247.696L261.952 409.824H248.848ZM290.237 411.408C288.029 410.016 285.389 409.32 282.317 409.32C279.005 409.32 276.029 410.16 273.389 411.84C270.797 413.472 268.733 415.848 267.197 418.968C265.709 422.04 264.965 425.688 264.965 429.912C264.965 434.088 265.709 437.736 267.197 440.856C268.733 443.976 270.797 446.376 273.389 448.056C276.029 449.688 279.005 450.504 282.317 450.504C285.389 450.504 288.029 449.808 290.237 448.416C292.445 447.024 294.077 445.128 295.133 442.728V450H307.373V409.824H295.133V417.096C294.077 414.696 292.445 412.8 290.237 411.408ZM279.869 422.712C281.501 420.984 283.637 420.12 286.277 420.12C288.869 420.12 290.981 421.008 292.613 422.784C294.293 424.512 295.133 426.888 295.133 429.912C295.133 432.888 294.293 435.264 292.613 437.04C290.981 438.816 288.869 439.704 286.277 439.704C283.637 439.704 281.501 438.84 279.869 437.112C278.285 435.384 277.493 432.984 277.493 429.912C277.493 426.84 278.285 424.44 279.869 422.712ZM342.634 413.136C339.61 410.592 335.554 409.32 330.466 409.32C325.474 409.32 321.61 410.448 318.874 412.704C316.138 414.912 314.77 417.816 314.77 421.416C314.77 424.2 315.466 426.408 316.858 428.04C318.25 429.624 319.906 430.776 321.826 431.496C323.746 432.216 326.194 432.888 329.17 433.512C332.146 434.184 334.282 434.832 335.578 435.456C336.922 436.032 337.594 437.016 337.594 438.408C337.594 439.464 337.234 440.328 336.514 441C335.794 441.624 334.738 441.936 333.346 441.936C331.33 441.936 329.674 441.48 328.378 440.568C327.13 439.656 326.41 438.336 326.218 436.608H314.338C315.058 441.072 317.05 444.504 320.314 446.904C323.578 449.304 327.922 450.504 333.346 450.504C336.562 450.504 339.346 450 341.698 448.992C344.05 447.984 345.85 446.592 347.098 444.816C348.346 443.04 348.97 441 348.97 438.696C348.97 435.864 348.25 433.608 346.81 431.928C345.37 430.248 343.666 429.048 341.698 428.328C339.73 427.56 337.21 426.816 334.138 426.096C331.306 425.472 329.218 424.848 327.874 424.224C326.578 423.6 325.93 422.664 325.93 421.416C325.93 420.312 326.29 419.472 327.01 418.896C327.73 418.272 328.786 417.96 330.178 417.96C331.954 417.96 333.418 418.44 334.57 419.4C335.77 420.312 336.538 421.584 336.874 423.216H348.394C347.626 419.04 345.706 415.68 342.634 413.136ZM386.963 413.64C383.459 410.76 379.115 409.32 373.931 409.32C369.995 409.32 366.491 410.16 363.419 411.84C360.347 413.472 357.947 415.848 356.219 418.968C354.539 422.04 353.699 425.688 353.699 429.912C353.699 434.088 354.563 437.736 356.291 440.856C358.019 443.976 360.395 446.376 363.419 448.056C366.491 449.688 369.995 450.504 373.931 450.504C379.115 450.504 383.459 449.088 386.963 446.256C390.467 443.376 392.675 439.44 393.587 434.448H380.555C380.171 436.176 379.379 437.52 378.179 438.48C376.979 439.44 375.467 439.92 373.643 439.92C371.483 439.92 369.707 439.08 368.315 437.4C366.923 435.672 366.227 433.176 366.227 429.912C366.227 426.648 366.923 424.176 368.315 422.496C369.707 420.768 371.483 419.904 373.643 419.904C375.467 419.904 376.979 420.384 378.179 421.344C379.379 422.304 380.171 423.648 380.555 425.376H393.587C392.675 420.384 390.467 416.472 386.963 413.64ZM418.23 411.552C415.83 412.992 413.862 414.936 412.326 417.384V409.824H400.014V450H412.326V431.712C412.326 428.4 413.214 426.048 414.99 424.656C416.814 423.264 419.358 422.568 422.622 422.568H426.15V409.392C423.318 409.392 420.678 410.112 418.23 411.552ZM432.167 393.912C430.823 395.112 430.151 396.648 430.151 398.52C430.151 400.344 430.823 401.88 432.167 403.128C433.511 404.328 435.287 404.928 437.495 404.928C439.703 404.928 441.479 404.328 442.823 403.128C444.167 401.88 444.839 400.344 444.839 398.52C444.839 396.648 444.167 395.112 442.823 393.912C441.479 392.664 439.703 392.04 437.495 392.04C435.287 392.04 433.511 392.664 432.167 393.912ZM431.303 450H443.615V409.824H431.303V450ZM486.027 411.84C483.435 410.16 480.483 409.32 477.171 409.32C474.099 409.32 471.459 410.016 469.251 411.408C467.043 412.8 465.435 414.696 464.427 417.096V409.824H452.115V469.152H464.427V442.728C465.435 445.128 467.043 447.024 469.251 448.416C471.459 449.808 474.099 450.504 477.171 450.504C480.483 450.504 483.435 449.688 486.027 448.056C488.667 446.376 490.731 443.976 492.219 440.856C493.755 437.736 494.523 434.088 494.523 429.912C494.523 425.688 493.755 422.04 492.219 418.968C490.731 415.848 488.667 413.472 486.027 411.84ZM466.803 422.784C468.483 421.008 470.619 420.12 473.211 420.12C475.851 420.12 477.963 420.984 479.547 422.712C481.179 424.44 481.995 426.84 481.995 429.912C481.995 432.984 481.179 435.384 479.547 437.112C477.963 438.84 475.851 439.704 473.211 439.704C470.619 439.704 468.483 438.816 466.803 437.04C465.171 435.264 464.355 432.888 464.355 429.912C464.355 426.888 465.171 424.512 466.803 422.784ZM523.664 450V439.416H519.776C518.24 439.416 517.136 439.104 516.464 438.48C515.84 437.856 515.528 436.752 515.528 435.168V420.192H523.592V409.824H515.528V399.96H503.216V409.824H497.816V420.192H503.216V434.952C503.216 440.328 504.512 444.192 507.104 446.544C509.744 448.848 513.416 450 518.12 450H523.664ZM147.48 215.824C151.608 215.824 155.016 216.848 157.704 218.896C160.392 220.912 162.248 223.68 163.272 227.2H158.664C157.8 224.96 156.408 223.184 154.488 221.872C152.568 220.528 150.216 219.856 147.432 219.856C145.224 219.856 143.24 220.4 141.48 221.488C139.752 222.544 138.376 224.08 137.352 226.096C136.36 228.08 135.864 230.416 135.864 233.104C135.864 235.76 136.36 238.08 137.352 240.064C138.376 242.048 139.752 243.584 141.48 244.672C143.24 245.728 145.224 246.256 147.432 246.256C150.216 246.256 152.568 245.6 154.488 244.288C156.408 242.944 157.8 241.152 158.664 238.912H163.272C162.248 242.432 160.392 245.216 157.704 247.264C155.016 249.28 151.608 250.288 147.48 250.288C144.312 250.288 141.512 249.568 139.08 248.128C136.648 246.656 134.744 244.624 133.368 242.032C132.024 239.408 131.352 236.432 131.352 233.104C131.352 229.744 132.024 226.752 133.368 224.128C134.744 221.504 136.648 219.472 139.08 218.032C141.512 216.56 144.312 215.824 147.48 215.824ZM195.369 228.448L193.689 236.224H200.409V240.208H192.873L190.761 250H186.633L188.745 240.208H178.617L176.505 250H172.377L174.489 240.208H167.001V236.224H175.305L176.985 228.448H169.737V224.416H177.849L179.961 214.48H184.089L181.977 224.416H192.105L194.217 214.48H198.345L196.233 224.416H203.097V228.448H195.369ZM191.241 228.448H181.113L179.433 236.224H189.561L191.241 228.448ZM615.896 401.04C613.112 398.864 609.608 397.776 605.384 397.776C602.12 397.776 599.256 398.512 596.792 399.984C594.328 401.424 592.408 403.456 591.032 406.08C589.688 408.704 589.016 411.696 589.016 415.056C589.016 418.384 589.688 421.36 591.032 423.984C592.408 426.608 594.328 428.656 596.792 430.128C599.288 431.568 602.152 432.288 605.384 432.288C609.608 432.288 613.112 431.2 615.896 429.024C618.68 426.848 620.52 423.888 621.416 420.144H614.312C613.576 421.968 612.424 423.408 610.856 424.464C609.32 425.52 607.464 426.048 605.288 426.048C603.496 426.048 601.88 425.6 600.44 424.704C599 423.808 597.88 422.528 597.08 420.864C596.28 419.2 595.88 417.264 595.88 415.056C595.88 412.816 596.28 410.864 597.08 409.2C597.88 407.536 599 406.256 600.44 405.36C601.88 404.464 603.496 404.016 605.288 404.016C607.464 404.016 609.32 404.544 610.856 405.6C612.424 406.656 613.576 408.096 614.312 409.92H621.416C620.52 406.176 618.68 403.216 615.896 401.04ZM640.27 418.032H649.246V411.84H640.27V402.672H633.742V411.84H624.766V418.032H633.742V427.152H640.27V418.032ZM667.457 418.032H676.433V411.84H667.457V402.672H660.929V411.84H651.953V418.032H660.929V427.152H667.457V418.032ZM675.456 287L666.624 273.176H661.872V287H657.504V253.16H668.64C672.48 253.16 675.36 254.088 677.28 255.944C679.2 257.768 680.16 260.2 680.16 263.24C680.16 265.992 679.392 268.216 677.856 269.912C676.32 271.576 674.096 272.616 671.184 273.032L680.4 287H675.456ZM661.872 270.008H668.256C673.216 270.008 675.696 267.832 675.696 263.48C675.696 259.128 673.216 256.952 668.256 256.952H661.872V270.008ZM708.912 260.648V287H704.544V280.808C703.872 282.952 702.672 284.6 700.944 285.752C699.248 286.872 697.264 287.432 694.992 287.432C691.952 287.432 689.488 286.456 687.6 284.504C685.712 282.52 684.768 279.688 684.768 276.008V260.648H689.136V275.576C689.136 278.2 689.808 280.232 691.152 281.672C692.496 283.08 694.32 283.784 696.624 283.784C699.024 283.784 700.944 283.016 702.384 281.48C703.824 279.912 704.544 277.64 704.544 274.664V260.648H708.912ZM730.454 260.312C732.79 260.312 734.87 260.856 736.694 261.944C738.518 263.032 739.942 264.6 740.966 266.648C742.022 268.696 742.55 271.096 742.55 273.848C742.55 276.6 742.022 279 740.966 281.048C739.942 283.064 738.518 284.616 736.694 285.704C734.87 286.792 732.79 287.336 730.454 287.336C727.894 287.336 725.718 286.696 723.926 285.416C722.166 284.104 720.95 282.392 720.278 280.28V287H715.91V251.48H720.278V267.368C720.95 265.256 722.166 263.56 723.926 262.28C725.718 260.968 727.894 260.312 730.454 260.312ZM729.206 264.2C727.51 264.2 725.974 264.6 724.598 265.4C723.222 266.168 722.15 267.288 721.382 268.76C720.614 270.232 720.23 271.928 720.23 273.848C720.23 275.768 720.614 277.464 721.382 278.936C722.15 280.376 723.222 281.496 724.598 282.296C725.974 283.096 727.51 283.496 729.206 283.496C731.926 283.496 734.086 282.648 735.686 280.952C737.318 279.224 738.134 276.856 738.134 273.848C738.134 270.84 737.318 268.488 735.686 266.792C734.086 265.064 731.926 264.2 729.206 264.2ZM750.078 260.648L758.622 281.384L766.542 260.648H771.39L755.742 299.48H750.798L756.27 286.568L745.182 260.648H750.078ZM216.76 337.68C217.528 336.304 217.912 334.816 217.912 333.216C217.912 331.072 217.448 329.36 216.52 328.08C215.592 326.768 214.456 325.792 213.112 325.152C211.8 324.512 210.056 323.84 207.88 323.136C206.088 322.56 204.68 322.048 203.656 321.6C202.632 321.12 201.768 320.48 201.064 319.68C200.392 318.848 200.056 317.776 200.056 316.464C200.056 314.8 200.584 313.52 201.64 312.624C202.696 311.696 204.104 311.232 205.864 311.232C207.784 311.232 209.304 311.744 210.424 312.768C211.544 313.792 212.232 314.976 212.488 316.32H217.192C216.872 313.824 215.736 311.776 213.784 310.176C211.832 308.544 209.192 307.728 205.864 307.728C203.72 307.728 201.848 308.096 200.248 308.832C198.68 309.568 197.464 310.608 196.6 311.952C195.768 313.296 195.352 314.848 195.352 316.608C195.352 318.656 195.8 320.304 196.696 321.552C197.624 322.8 198.728 323.744 200.008 324.384C201.32 324.992 203.048 325.648 205.192 326.352C207.016 326.928 208.456 327.472 209.512 327.984C210.568 328.464 211.448 329.136 212.152 330C212.888 330.864 213.256 331.984 213.256 333.36C213.256 334.96 212.744 336.272 211.72 337.296C210.696 338.32 209.224 338.832 207.304 338.832C205.832 338.832 204.568 338.544 203.512 337.968C202.488 337.36 201.688 336.608 201.112 335.712C200.568 334.784 200.248 333.84 200.152 332.88H195.496C195.656 334.704 196.248 336.336 197.272 337.776C198.328 339.184 199.72 340.304 201.448 341.136C203.208 341.936 205.208 342.336 207.448 342.336C209.752 342.336 211.688 341.904 213.256 341.04C214.824 340.176 215.992 339.056 216.76 337.68ZM243.801 318C241.593 316.208 238.809 315.312 235.449 315.312C232.921 315.312 230.681 315.856 228.729 316.944C226.777 318.032 225.241 319.6 224.121 321.648C223.033 323.696 222.489 326.096 222.489 328.848C222.489 331.6 223.033 334 224.121 336.048C225.241 338.064 226.777 339.616 228.729 340.704C230.681 341.792 232.921 342.336 235.449 342.336C238.809 342.336 241.593 341.456 243.801 339.696C246.009 337.904 247.369 335.488 247.881 332.448H243.273C242.953 334.336 242.073 335.824 240.633 336.912C239.225 338 237.465 338.544 235.353 338.544C233.817 338.544 232.409 338.192 231.129 337.488C229.881 336.784 228.873 335.712 228.105 334.272C227.337 332.8 226.953 330.992 226.953 328.848C226.953 326.704 227.337 324.912 228.105 323.472C228.873 322 229.881 320.912 231.129 320.208C232.409 319.504 233.817 319.152 235.353 319.152C237.465 319.152 239.225 319.696 240.633 320.784C242.073 321.84 242.953 323.312 243.273 325.2H247.881C247.369 322.192 246.009 319.792 243.801 318ZM270.878 317.232C269.118 315.952 266.958 315.312 264.398 315.312C262.062 315.312 259.982 315.856 258.158 316.944C256.334 318.032 254.894 319.6 253.838 321.648C252.814 323.696 252.302 326.096 252.302 328.848C252.302 331.6 252.814 334 253.838 336.048C254.894 338.064 256.334 339.616 258.158 340.704C259.982 341.792 262.062 342.336 264.398 342.336C266.958 342.336 269.118 341.696 270.878 340.416C272.67 339.136 273.918 337.424 274.622 335.28V342H278.99V315.648H274.622V322.368C273.918 320.224 272.67 318.512 270.878 317.232ZM259.166 321.792C260.798 320.064 262.958 319.2 265.646 319.2C267.374 319.2 268.91 319.6 270.254 320.4C271.63 321.168 272.702 322.288 273.47 323.76C274.238 325.232 274.622 326.928 274.622 328.848C274.622 330.768 274.238 332.464 273.47 333.936C272.702 335.376 271.63 336.496 270.254 337.296C268.91 338.096 267.374 338.496 265.646 338.496C262.958 338.496 260.798 337.648 259.166 335.952C257.566 334.224 256.766 331.856 256.766 328.848C256.766 325.84 257.566 323.488 259.166 321.792ZM290.309 342V306.48H285.941V342H290.309ZM314.612 317.232C312.852 315.952 310.692 315.312 308.132 315.312C305.796 315.312 303.716 315.856 301.892 316.944C300.068 318.032 298.628 319.6 297.572 321.648C296.548 323.696 296.036 326.096 296.036 328.848C296.036 331.6 296.548 334 297.572 336.048C298.628 338.064 300.068 339.616 301.892 340.704C303.716 341.792 305.796 342.336 308.132 342.336C310.692 342.336 312.852 341.696 314.612 340.416C316.404 339.136 317.652 337.424 318.356 335.28V342H322.724V315.648H318.356V322.368C317.652 320.224 316.404 318.512 314.612 317.232ZM302.9 321.792C304.532 320.064 306.692 319.2 309.38 319.2C311.108 319.2 312.644 319.6 313.988 320.4C315.364 321.168 316.436 322.288 317.204 323.76C317.972 325.232 318.356 326.928 318.356 328.848C318.356 330.768 317.972 332.464 317.204 333.936C316.436 335.376 315.364 336.496 313.988 337.296C312.644 338.096 311.108 338.496 309.38 338.496C306.692 338.496 304.532 337.648 302.9 335.952C301.3 334.224 300.5 331.856 300.5 328.848C300.5 325.84 301.3 323.488 302.9 321.792Z" fill="#2DA8E6"/>
<path fill-rule="evenodd" clip-rule="evenodd" d="M542.872 148V134.368H549.256C553 134.368 555.864 133.488 557.848 131.728C559.832 129.936 560.824 127.456 560.824 124.288C560.824 121.152 559.864 118.688 557.944 116.896C556.024 115.072 553.128 114.16 549.256 114.16H538.504V148H542.872ZM554.584 129.04C553.432 130.16 551.528 130.72 548.872 130.72H542.872V117.808H548.872C551.528 117.808 553.432 118.368 554.584 119.488C555.768 120.576 556.36 122.176 556.36 124.288C556.36 126.336 555.768 127.92 554.584 129.04ZM576.294 142.384L567.75 121.648H562.854L573.942 147.568L568.47 160.48H573.414L589.062 121.648H584.214L576.294 142.384ZM605.642 148V144.16H602.954C601.418 144.16 600.33 143.856 599.69 143.248C599.082 142.608 598.778 141.44 598.778 139.744V125.44H605.594V121.648H598.778V115.072H594.362V121.648H590.426V125.44H594.362V139.648C594.362 142.656 595.018 144.8 596.33 146.08C597.674 147.36 599.69 148 602.378 148H605.642ZM632.285 124.192C630.397 122.208 627.917 121.216 624.845 121.216C622.605 121.216 620.621 121.792 618.893 122.944C617.197 124.096 616.013 125.744 615.341 127.888V112.48H610.973V148H615.341V134.032C615.341 131.056 616.061 128.8 617.501 127.264C618.941 125.696 620.861 124.912 623.261 124.912C625.565 124.912 627.389 125.616 628.733 127.024C630.077 128.432 630.749 130.448 630.749 133.072V148H635.117V132.688C635.117 128.976 634.173 126.144 632.285 124.192ZM660.536 122.944C658.552 121.856 656.296 121.312 653.768 121.312C651.24 121.312 648.968 121.856 646.952 122.944C644.968 124.032 643.4 125.6 642.248 127.648C641.096 129.696 640.52 132.096 640.52 134.848C640.52 137.6 641.096 140 642.248 142.048C643.4 144.064 644.968 145.616 646.952 146.704C648.968 147.792 651.24 148.336 653.768 148.336C656.296 148.336 658.552 147.792 660.536 146.704C662.552 145.616 664.12 144.064 665.24 142.048C666.392 140 666.968 137.6 666.968 134.848C666.968 132.096 666.392 129.696 665.24 127.648C664.12 125.6 662.552 124.032 660.536 122.944ZM649.4 126.208C650.744 125.504 652.2 125.152 653.768 125.152C655.336 125.152 656.776 125.504 658.088 126.208C659.432 126.912 660.504 128 661.304 129.472C662.136 130.912 662.552 132.704 662.552 134.848C662.552 136.96 662.136 138.752 661.304 140.224C660.504 141.664 659.432 142.736 658.088 143.44C656.776 144.144 655.336 144.496 653.768 144.496C652.2 144.496 650.744 144.144 649.4 143.44C648.088 142.736 647.016 141.664 646.184 140.224C645.384 138.752 644.984 136.96 644.984 134.848C644.984 132.704 645.384 130.912 646.184 129.472C647.016 128 648.088 126.912 649.4 126.208ZM693.972 124.192C692.084 122.208 689.604 121.216 686.532 121.216C684.292 121.216 682.308 121.792 680.58 122.944C678.884 124.096 677.7 125.744 677.028 127.888V121.648H672.66V148H677.028V134.032C677.028 131.056 677.748 128.8 679.188 127.264C680.628 125.696 682.548 124.912 684.948 124.912C687.252 124.912 689.076 125.616 690.42 127.024C691.764 128.432 692.436 130.448 692.436 133.072V148H696.804V132.688C696.804 128.976 695.86 126.144 693.972 124.192ZM269.32 137.112V161.016C269.32 164.28 268.408 166.824 266.584 168.648C264.792 170.44 262.296 171.336 259.096 171.336C255.64 171.336 252.904 170.344 250.888 168.36C248.872 166.376 247.864 163.544 247.864 159.864H254.536C254.536 161.592 254.888 162.92 255.592 163.848C256.328 164.776 257.4 165.24 258.808 165.24C260.088 165.24 261.032 164.872 261.64 164.136C262.248 163.368 262.552 162.328 262.552 161.016V137.112H269.32ZM285.66 144.072C287.9 144.072 289.82 144.6 291.42 145.656C293.02 146.712 294.156 148.136 294.828 149.928V144.408H301.548V171H294.828V165.432C294.156 167.224 293.02 168.664 291.42 169.752C289.82 170.808 287.9 171.336 285.66 171.336C283.42 171.336 281.404 170.792 279.612 169.704C277.82 168.616 276.412 167.048 275.388 165C274.396 162.92 273.9 160.488 273.9 157.704C273.9 154.92 274.396 152.504 275.388 150.456C276.412 148.376 277.82 146.792 279.612 145.704C281.404 144.616 283.42 144.072 285.66 144.072ZM287.772 149.976C285.66 149.976 283.964 150.664 282.684 152.04C281.404 153.416 280.764 155.304 280.764 157.704C280.764 160.104 281.404 161.992 282.684 163.368C283.964 164.712 285.66 165.384 287.772 165.384C289.82 165.384 291.5 164.696 292.812 163.32C294.156 161.912 294.828 160.04 294.828 157.704C294.828 155.336 294.156 153.464 292.812 152.088C291.5 150.68 289.82 149.976 287.772 149.976ZM319.249 164.232L325.969 144.408H333.169L323.329 171H315.073L305.233 144.408H312.481L319.249 164.232ZM347.347 144.072C349.587 144.072 351.507 144.6 353.107 145.656C354.707 146.712 355.843 148.136 356.515 149.928V144.408H363.235V171H356.515V165.432C355.843 167.224 354.707 168.664 353.107 169.752C351.507 170.808 349.587 171.336 347.347 171.336C345.107 171.336 343.091 170.792 341.299 169.704C339.507 168.616 338.099 167.048 337.075 165C336.083 162.92 335.587 160.488 335.587 157.704C335.587 154.92 336.083 152.504 337.075 150.456C338.099 148.376 339.507 146.792 341.299 145.704C343.091 144.616 345.107 144.072 347.347 144.072ZM349.459 149.976C347.347 149.976 345.651 150.664 344.371 152.04C343.091 153.416 342.451 155.304 342.451 157.704C342.451 160.104 343.091 161.992 344.371 163.368C345.651 164.712 347.347 165.384 349.459 165.384C351.507 165.384 353.187 164.696 354.499 163.32C355.843 161.912 356.515 160.04 356.515 157.704C356.515 155.336 355.843 153.464 354.499 152.088C353.187 150.68 351.507 149.976 349.459 149.976ZM468.464 231.696C462.96 227.536 455.952 225.456 447.44 225.456C440.656 225.456 434.704 226.928 429.584 229.872C424.528 232.752 420.592 236.816 417.776 242.064C415.024 247.312 413.648 253.296 413.648 260.016C413.648 266.736 415.024 272.72 417.776 277.968C420.592 283.216 424.56 287.312 429.68 290.256C434.8 293.136 440.784 294.576 447.632 294.576C453.264 294.576 458.256 293.52 462.608 291.408C467.024 289.296 470.64 286.544 473.456 283.152C476.272 279.76 478.32 276.08 479.6 272.112V255.888H445.136V267.696H465.872C464.656 271.664 462.576 274.736 459.632 276.912C456.688 279.024 453.264 280.08 449.36 280.08C443.28 280.08 438.576 278.352 435.248 274.896C431.984 271.44 430.352 266.48 430.352 260.016C430.352 254.064 431.92 249.36 435.056 245.904C438.192 242.384 442.352 240.624 447.536 240.624C450.864 240.624 453.712 241.36 456.08 242.832C458.448 244.24 460.208 246.16 461.36 248.592H478.736C477.392 241.488 473.968 235.856 468.464 231.696ZM528.053 243.12C523.893 240.88 519.157 239.76 513.845 239.76C508.533 239.76 503.765 240.88 499.541 243.12C495.317 245.296 491.989 248.464 489.557 252.624C487.189 256.784 486.005 261.648 486.005 267.216C486.005 272.784 487.189 277.648 489.557 281.808C491.989 285.968 495.317 289.168 499.541 291.408C503.765 293.584 508.533 294.672 513.845 294.672C519.157 294.672 523.893 293.584 528.053 291.408C532.277 289.168 535.573 285.968 537.941 281.808C540.373 277.648 541.589 272.784 541.589 267.216C541.589 261.648 540.373 256.784 537.941 252.624C535.573 248.464 532.277 245.296 528.053 243.12ZM505.877 257.424C508.053 255.12 510.709 253.968 513.845 253.968C516.981 253.968 519.605 255.12 521.717 257.424C523.829 259.664 524.885 262.928 524.885 267.216C524.885 271.504 523.829 274.768 521.717 277.008C519.605 279.248 516.981 280.368 513.845 280.368C510.709 280.368 508.053 279.248 505.877 277.008C503.765 274.768 502.709 271.504 502.709 267.216C502.709 262.928 503.765 259.664 505.877 257.424ZM164.64 433.872V399.096H152.328V433.872C152.328 437.52 150.768 439.344 147.648 439.344C144.048 439.344 142.248 436.968 142.248 432.216H130.08C130.08 438.12 131.712 442.656 134.976 445.824C138.24 448.944 142.656 450.504 148.224 450.504C153.36 450.504 157.368 449.064 160.248 446.184C163.176 443.304 164.64 439.2 164.64 433.872ZM195.948 411.408C193.74 410.016 191.1 409.32 188.028 409.32C184.716 409.32 181.74 410.16 179.1 411.84C176.508 413.472 174.444 415.848 172.908 418.968C171.42 422.04 170.676 425.688 170.676 429.912C170.676 434.088 171.42 437.736 172.908 440.856C174.444 443.976 176.508 446.376 179.1 448.056C181.74 449.688 184.716 450.504 188.028 450.504C191.1 450.504 193.74 449.808 195.948 448.416C198.156 447.024 199.788 445.128 200.844 442.728V450H213.084V409.824H200.844V417.096C199.788 414.696 198.156 412.8 195.948 411.408ZM185.58 422.712C187.212 420.984 189.348 420.12 191.988 420.12C194.58 420.12 196.692 421.008 198.324 422.784C200.004 424.512 200.844 426.888 200.844 429.912C200.844 432.888 200.004 435.264 198.324 437.04C196.692 438.816 194.58 439.704 191.988 439.704C189.348 439.704 187.212 438.84 185.58 437.112C183.996 435.384 183.204 432.984 183.204 429.912C183.204 426.84 183.996 424.44 185.58 422.712ZM248.848 409.824L240.136 437.976L231.28 409.824H218.176L232.432 450H247.696L261.952 409.824H248.848ZM290.237 411.408C288.029 410.016 285.389 409.32 282.317 409.32C279.005 409.32 276.029 410.16 273.389 411.84C270.797 413.472 268.733 415.848 267.197 418.968C265.709 422.04 264.965 425.688 264.965 429.912C264.965 434.088 265.709 437.736 267.197 440.856C268.733 443.976 270.797 446.376 273.389 448.056C276.029 449.688 279.005 450.504 282.317 450.504C285.389 450.504 288.029 449.808 290.237 448.416C292.445 447.024 294.077 445.128 295.133 442.728V450H307.373V409.824H295.133V417.096C294.077 414.696 292.445 412.8 290.237 411.408ZM279.869 422.712C281.501 420.984 283.637 420.12 286.277 420.12C288.869 420.12 290.981 421.008 292.613 422.784C294.293 424.512 295.133 426.888 295.133 429.912C295.133 432.888 294.293 435.264 292.613 437.04C290.981 438.816 288.869 439.704 286.277 439.704C283.637 439.704 281.501 438.84 279.869 437.112C278.285 435.384 277.493 432.984 277.493 429.912C277.493 426.84 278.285 424.44 279.869 422.712ZM342.634 413.136C339.61 410.592 335.554 409.32 330.466 409.32C325.474 409.32 321.61 410.448 318.874 412.704C316.138 414.912 314.77 417.816 314.77 421.416C314.77 424.2 315.466 426.408 316.858 428.04C318.25 429.624 319.906 430.776 321.826 431.496C323.746 432.216 326.194 432.888 329.17 433.512C332.146 434.184 334.282 434.832 335.578 435.456C336.922 436.032 337.594 437.016 337.594 438.408C337.594 439.464 337.234 440.328 336.514 441C335.794 441.624 334.738 441.936 333.346 441.936C331.33 441.936 329.674 441.48 328.378 440.568C327.13 439.656 326.41 438.336 326.218 436.608H314.338C315.058 441.072 317.05 444.504 320.314 446.904C323.578 449.304 327.922 450.504 333.346 450.504C336.562 450.504 339.346 450 341.698 448.992C344.05 447.984 345.85 446.592 347.098 444.816C348.346 443.04 348.97 441 348.97 438.696C348.97 435.864 348.25 433.608 346.81 431.928C345.37 430.248 343.666 429.048 341.698 428.328C339.73 427.56 337.21 426.816 334.138 426.096C331.306 425.472 329.218 424.848 327.874 424.224C326.578 423.6 325.93 422.664 325.93 421.416C325.93 420.312 326.29 419.472 327.01 418.896C327.73 418.272 328.786 417.96 330.178 417.96C331.954 417.96 333.418 418.44 334.57 419.4C335.77 420.312 336.538 421.584 336.874 423.216H348.394C347.626 419.04 345.706 415.68 342.634 413.136ZM386.963 413.64C383.459 410.76 379.115 409.32 373.931 409.32C369.995 409.32 366.491 410.16 363.419 411.84C360.347 413.472 357.947 415.848 356.219 418.968C354.539 422.04 353.699 425.688 353.699 429.912C353.699 434.088 354.563 437.736 356.291 440.856C358.019 443.976 360.395 446.376 363.419 448.056C366.491 449.688 369.995 450.504 373.931 450.504C379.115 450.504 383.459 449.088 386.963 446.256C390.467 443.376 392.675 439.44 393.587 434.448H380.555C380.171 436.176 379.379 437.52 378.179 438.48C376.979 439.44 375.467 439.92 373.643 439.92C371.483 439.92 369.707 439.08 368.315 437.4C366.923 435.672 366.227 433.176 366.227 429.912C366.227 426.648 366.923 424.176 368.315 422.496C369.707 420.768 371.483 419.904 373.643 419.904C375.467 419.904 376.979 420.384 378.179 421.344C379.379 422.304 380.171 423.648 380.555 425.376H393.587C392.675 420.384 390.467 416.472 386.963 413.64ZM418.23 411.552C415.83 412.992 413.862 414.936 412.326 417.384V409.824H400.014V450H412.326V431.712C412.326 428.4 413.214 426.048 414.99 424.656C416.814 423.264 419.358 422.568 422.622 422.568H426.15V409.392C423.318 409.392 420.678 410.112 418.23 411.552ZM432.167 393.912C430.823 395.112 430.151 396.648 430.151 398.52C430.151 400.344 430.823 401.88 432.167 403.128C433.511 404.328 435.287 404.928 437.495 404.928C439.703 404.928 441.479 404.328 442.823 403.128C444.167 401.88 444.839 400.344 444.839 398.52C444.839 396.648 444.167 395.112 442.823 393.912C441.479 392.664 439.703 392.04 437.495 392.04C435.287 392.04 433.511 392.664 432.167 393.912ZM431.303 450H443.615V409.824H431.303V450ZM486.027 411.84C483.435 410.16 480.483 409.32 477.171 409.32C474.099 409.32 471.459 410.016 469.251 411.408C467.043 412.8 465.435 414.696 464.427 417.096V409.824H452.115V469.152H464.427V442.728C465.435 445.128 467.043 447.024 469.251 448.416C471.459 449.808 474.099 450.504 477.171 450.504C480.483 450.504 483.435 449.688 486.027 448.056C488.667 446.376 490.731 443.976 492.219 440.856C493.755 437.736 494.523 434.088 494.523 429.912C494.523 425.688 493.755 422.04 492.219 418.968C490.731 415.848 488.667 413.472 486.027 411.84ZM466.803 422.784C468.483 421.008 470.619 420.12 473.211 420.12C475.851 420.12 477.963 420.984 479.547 422.712C481.179 424.44 481.995 426.84 481.995 429.912C481.995 432.984 481.179 435.384 479.547 437.112C477.963 438.84 475.851 439.704 473.211 439.704C470.619 439.704 468.483 438.816 466.803 437.04C465.171 435.264 464.355 432.888 464.355 429.912C464.355 426.888 465.171 424.512 466.803 422.784ZM523.664 450V439.416H519.776C518.24 439.416 517.136 439.104 516.464 438.48C515.84 437.856 515.528 436.752 515.528 435.168V420.192H523.592V409.824H515.528V399.96H503.216V409.824H497.816V420.192H503.216V434.952C503.216 440.328 504.512 444.192 507.104 446.544C509.744 448.848 513.416 450 518.12 450H523.664ZM147.48 215.824C151.608 215.824 155.016 216.848 157.704 218.896C160.392 220.912 162.248 223.68 163.272 227.2H158.664C157.8 224.96 156.408 223.184 154.488 221.872C152.568 220.528 150.216 219.856 147.432 219.856C145.224 219.856 143.24 220.4 141.48 221.488C139.752 222.544 138.376 224.08 137.352 226.096C136.36 228.08 135.864 230.416 135.864 233.104C135.864 235.76 136.36 238.08 137.352 240.064C138.376 242.048 139.752 243.584 141.48 244.672C143.24 245.728 145.224 246.256 147.432 246.256C150.216 246.256 152.568 245.6 154.488 244.288C156.408 242.944 157.8 241.152 158.664 238.912H163.272C162.248 242.432 160.392 245.216 157.704 247.264C155.016 249.28 151.608 250.288 147.48 250.288C144.312 250.288 141.512 249.568 139.08 248.128C136.648 246.656 134.744 244.624 133.368 242.032C132.024 239.408 131.352 236.432 131.352 233.104C131.352 229.744 132.024 226.752 133.368 224.128C134.744 221.504 136.648 219.472 139.08 218.032C141.512 216.56 144.312 215.824 147.48 215.824ZM195.369 228.448L193.689 236.224H200.409V240.208H192.873L190.761 250H186.633L188.745 240.208H178.617L176.505 250H172.377L174.489 240.208H167.001V236.224H175.305L176.985 228.448H169.737V224.416H177.849L179.961 214.48H184.089L181.977 224.416H192.105L194.217 214.48H198.345L196.233 224.416H203.097V228.448H195.369ZM191.241 228.448H181.113L179.433 236.224H189.561L191.241 228.448ZM615.896 401.04C613.112 398.864 609.608 397.776 605.384 397.776C602.12 397.776 599.256 398.512 596.792 399.984C594.328 401.424 592.408 403.456 591.032 406.08C589.688 408.704 589.016 411.696 589.016 415.056C589.016 418.384 589.688 421.36 591.032 423.984C592.408 426.608 594.328 428.656 596.792 430.128C599.288 431.568 602.152 432.288 605.384 432.288C609.608 432.288 613.112 431.2 615.896 429.024C618.68 426.848 620.52 423.888 621.416 420.144H614.312C613.576 421.968 612.424 423.408 610.856 424.464C609.32 425.52 607.464 426.048 605.288 426.048C603.496 426.048 601.88 425.6 600.44 424.704C599 423.808 597.88 422.528 597.08 420.864C596.28 419.2 595.88 417.264 595.88 415.056C595.88 412.816 596.28 410.864 597.08 409.2C597.88 407.536 599 406.256 600.44 405.36C601.88 404.464 603.496 404.016 605.288 404.016C607.464 404.016 609.32 404.544 610.856 405.6C612.424 406.656 613.576 408.096 614.312 409.92H621.416C620.52 406.176 618.68 403.216 615.896 401.04ZM640.27 418.032H649.246V411.84H640.27V402.672H633.742V411.84H624.766V418.032H633.742V427.152H640.27V418.032ZM667.457 418.032H676.433V411.84H667.457V402.672H660.929V411.84H651.953V418.032H660.929V427.152H667.457V418.032ZM675.456 287L666.624 273.176H661.872V287H657.504V253.16H668.64C672.48 253.16 675.36 254.088 677.28 255.944C679.2 257.768 680.16 260.2 680.16 263.24C680.16 265.992 679.392 268.216 677.856 269.912C676.32 271.576 674.096 272.616 671.184 273.032L680.4 287H675.456ZM661.872 270.008H668.256C673.216 270.008 675.696 267.832 675.696 263.48C675.696 259.128 673.216 256.952 668.256 256.952H661.872V270.008ZM708.912 260.648V287H704.544V280.808C703.872 282.952 702.672 284.6 700.944 285.752C699.248 286.872 697.264 287.432 694.992 287.432C691.952 287.432 689.488 286.456 687.6 284.504C685.712 282.52 684.768 279.688 684.768 276.008V260.648H689.136V275.576C689.136 278.2 689.808 280.232 691.152 281.672C692.496 283.08 694.32 283.784 696.624 283.784C699.024 283.784 700.944 283.016 702.384 281.48C703.824 279.912 704.544 277.64 704.544 274.664V260.648H708.912ZM730.454 260.312C732.79 260.312 734.87 260.856 736.694 261.944C738.518 263.032 739.942 264.6 740.966 266.648C742.022 268.696 742.55 271.096 742.55 273.848C742.55 276.6 742.022 279 740.966 281.048C739.942 283.064 738.518 284.616 736.694 285.704C734.87 286.792 732.79 287.336 730.454 287.336C727.894 287.336 725.718 286.696 723.926 285.416C722.166 284.104 720.95 282.392 720.278 280.28V287H715.91V251.48H720.278V267.368C720.95 265.256 722.166 263.56 723.926 262.28C725.718 260.968 727.894 260.312 730.454 260.312ZM729.206 264.2C727.51 264.2 725.974 264.6 724.598 265.4C723.222 266.168 722.15 267.288 721.382 268.76C720.614 270.232 720.23 271.928 720.23 273.848C720.23 275.768 720.614 277.464 721.382 278.936C722.15 280.376 723.222 281.496 724.598 282.296C725.974 283.096 727.51 283.496 729.206 283.496C731.926 283.496 734.086 282.648 735.686 280.952C737.318 279.224 738.134 276.856 738.134 273.848C738.134 270.84 737.318 268.488 735.686 266.792C734.086 265.064 731.926 264.2 729.206 264.2ZM750.078 260.648L758.622 281.384L766.542 260.648H771.39L755.742 299.48H750.798L756.27 286.568L745.182 260.648H750.078ZM216.76 337.68C217.528 336.304 217.912 334.816 217.912 333.216C217.912 331.072 217.448 329.36 216.52 328.08C215.592 326.768 214.456 325.792 213.112 325.152C211.8 324.512 210.056 323.84 207.88 323.136C206.088 322.56 204.68 322.048 203.656 321.6C202.632 321.12 201.768 320.48 201.064 319.68C200.392 318.848 200.056 317.776 200.056 316.464C200.056 314.8 200.584 313.52 201.64 312.624C202.696 311.696 204.104 311.232 205.864 311.232C207.784 311.232 209.304 311.744 210.424 312.768C211.544 313.792 212.232 314.976 212.488 316.32H217.192C216.872 313.824 215.736 311.776 213.784 310.176C211.832 308.544 209.192 307.728 205.864 307.728C203.72 307.728 201.848 308.096 200.248 308.832C198.68 309.568 197.464 310.608 196.6 311.952C195.768 313.296 195.352 314.848 195.352 316.608C195.352 318.656 195.8 320.304 196.696 321.552C197.624 322.8 198.728 323.744 200.008 324.384C201.32 324.992 203.048 325.648 205.192 326.352C207.016 326.928 208.456 327.472 209.512 327.984C210.568 328.464 211.448 329.136 212.152 330C212.888 330.864 213.256 331.984 213.256 333.36C213.256 334.96 212.744 336.272 211.72 337.296C210.696 338.32 209.224 338.832 207.304 338.832C205.832 338.832 204.568 338.544 203.512 337.968C202.488 337.36 201.688 336.608 201.112 335.712C200.568 334.784 200.248 333.84 200.152 332.88H195.496C195.656 334.704 196.248 336.336 197.272 337.776C198.328 339.184 199.72 340.304 201.448 341.136C203.208 341.936 205.208 342.336 207.448 342.336C209.752 342.336 211.688 341.904 213.256 341.04C214.824 340.176 215.992 339.056 216.76 337.68ZM243.801 318C241.593 316.208 238.809 315.312 235.449 315.312C232.921 315.312 230.681 315.856 228.729 316.944C226.777 318.032 225.241 319.6 224.121 321.648C223.033 323.696 222.489 326.096 222.489 328.848C222.489 331.6 223.033 334 224.121 336.048C225.241 338.064 226.777 339.616 228.729 340.704C230.681 341.792 232.921 342.336 235.449 342.336C238.809 342.336 241.593 341.456 243.801 339.696C246.009 337.904 247.369 335.488 247.881 332.448H243.273C242.953 334.336 242.073 335.824 240.633 336.912C239.225 338 237.465 338.544 235.353 338.544C233.817 338.544 232.409 338.192 231.129 337.488C229.881 336.784 228.873 335.712 228.105 334.272C227.337 332.8 226.953 330.992 226.953 328.848C226.953 326.704 227.337 324.912 228.105 323.472C228.873 322 229.881 320.912 231.129 320.208C232.409 319.504 233.817 319.152 235.353 319.152C237.465 319.152 239.225 319.696 240.633 320.784C242.073 321.84 242.953 323.312 243.273 325.2H247.881C247.369 322.192 246.009 319.792 243.801 318ZM270.878 317.232C269.118 315.952 266.958 315.312 264.398 315.312C262.062 315.312 259.982 315.856 258.158 316.944C256.334 318.032 254.894 319.6 253.838 321.648C252.814 323.696 252.302 326.096 252.302 328.848C252.302 331.6 252.814 334 253.838 336.048C254.894 338.064 256.334 339.616 258.158 340.704C259.982 341.792 262.062 342.336 264.398 342.336C266.958 342.336 269.118 341.696 270.878 340.416C272.67 339.136 273.918 337.424 274.622 335.28V342H278.99V315.648H274.622V322.368C273.918 320.224 272.67 318.512 270.878 317.232ZM259.166 321.792C260.798 320.064 262.958 319.2 265.646 319.2C267.374 319.2 268.91 319.6 270.254 320.4C271.63 321.168 272.702 322.288 273.47 323.76C274.238 325.232 274.622 326.928 274.622 328.848C274.622 330.768 274.238 332.464 273.47 333.936C272.702 335.376 271.63 336.496 270.254 337.296C268.91 338.096 267.374 338.496 265.646 338.496C262.958 338.496 260.798 337.648 259.166 335.952C257.566 334.224 256.766 331.856 256.766 328.848C256.766 325.84 257.566 323.488 259.166 321.792ZM290.309 342V306.48H285.941V342H290.309ZM314.612 317.232C312.852 315.952 310.692 315.312 308.132 315.312C305.796 315.312 303.716 315.856 301.892 316.944C300.068 318.032 298.628 319.6 297.572 321.648C296.548 323.696 296.036 326.096 296.036 328.848C296.036 331.6 296.548 334 297.572 336.048C298.628 338.064 300.068 339.616 301.892 340.704C303.716 341.792 305.796 342.336 308.132 342.336C310.692 342.336 312.852 341.696 314.612 340.416C316.404 339.136 317.652 337.424 318.356 335.28V342H322.724V315.648H318.356V322.368C317.652 320.224 316.404 318.512 314.612 317.232ZM302.9 321.792C304.532 320.064 306.692 319.2 309.38 319.2C311.108 319.2 312.644 319.6 313.988 320.4C315.364 321.168 316.436 322.288 317.204 323.76C317.972 325.232 318.356 326.928 318.356 328.848C318.356 330.768 317.972 332.464 317.204 333.936C316.436 335.376 315.364 336.496 313.988 337.296C312.644 338.096 311.108 338.496 309.38 338.496C306.692 338.496 304.532 337.648 302.9 335.952C301.3 334.224 300.5 331.856 300.5 328.848C300.5 325.84 301.3 323.488 302.9 321.792Z" fill="url(#paint0_linear)"/>
<defs>
<linearGradient id="paint0_linear" x1="21" y1="-86.5" x2="893.5" y2="786" gradientUnits="userSpaceOnUse">
<stop stop-color="#326EE6"/>
<stop offset="1" stop-color="white" stop-opacity="0"/>
</linearGradient>
</defs>
</svg>
