<svg width="512" height="512" viewBox="0 0 512 512" fill="none" xmlns="http://www.w3.org/2000/svg">
<g clip-path="url(#clip0)">
<path d="M500.907 287.573C507.733 280.747 512 271.36 512 261.12V247.467C512 242.347 508.587 238.934 503.467 238.934H480.427L321.707 175.787C317.44 174.08 312.32 176.64 310.614 180.907C308.908 185.174 311.467 190.294 315.734 192L433.702 238.933H81.323L228.079 184.579C235.513 196.79 248.929 204.8 264.534 204.8C288.427 204.8 307.201 186.027 307.201 162.133C307.201 141.653 292.694 124.586 273.068 120.32V110.108C292.749 106.248 307.201 89.23 307.201 68.267V8.533C307.201 3.413 303.788 0 298.668 0C293.548 0 290.135 3.413 290.135 8.533V33.93C283.045 28.68 274.211 25.6 264.535 25.6C254.859 25.6 246.025 28.68 238.935 33.93V8.533C238.935 3.413 235.522 0 230.402 0C225.282 0 221.869 3.413 221.869 8.533V68.266C221.869 89.229 236.321 106.247 256.002 110.107V128C256.002 133.12 259.415 136.533 264.535 136.533C279.042 136.533 290.135 147.626 290.135 162.133C290.135 176.64 279.042 187.733 264.535 187.733C256.327 187.733 249.213 184.179 244.582 178.467L264.404 171.126L269.655 173.227C271.362 174.08 272.215 174.08 273.068 174.08C276.481 174.08 279.895 172.373 280.748 168.107C282.455 163.84 279.895 158.72 275.628 157.014L269.775 154.673C268.261 153.633 266.458 153.045 264.65 153.076C264.613 153.074 264.575 153.076 264.538 153.075C264.498 153.076 264.458 153.074 264.418 153.076C262.721 153.047 261.031 153.565 259.577 154.489L238.934 162.135C238.934 157.015 235.521 153.602 230.401 153.602C225.281 153.602 221.868 157.015 221.868 162.135C221.868 164.232 222.021 166.287 222.301 168.296L31.573 238.933H8.533C3.413 238.933 0 242.346 0 247.466V261.119C0 271.359 4.267 280.746 11.093 287.572C14.506 290.985 17.066 296.959 17.066 302.079V448.852C17.066 454.825 14.506 459.092 11.093 463.359C4.267 470.187 0 479.573 0 489.813V503.466C0 508.586 3.413 511.999 8.533 511.999H503.466C508.586 511.999 511.999 508.586 511.999 503.466V489.813C511.999 479.573 507.732 470.186 500.906 463.36C496.639 459.093 494.933 453.973 494.933 448.853V302.08C494.933 296.107 497.493 291.84 500.907 287.573ZM238.933 68.267C238.933 53.76 250.026 42.667 264.533 42.667C279.04 42.667 290.133 53.76 290.133 68.267C290.133 82.774 279.04 93.867 264.533 93.867C250.027 93.867 238.933 82.773 238.933 68.267ZM488.96 475.307C493.227 479.574 494.933 484.694 494.933 489.814V494.934H17.067V489.814C17.067 483.841 19.627 479.574 23.04 475.307C29.867 468.48 34.133 459.094 34.133 448.854V302.08C34.133 292.693 29.866 282.453 23.04 275.627C19.627 271.36 17.067 266.24 17.067 261.12V256H494.934V261.12C494.934 266.24 492.374 271.36 488.961 275.627C482.134 282.454 477.868 291.84 477.868 302.08V448.853C477.867 459.093 482.133 468.48 488.96 475.307Z" fill="#909090"/>
<path d="M70.2969 472.758V441.938H74.4453V471.352C74.4453 472.492 74.4219 473.453 74.375 474.234C74.3281 475.016 74.2344 475.812 74.0938 476.625C73.9531 477.422 73.7422 478.078 73.4609 478.594C73.1953 479.109 72.8438 479.602 72.4062 480.07C71.9688 480.555 71.4219 480.922 70.7656 481.172C70.125 481.438 69.3594 481.641 68.4688 481.781C67.5781 481.938 66.5469 482.016 65.375 482.016H64.5547L64.0625 478.688H65.7969C66.625 478.688 67.3203 478.586 67.8828 478.383C68.4609 478.18 68.9062 477.922 69.2188 477.609C69.5312 477.312 69.7656 476.883 69.9219 476.32C70.0938 475.758 70.1953 475.234 70.2266 474.75C70.2734 474.25 70.2969 473.586 70.2969 472.758ZM88.6719 474.375C90.5312 474.375 92.1641 473.867 93.5703 472.852C94.9922 471.82 95.9062 470.438 96.3125 468.703V464.367C96.2344 464.367 95.7578 464.406 94.8828 464.484C94.0234 464.562 93.4609 464.609 93.1953 464.625C89.8047 464.922 87.4375 465.477 86.0938 466.289C84.7656 467.102 84.1016 468.406 84.1016 470.203C84.1016 471.578 84.5078 472.617 85.3203 473.32C86.1328 474.023 87.25 474.375 88.6719 474.375ZM97.1797 477C96.9453 476 96.7188 474.922 96.5 473.766C95.0781 475.188 93.7422 476.172 92.4922 476.719C91.2422 477.266 89.7734 477.539 88.0859 477.539C85.6797 477.539 83.7422 476.914 82.2734 475.664C80.8203 474.398 80.0938 472.586 80.0938 470.227C80.0938 467.602 81.0859 465.656 83.0703 464.391C85.0703 463.125 87.9453 462.336 91.6953 462.023C92.2109 461.977 92.9844 461.914 94.0156 461.836C95.0625 461.742 95.8438 461.672 96.3594 461.625V459.352C96.3594 457.539 95.9375 456.195 95.0938 455.32C94.25 454.445 92.9219 454.008 91.1094 454.008C88.5781 454.008 86.0234 454.633 83.4453 455.883C83.3672 455.695 83.1641 455.156 82.8359 454.266C82.5078 453.359 82.3359 452.891 82.3203 452.859C83.4609 452.219 84.8125 451.711 86.375 451.336C87.9531 450.945 89.5547 450.75 91.1797 450.75C94.3828 450.75 96.6875 451.453 98.0938 452.859C99.5156 454.25 100.227 456.625 100.227 459.984V477H97.1797ZM113.562 477L103.602 451.289H107.797L113.469 466.57C113.469 466.57 114.25 468.742 115.812 473.086C116.344 471.414 117.078 469.258 118.016 466.617C119.203 463.289 121.047 458.18 123.547 451.289H127.719L117.828 477H113.562ZM138.266 474.375C140.125 474.375 141.758 473.867 143.164 472.852C144.586 471.82 145.5 470.438 145.906 468.703V464.367C145.828 464.367 145.352 464.406 144.477 464.484C143.617 464.562 143.055 464.609 142.789 464.625C139.398 464.922 137.031 465.477 135.688 466.289C134.359 467.102 133.695 468.406 133.695 470.203C133.695 471.578 134.102 472.617 134.914 473.32C135.727 474.023 136.844 474.375 138.266 474.375ZM146.773 477C146.539 476 146.312 474.922 146.094 473.766C144.672 475.188 143.336 476.172 142.086 476.719C140.836 477.266 139.367 477.539 137.68 477.539C135.273 477.539 133.336 476.914 131.867 475.664C130.414 474.398 129.688 472.586 129.688 470.227C129.688 467.602 130.68 465.656 132.664 464.391C134.664 463.125 137.539 462.336 141.289 462.023C141.805 461.977 142.578 461.914 143.609 461.836C144.656 461.742 145.438 461.672 145.953 461.625V459.352C145.953 457.539 145.531 456.195 144.688 455.32C143.844 454.445 142.516 454.008 140.703 454.008C138.172 454.008 135.617 454.633 133.039 455.883C132.961 455.695 132.758 455.156 132.43 454.266C132.102 453.359 131.93 452.891 131.914 452.859C133.055 452.219 134.406 451.711 135.969 451.336C137.547 450.945 139.148 450.75 140.773 450.75C143.977 450.75 146.281 451.453 147.688 452.859C149.109 454.25 149.82 456.625 149.82 459.984V477H146.773ZM164.234 477.539C162.484 477.539 160.867 477.352 159.383 476.977C157.914 476.602 156.719 476.117 155.797 475.523L156.289 472.219C158.898 473.609 161.461 474.305 163.977 474.305C167.789 474.305 169.75 472.961 169.859 470.273C169.859 469.133 169.453 468.234 168.641 467.578C167.828 466.922 166.234 466.188 163.859 465.375L161.914 464.695C159.664 463.945 158.055 463.016 157.086 461.906C156.133 460.797 155.648 459.414 155.633 457.758C155.633 455.742 156.438 454.07 158.047 452.742C159.672 451.414 161.891 450.75 164.703 450.75C167.609 450.75 170.258 451.312 172.648 452.438L171.5 455.438C169.078 454.438 166.812 453.938 164.703 453.938C163.062 453.938 161.773 454.266 160.836 454.922C159.914 455.562 159.453 456.469 159.453 457.641C159.453 458.641 159.789 459.406 160.461 459.938C161.133 460.469 162.477 461.078 164.492 461.766C165.008 461.953 165.656 462.172 166.438 462.422C169.031 463.266 170.867 464.266 171.945 465.422C173.023 466.562 173.562 468.109 173.562 470.062C173.531 472.438 172.68 474.281 171.008 475.594C169.336 476.891 167.078 477.539 164.234 477.539ZM189.805 477.539C186.023 477.539 183.062 476.312 180.922 473.859C178.797 471.406 177.734 468.195 177.734 464.227C177.75 460.227 178.836 456.984 180.992 454.5C183.164 452 186.133 450.75 189.898 450.75C191.227 450.75 192.508 450.914 193.742 451.242C194.992 451.57 195.977 452 196.695 452.531L195.617 455.578C193.789 454.594 191.859 454.102 189.828 454.102C187.344 454.102 185.375 455.008 183.922 456.82C182.484 458.633 181.766 461.109 181.766 464.25C181.766 467.312 182.477 469.742 183.898 471.539C185.336 473.32 187.32 474.211 189.852 474.211C191.867 474.211 193.93 473.664 196.039 472.57L196.531 475.688C194.828 476.922 192.586 477.539 189.805 477.539ZM213.148 451.055C213.852 451.055 214.492 451.102 215.07 451.195L214.93 454.805C214.211 454.68 213.586 454.617 213.055 454.617C210.867 454.617 209.086 455.383 207.711 456.914C206.352 458.43 205.672 460.312 205.672 462.562V477H201.758C201.742 461.219 201.734 452.648 201.734 451.289H204.992L205.367 455.906C206.258 454.453 207.391 453.281 208.766 452.391C210.141 451.5 211.602 451.055 213.148 451.055ZM223.719 451.289V477H219.781V451.289H223.719ZM223.719 441.938V446.578H219.781V441.938H223.719ZM231.102 488.156V451.289H234.547L234.922 454.781C237.172 452.094 239.875 450.75 243.031 450.75C245.375 450.75 247.359 451.336 248.984 452.508C250.609 453.68 251.805 455.266 252.57 457.266C253.352 459.266 253.742 461.602 253.742 464.273C253.742 466.836 253.32 469.117 252.477 471.117C251.633 473.102 250.391 474.672 248.75 475.828C247.125 476.969 245.219 477.539 243.031 477.539C241.375 477.539 239.82 477.172 238.367 476.438C236.914 475.688 235.75 474.703 234.875 473.484C234.969 475.172 235.016 476.812 235.016 478.406V487.898L231.102 488.156ZM242.492 474.234C243.68 474.234 244.742 473.969 245.68 473.438C246.617 472.891 247.375 472.148 247.953 471.211C248.531 470.273 248.969 469.211 249.266 468.023C249.562 466.82 249.711 465.523 249.711 464.133C249.711 461.195 249.094 458.789 247.859 456.914C246.625 455.023 244.82 454.078 242.445 454.078C237.477 454.078 234.992 457.289 234.992 463.711C234.992 467.195 235.57 469.82 236.727 471.586C237.898 473.352 239.82 474.234 242.492 474.234ZM267.477 477.469C264.945 477.469 263.148 476.852 262.086 475.617C261.023 474.383 260.461 472.391 260.398 469.641V454.195H256.578L256.742 451.617L260.375 451.289L261.711 445.406L264.289 445.312V451.289H271.438V454.195H264.289V468.938C264.289 470.891 264.586 472.266 265.18 473.062C265.773 473.859 266.789 474.258 268.227 474.258C268.742 474.258 269.859 474.133 271.578 473.883L271.742 476.977C269.883 477.305 268.461 477.469 267.477 477.469Z" fill="#57A4FF"/>
<path d="M237.195 323.516C234.555 323.516 232.18 323.078 230.07 322.203C227.977 321.312 226.242 320.078 224.867 318.5C223.508 316.906 222.461 315.023 221.727 312.852C221.008 310.68 220.648 308.297 220.648 305.703C220.648 302.203 221.312 299.109 222.641 296.422C223.969 293.734 225.945 291.617 228.57 290.07C231.195 288.523 234.305 287.75 237.898 287.75C241.883 287.75 245.383 288.656 248.398 290.469L246.852 293.82C243.945 292.148 240.977 291.312 237.945 291.312C235.836 291.312 233.945 291.68 232.273 292.414C230.617 293.133 229.258 294.141 228.195 295.438C227.148 296.719 226.344 298.234 225.781 299.984C225.234 301.719 224.961 303.625 224.961 305.703C224.961 310.109 226.055 313.594 228.242 316.156C230.445 318.703 233.688 319.977 237.969 319.977C240.406 319.977 242.883 319.484 245.398 318.5V308.609H237.219L237.359 305.07H249.195V320.914C247.227 321.852 245.32 322.523 243.477 322.93C241.648 323.32 239.555 323.516 237.195 323.516ZM258.477 310.203C258.477 313.25 259.148 315.695 260.492 317.539C261.852 319.367 263.828 320.281 266.422 320.281C268.984 320.281 270.914 319.367 272.211 317.539C273.523 315.711 274.18 313.25 274.18 310.156C274.18 307.016 273.531 304.547 272.234 302.75C270.953 300.938 268.992 300.031 266.352 300.031C263.789 300.031 261.836 300.953 260.492 302.797C259.148 304.641 258.477 307.109 258.477 310.203ZM278.234 310.133C278.234 314.117 277.172 317.352 275.047 319.836C272.922 322.305 269.984 323.539 266.234 323.539C262.625 323.539 259.75 322.289 257.609 319.789C255.484 317.289 254.422 314.078 254.422 310.156C254.422 306.156 255.492 302.922 257.633 300.453C259.773 297.984 262.711 296.75 266.445 296.75C270.117 296.75 273 297.992 275.094 300.477C277.188 302.945 278.234 306.164 278.234 310.133Z" fill="#57A4FF"/>
<path d="M78.2969 308.758V277.938H82.4453V307.352C82.4453 308.492 82.4219 309.453 82.375 310.234C82.3281 311.016 82.2344 311.812 82.0938 312.625C81.9531 313.422 81.7422 314.078 81.4609 314.594C81.1953 315.109 80.8438 315.602 80.4062 316.07C79.9688 316.555 79.4219 316.922 78.7656 317.172C78.125 317.438 77.3594 317.641 76.4688 317.781C75.5781 317.938 74.5469 318.016 73.375 318.016H72.5547L72.0625 314.688H73.7969C74.625 314.688 75.3203 314.586 75.8828 314.383C76.4609 314.18 76.9062 313.922 77.2188 313.609C77.5312 313.312 77.7656 312.883 77.9219 312.32C78.0938 311.758 78.1953 311.234 78.2266 310.75C78.2734 310.25 78.2969 309.586 78.2969 308.758ZM96.6719 310.375C98.5312 310.375 100.164 309.867 101.57 308.852C102.992 307.82 103.906 306.438 104.312 304.703V300.367C104.234 300.367 103.758 300.406 102.883 300.484C102.023 300.562 101.461 300.609 101.195 300.625C97.8047 300.922 95.4375 301.477 94.0938 302.289C92.7656 303.102 92.1016 304.406 92.1016 306.203C92.1016 307.578 92.5078 308.617 93.3203 309.32C94.1328 310.023 95.25 310.375 96.6719 310.375ZM105.18 313C104.945 312 104.719 310.922 104.5 309.766C103.078 311.188 101.742 312.172 100.492 312.719C99.2422 313.266 97.7734 313.539 96.0859 313.539C93.6797 313.539 91.7422 312.914 90.2734 311.664C88.8203 310.398 88.0938 308.586 88.0938 306.227C88.0938 303.602 89.0859 301.656 91.0703 300.391C93.0703 299.125 95.9453 298.336 99.6953 298.023C100.211 297.977 100.984 297.914 102.016 297.836C103.062 297.742 103.844 297.672 104.359 297.625V295.352C104.359 293.539 103.938 292.195 103.094 291.32C102.25 290.445 100.922 290.008 99.1094 290.008C96.5781 290.008 94.0234 290.633 91.4453 291.883C91.3672 291.695 91.1641 291.156 90.8359 290.266C90.5078 289.359 90.3359 288.891 90.3203 288.859C91.4609 288.219 92.8125 287.711 94.375 287.336C95.9531 286.945 97.5547 286.75 99.1797 286.75C102.383 286.75 104.688 287.453 106.094 288.859C107.516 290.25 108.227 292.625 108.227 295.984V313H105.18ZM121.562 313L111.602 287.289H115.797L121.469 302.57C121.469 302.57 122.25 304.742 123.812 309.086C124.344 307.414 125.078 305.258 126.016 302.617C127.203 299.289 129.047 294.18 131.547 287.289H135.719L125.828 313H121.562ZM146.266 310.375C148.125 310.375 149.758 309.867 151.164 308.852C152.586 307.82 153.5 306.438 153.906 304.703V300.367C153.828 300.367 153.352 300.406 152.477 300.484C151.617 300.562 151.055 300.609 150.789 300.625C147.398 300.922 145.031 301.477 143.688 302.289C142.359 303.102 141.695 304.406 141.695 306.203C141.695 307.578 142.102 308.617 142.914 309.32C143.727 310.023 144.844 310.375 146.266 310.375ZM154.773 313C154.539 312 154.312 310.922 154.094 309.766C152.672 311.188 151.336 312.172 150.086 312.719C148.836 313.266 147.367 313.539 145.68 313.539C143.273 313.539 141.336 312.914 139.867 311.664C138.414 310.398 137.688 308.586 137.688 306.227C137.688 303.602 138.68 301.656 140.664 300.391C142.664 299.125 145.539 298.336 149.289 298.023C149.805 297.977 150.578 297.914 151.609 297.836C152.656 297.742 153.438 297.672 153.953 297.625V295.352C153.953 293.539 153.531 292.195 152.688 291.32C151.844 290.445 150.516 290.008 148.703 290.008C146.172 290.008 143.617 290.633 141.039 291.883C140.961 291.695 140.758 291.156 140.43 290.266C140.102 289.359 139.93 288.891 139.914 288.859C141.055 288.219 142.406 287.711 143.969 287.336C145.547 286.945 147.148 286.75 148.773 286.75C151.977 286.75 154.281 287.453 155.688 288.859C157.109 290.25 157.82 292.625 157.82 295.984V313H154.773Z" fill="black"/>
<path d="M317.57 313H313.422V277.938H324.719C326.438 277.938 327.992 278.117 329.383 278.477C330.773 278.836 332.008 279.383 333.086 280.117C334.164 280.852 335 281.836 335.594 283.07C336.188 284.305 336.484 285.742 336.484 287.383C336.484 288.742 336.359 289.961 336.109 291.039C335.859 292.102 335.43 293.102 334.82 294.039C334.211 294.977 333.414 295.758 332.43 296.383C331.445 296.992 330.18 297.477 328.633 297.836C327.102 298.18 325.32 298.352 323.289 298.352C321.68 298.352 319.773 298.25 317.57 298.047V313ZM323.688 294.766C325.219 294.766 326.531 294.617 327.625 294.32C328.719 294.023 329.555 293.656 330.133 293.219C330.727 292.781 331.188 292.211 331.516 291.508C331.859 290.805 332.07 290.164 332.148 289.586C332.227 288.992 332.266 288.281 332.266 287.453C332.266 285.469 331.594 284.008 330.25 283.07C328.922 282.133 327.109 281.664 324.812 281.664H317.57V294.719C320.586 294.75 322.625 294.766 323.688 294.766ZM337.258 287.289H341.406L349.516 308.688L356.734 287.289H360.883C353.945 306.383 350.359 316.227 350.125 316.82C349.047 319.523 347.742 321.5 346.211 322.75C344.68 324.016 342.664 324.648 340.164 324.648C339.414 324.648 338.625 324.586 337.797 324.461L337.562 321.133C338.438 321.195 339.094 321.227 339.531 321.227C341.297 321.227 342.633 320.898 343.539 320.242C344.461 319.602 345.281 318.391 346 316.609C346.641 314.969 347.117 313.703 347.43 312.812L337.258 287.289ZM372.695 313.469C370.164 313.469 368.367 312.852 367.305 311.617C366.242 310.383 365.68 308.391 365.617 305.641V290.195H361.797L361.961 287.617L365.594 287.289L366.93 281.406L369.508 281.312V287.289H376.656V290.195H369.508V304.938C369.508 306.891 369.805 308.266 370.398 309.062C370.992 309.859 372.008 310.258 373.445 310.258C373.961 310.258 375.078 310.133 376.797 309.883L376.961 312.977C375.102 313.305 373.68 313.469 372.695 313.469ZM398.453 313V297.461C398.453 294.883 398.039 293.008 397.211 291.836C396.398 290.664 394.969 290.078 392.922 290.078C390.953 290.078 389.289 290.57 387.93 291.555C386.586 292.539 385.711 293.812 385.305 295.375C385.164 296.547 385.094 297.852 385.094 299.289V313H381.18V277.305L385.094 277.07V287.523C385.094 288.414 385.062 289.516 385 290.828C387.203 288.109 390.125 286.75 393.766 286.75C399.5 286.75 402.367 290.117 402.367 296.852V313H398.453ZM410.055 300.203C410.055 303.25 410.727 305.695 412.07 307.539C413.43 309.367 415.406 310.281 418 310.281C420.562 310.281 422.492 309.367 423.789 307.539C425.102 305.711 425.758 303.25 425.758 300.156C425.758 297.016 425.109 294.547 423.812 292.75C422.531 290.938 420.57 290.031 417.93 290.031C415.367 290.031 413.414 290.953 412.07 292.797C410.727 294.641 410.055 297.109 410.055 300.203ZM429.812 300.133C429.812 304.117 428.75 307.352 426.625 309.836C424.5 312.305 421.562 313.539 417.812 313.539C414.203 313.539 411.328 312.289 409.188 309.789C407.062 307.289 406 304.078 406 300.156C406 296.156 407.07 292.922 409.211 290.453C411.352 287.984 414.289 286.75 418.023 286.75C421.695 286.75 424.578 287.992 426.672 290.477C428.766 292.945 429.812 296.164 429.812 300.133ZM435.367 313V287.289H438.648L439.141 290.969C440.156 289.703 441.422 288.688 442.938 287.922C444.469 287.141 446.117 286.75 447.883 286.75C450.852 286.75 453.047 287.586 454.469 289.258C455.891 290.914 456.602 293.469 456.602 296.922V313H452.688C452.688 302.688 452.68 297.164 452.664 296.43C452.602 294.242 452.156 292.641 451.328 291.625C450.516 290.609 449.148 290.102 447.227 290.102C445.211 290.102 443.531 290.586 442.188 291.555C440.844 292.523 439.969 293.781 439.562 295.328C439.406 296.375 439.328 297.578 439.328 298.938V313H435.367Z" fill="black"/>
<path d="M85.2891 358.312C82.6797 358.312 80.4297 358.945 78.5391 360.211C76.6641 361.477 75.2656 363.18 74.3438 365.32C73.4219 367.461 72.9609 369.922 72.9609 372.703C72.9609 374.781 73.2109 376.68 73.7109 378.398C74.2109 380.102 74.9609 381.602 75.9609 382.898C76.9609 384.18 78.2578 385.18 79.8516 385.898C81.4609 386.602 83.3047 386.953 85.3828 386.953C88.0547 386.953 90.8203 386.258 93.6797 384.867L94.3594 388.312C92.0312 389.781 88.8828 390.516 84.9141 390.516C82.3047 390.516 79.9609 390.086 77.8828 389.227C75.8203 388.352 74.1094 387.125 72.75 385.547C71.4062 383.953 70.3828 382.062 69.6797 379.875C68.9766 377.672 68.625 375.227 68.625 372.539C68.625 369.945 69.0078 367.555 69.7734 365.367C70.5391 363.18 71.6172 361.305 73.0078 359.742C74.4141 358.164 76.1641 356.938 78.2578 356.062C80.3516 355.188 82.6797 354.75 85.2422 354.75C89.1328 354.75 92.4141 355.609 95.0859 357.328L93.4922 360.633C90.9297 359.086 88.1953 358.312 85.2891 358.312ZM120.422 365.273L120.094 368.18H116.648L115.078 377.438H118.523L118.289 380.391H114.656L112.641 390.539H109.102L111.07 380.391H105.562L103.688 390.539H100.664L102.375 380.391H98.3672L98.6016 377.438H102.891L104.32 368.203H100.172L100.383 365.273H104.906L106.852 355.734H110.438L108.586 365.273H114.07L115.734 355.734H118.734L117.188 365.273H120.422ZM113.508 368.18H108L106.125 377.438H111.656L113.508 368.18Z" fill="#57A4FF"/>
<path d="M371.289 438.312C368.68 438.312 366.43 438.945 364.539 440.211C362.664 441.477 361.266 443.18 360.344 445.32C359.422 447.461 358.961 449.922 358.961 452.703C358.961 454.781 359.211 456.68 359.711 458.398C360.211 460.102 360.961 461.602 361.961 462.898C362.961 464.18 364.258 465.18 365.852 465.898C367.461 466.602 369.305 466.953 371.383 466.953C374.055 466.953 376.82 466.258 379.68 464.867L380.359 468.312C378.031 469.781 374.883 470.516 370.914 470.516C368.305 470.516 365.961 470.086 363.883 469.227C361.82 468.352 360.109 467.125 358.75 465.547C357.406 463.953 356.383 462.062 355.68 459.875C354.977 457.672 354.625 455.227 354.625 452.539C354.625 449.945 355.008 447.555 355.773 445.367C356.539 443.18 357.617 441.305 359.008 439.742C360.414 438.164 362.164 436.938 364.258 436.062C366.352 435.188 368.68 434.75 371.242 434.75C375.133 434.75 378.414 435.609 381.086 437.328L379.492 440.633C376.93 439.086 374.195 438.312 371.289 438.312ZM397.164 453.172H406.305V456.359H397.141V466.414H393.93V456.359H384.625V453.172H393.953V443.234H397.164V453.172ZM423.555 453.172H432.695V456.359H423.531V466.414H420.32V456.359H411.016V453.172H420.344V443.234H423.555V453.172Z" fill="black"/>
<path d="M329.594 365.57V377.289C330.234 377.289 331.555 377.305 333.555 377.336C335.57 377.367 337.125 377.383 338.219 377.383C341.203 377.383 343.281 376.891 344.453 375.906C345.625 374.906 346.211 373.328 346.211 371.172C346.211 369.281 345.648 367.875 344.523 366.953C343.398 366.031 341.516 365.57 338.875 365.57H329.594ZM351.812 397H347.125L342.344 386.125C341.047 383.203 340.219 381.445 339.859 380.852C338.719 380.93 337.367 380.969 335.805 380.969L329.594 380.781V397H325.445V361.938H336.531C337.812 361.938 338.945 361.969 339.93 362.031C340.914 362.094 341.891 362.211 342.859 362.383C343.844 362.539 344.695 362.766 345.414 363.062C346.133 363.344 346.805 363.719 347.43 364.188C348.055 364.641 348.555 365.188 348.93 365.828C349.32 366.469 349.625 367.234 349.844 368.125C350.062 369 350.172 369.992 350.172 371.102C350.172 373.289 349.594 375.172 348.438 376.75C347.297 378.328 345.672 379.422 343.562 380.031C343.562 380.062 343.719 380.344 344.031 380.875C344.344 381.406 344.711 382.062 345.133 382.844C345.57 383.609 345.906 384.25 346.141 384.766L351.812 397ZM355.867 388.422V371.289H359.805V388.469C359.805 389.594 359.961 390.547 360.273 391.328C360.602 392.109 361.062 392.719 361.656 393.156C362.266 393.578 362.945 393.883 363.695 394.07C364.461 394.258 365.336 394.352 366.32 394.352C368.352 394.352 369.93 393.906 371.055 393.016C372.195 392.125 372.766 390.609 372.766 388.469V371.289H376.703V388.422C376.703 389.734 376.516 390.914 376.141 391.961C375.766 393.008 375.258 393.883 374.617 394.586C373.992 395.273 373.234 395.844 372.344 396.297C371.453 396.75 370.508 397.078 369.508 397.281C368.523 397.484 367.461 397.586 366.32 397.586C365.195 397.586 364.133 397.484 363.133 397.281C362.133 397.078 361.18 396.75 360.273 396.297C359.383 395.828 358.609 395.25 357.953 394.562C357.312 393.859 356.805 392.984 356.43 391.938C356.055 390.891 355.867 389.719 355.867 388.422ZM394.234 374.008C391.75 374.008 389.844 374.867 388.516 376.586C387.203 378.289 386.547 380.797 386.547 384.109C386.547 390.891 389.102 394.281 394.211 394.281C395.477 394.281 396.586 394.023 397.539 393.508C398.508 392.977 399.266 392.242 399.812 391.305C400.375 390.352 400.789 389.281 401.055 388.094C401.336 386.906 401.477 385.586 401.477 384.133C401.477 382.164 401.242 380.445 400.773 378.977C400.32 377.508 399.539 376.312 398.43 375.391C397.32 374.469 395.922 374.008 394.234 374.008ZM394.633 370.75C396.914 370.75 398.883 371.328 400.539 372.484C402.195 373.641 403.438 375.211 404.266 377.195C405.094 379.18 405.508 381.453 405.508 384.016C405.508 386.672 405.094 389.008 404.266 391.023C403.453 393.039 402.211 394.633 400.539 395.805C398.883 396.961 396.898 397.539 394.586 397.539C392.883 397.539 391.328 397.172 389.922 396.438C388.516 395.703 387.344 394.703 386.406 393.438L386.008 397H382.656V361.305L386.57 361.07V369.578C386.57 371.672 386.539 373.469 386.477 374.969C387.383 373.672 388.555 372.648 389.992 371.898C391.445 371.133 392.992 370.75 394.633 370.75ZM407.523 371.289H411.672L419.781 392.688L427 371.289H431.148C424.211 390.383 420.625 400.227 420.391 400.82C419.312 403.523 418.008 405.5 416.477 406.75C414.945 408.016 412.93 408.648 410.43 408.648C409.68 408.648 408.891 408.586 408.062 408.461L407.828 405.133C408.703 405.195 409.359 405.227 409.797 405.227C411.562 405.227 412.898 404.898 413.805 404.242C414.727 403.602 415.547 402.391 416.266 400.609C416.906 398.969 417.383 397.703 417.695 396.812L407.523 371.289Z" fill="#57A4FF"/>
<path d="M172.422 391.281C176.031 393.062 179.898 393.953 184.023 393.953C189.102 393.953 191.641 391.641 191.641 387.016C191.641 385.516 191.234 384.305 190.422 383.383C189.625 382.445 188.164 381.711 186.039 381.18L179.148 379.445C173.883 378.117 171.25 375.305 171.25 371.008C171.25 367.711 172.383 365.266 174.648 363.672C176.914 362.062 180.047 361.258 184.047 361.258C186.141 361.258 188.102 361.484 189.93 361.938C191.758 362.391 193.289 363 194.523 363.766L193.352 367.07C192.305 366.492 190.914 365.977 189.18 365.523C187.461 365.07 185.719 364.844 183.953 364.844C178.297 364.844 175.469 366.805 175.469 370.727C175.469 372.055 175.898 373.125 176.758 373.938C177.633 374.734 178.938 375.344 180.672 375.766L187.258 377.359C190.07 378.031 192.203 379.109 193.656 380.594C195.109 382.062 195.836 384.156 195.836 386.875C195.836 390.406 194.75 393.07 192.578 394.867C190.422 396.648 187.484 397.539 183.766 397.539C180.984 397.539 178.508 397.258 176.336 396.695C174.18 396.117 172.469 395.438 171.203 394.656L172.422 391.281ZM212.008 397.539C208.227 397.539 205.266 396.312 203.125 393.859C201 391.406 199.938 388.195 199.938 384.227C199.953 380.227 201.039 376.984 203.195 374.5C205.367 372 208.336 370.75 212.102 370.75C213.43 370.75 214.711 370.914 215.945 371.242C217.195 371.57 218.18 372 218.898 372.531L217.82 375.578C215.992 374.594 214.062 374.102 212.031 374.102C209.547 374.102 207.578 375.008 206.125 376.82C204.688 378.633 203.969 381.109 203.969 384.25C203.969 387.312 204.68 389.742 206.102 391.539C207.539 393.32 209.523 394.211 212.055 394.211C214.07 394.211 216.133 393.664 218.242 392.57L218.734 395.688C217.031 396.922 214.789 397.539 212.008 397.539ZM231.25 394.375C233.109 394.375 234.742 393.867 236.148 392.852C237.57 391.82 238.484 390.438 238.891 388.703V384.367C238.812 384.367 238.336 384.406 237.461 384.484C236.602 384.562 236.039 384.609 235.773 384.625C232.383 384.922 230.016 385.477 228.672 386.289C227.344 387.102 226.68 388.406 226.68 390.203C226.68 391.578 227.086 392.617 227.898 393.32C228.711 394.023 229.828 394.375 231.25 394.375ZM239.758 397C239.523 396 239.297 394.922 239.078 393.766C237.656 395.188 236.32 396.172 235.07 396.719C233.82 397.266 232.352 397.539 230.664 397.539C228.258 397.539 226.32 396.914 224.852 395.664C223.398 394.398 222.672 392.586 222.672 390.227C222.672 387.602 223.664 385.656 225.648 384.391C227.648 383.125 230.523 382.336 234.273 382.023C234.789 381.977 235.562 381.914 236.594 381.836C237.641 381.742 238.422 381.672 238.938 381.625V379.352C238.938 377.539 238.516 376.195 237.672 375.32C236.828 374.445 235.5 374.008 233.688 374.008C231.156 374.008 228.602 374.633 226.023 375.883C225.945 375.695 225.742 375.156 225.414 374.266C225.086 373.359 224.914 372.891 224.898 372.859C226.039 372.219 227.391 371.711 228.953 371.336C230.531 370.945 232.133 370.75 233.758 370.75C236.961 370.75 239.266 371.453 240.672 372.859C242.094 374.25 242.805 376.625 242.805 379.984V397H239.758ZM256.469 397.469C253.969 397.469 252.195 396.797 251.148 395.453C250.117 394.109 249.602 391.773 249.602 388.445V361.305L253.492 361.07V386.898C253.492 387.961 253.5 388.812 253.516 389.453C253.547 390.094 253.609 390.727 253.703 391.352C253.797 391.961 253.922 392.422 254.078 392.734C254.234 393.047 254.461 393.336 254.758 393.602C255.055 393.852 255.406 394.023 255.812 394.117C256.234 394.195 256.75 394.234 257.359 394.234C257.859 394.234 258.844 394.141 260.312 393.953L260.523 397.07C258.914 397.336 257.562 397.469 256.469 397.469ZM270.344 394.375C272.203 394.375 273.836 393.867 275.242 392.852C276.664 391.82 277.578 390.438 277.984 388.703V384.367C277.906 384.367 277.43 384.406 276.555 384.484C275.695 384.562 275.133 384.609 274.867 384.625C271.477 384.922 269.109 385.477 267.766 386.289C266.438 387.102 265.773 388.406 265.773 390.203C265.773 391.578 266.18 392.617 266.992 393.32C267.805 394.023 268.922 394.375 270.344 394.375ZM278.852 397C278.617 396 278.391 394.922 278.172 393.766C276.75 395.188 275.414 396.172 274.164 396.719C272.914 397.266 271.445 397.539 269.758 397.539C267.352 397.539 265.414 396.914 263.945 395.664C262.492 394.398 261.766 392.586 261.766 390.227C261.766 387.602 262.758 385.656 264.742 384.391C266.742 383.125 269.617 382.336 273.367 382.023C273.883 381.977 274.656 381.914 275.688 381.836C276.734 381.742 277.516 381.672 278.031 381.625V379.352C278.031 377.539 277.609 376.195 276.766 375.32C275.922 374.445 274.594 374.008 272.781 374.008C270.25 374.008 267.695 374.633 265.117 375.883C265.039 375.695 264.836 375.156 264.508 374.266C264.18 373.359 264.008 372.891 263.992 372.859C265.133 372.219 266.484 371.711 268.047 371.336C269.625 370.945 271.227 370.75 272.852 370.75C276.055 370.75 278.359 371.453 279.766 372.859C281.188 374.25 281.898 376.625 281.898 379.984V397H278.852Z" fill="black"/>
</g>
<defs>
<clipPath id="clip0">
<rect width="512" height="512" fill="white"/>
</clipPath>
</defs>
</svg>
