<svg width="297" height="178" viewBox="0 0 297 178" fill="none" xmlns="http://www.w3.org/2000/svg">
<path fill-rule="evenodd" clip-rule="evenodd" d="M191.281 17.7486V10.9557H194.224C195.95 10.9557 197.271 10.5172 198.185 9.64019C199.1 8.74723 199.557 7.51144 199.557 5.93281C199.557 4.37013 199.115 3.1423 198.23 2.24934C197.344 1.34043 196.009 0.885979 194.224 0.885979H189.267V17.7486H191.281ZM196.681 8.30075C196.149 8.85885 195.272 9.1379 194.047 9.1379H191.281V2.70379H194.047C195.272 2.70379 196.149 2.98285 196.681 3.54095C197.226 4.0831 197.499 4.88039 197.499 5.93281C197.499 6.95334 197.226 7.74265 196.681 8.30075Z" fill="#2DA8E6"/>
<path fill-rule="evenodd" clip-rule="evenodd" d="M191.281 17.7486V10.9557H194.224C195.95 10.9557 197.271 10.5172 198.185 9.64019C199.1 8.74723 199.557 7.51144 199.557 5.93281C199.557 4.37013 199.115 3.1423 198.23 2.24934C197.344 1.34043 196.009 0.885979 194.224 0.885979H189.267V17.7486H191.281ZM196.681 8.30075C196.149 8.85885 195.272 9.1379 194.047 9.1379H191.281V2.70379H194.047C195.272 2.70379 196.149 2.98285 196.681 3.54095C197.226 4.0831 197.499 4.88039 197.499 5.93281C197.499 6.95334 197.226 7.74265 196.681 8.30075Z" fill="url(#paint0_linear)"/>
<path d="M206.69 14.9501L202.75 4.61728H200.493L205.605 17.5333L203.082 23.9674H205.362L212.576 4.61728H210.341L206.69 14.9501Z" fill="#2DA8E6"/>
<path d="M206.69 14.9501L202.75 4.61728H200.493L205.605 17.5333L203.082 23.9674H205.362L212.576 4.61728H210.341L206.69 14.9501Z" fill="url(#paint1_linear)"/>
<path d="M220.22 17.7486V15.8351H218.981C218.273 15.8351 217.771 15.6836 217.476 15.3807C217.196 15.0617 217.056 14.4797 217.056 13.6346V6.50685H220.198V4.61728H217.056V1.34043H215.02V4.61728H213.205V6.50685H215.02V13.5868C215.02 15.0857 215.322 16.154 215.927 16.7919C216.547 17.4297 217.476 17.7486 218.715 17.7486H220.22Z" fill="#2DA8E6"/>
<path d="M220.22 17.7486V15.8351H218.981C218.273 15.8351 217.771 15.6836 217.476 15.3807C217.196 15.0617 217.056 14.4797 217.056 13.6346V6.50685H220.198V4.61728H217.056V1.34043H215.02V4.61728H213.205V6.50685H215.02V13.5868C215.02 15.0857 215.322 16.154 215.927 16.7919C216.547 17.4297 217.476 17.7486 218.715 17.7486H220.22Z" fill="url(#paint2_linear)"/>
<path d="M232.503 5.88497C231.633 4.89633 230.489 4.40202 229.073 4.40202C228.04 4.40202 227.126 4.68904 226.329 5.26309C225.547 5.83713 225.001 6.65834 224.691 7.7267V0.0488281H222.678V17.7486H224.691V10.7883C224.691 9.30533 225.023 8.18116 225.687 7.41576C226.351 6.63442 227.236 6.24375 228.343 6.24375C229.405 6.24375 230.246 6.59456 230.866 7.29617C231.485 7.99778 231.795 9.00236 231.795 10.3099V17.7486H233.809V10.1186C233.809 8.26886 233.374 6.85766 232.503 5.88497Z" fill="#2DA8E6"/>
<path d="M232.503 5.88497C231.633 4.89633 230.489 4.40202 229.073 4.40202C228.04 4.40202 227.126 4.68904 226.329 5.26309C225.547 5.83713 225.001 6.65834 224.691 7.7267V0.0488281H222.678V17.7486H224.691V10.7883C224.691 9.30533 225.023 8.18116 225.687 7.41576C226.351 6.63442 227.236 6.24375 228.343 6.24375C229.405 6.24375 230.246 6.59456 230.866 7.29617C231.485 7.99778 231.795 9.00236 231.795 10.3099V17.7486H233.809V10.1186C233.809 8.26886 233.374 6.85766 232.503 5.88497Z" fill="url(#paint3_linear)"/>
<path fill-rule="evenodd" clip-rule="evenodd" d="M245.528 5.26309C244.613 4.72093 243.573 4.44985 242.408 4.44985C241.242 4.44985 240.195 4.72093 239.265 5.26309C238.351 5.80524 237.628 6.58658 237.097 7.60711C236.566 8.62764 236.3 9.82357 236.3 11.1949C236.3 12.5662 236.566 13.7622 237.097 14.7827C237.628 15.7873 238.351 16.5606 239.265 17.1028C240.195 17.645 241.242 17.916 242.408 17.916C243.573 17.916 244.613 17.645 245.528 17.1028C246.458 16.5606 247.18 15.7873 247.697 14.7827C248.228 13.7622 248.493 12.5662 248.493 11.1949C248.493 9.82357 248.228 8.62764 247.697 7.60711C247.18 6.58658 246.458 5.80524 245.528 5.26309ZM240.394 6.88955C241.014 6.53875 241.685 6.36334 242.408 6.36334C243.131 6.36334 243.795 6.53875 244.399 6.88955C245.019 7.24036 245.513 7.78252 245.882 8.51602C246.266 9.23358 246.458 10.1265 246.458 11.1949C246.458 12.2473 246.266 13.1403 245.882 13.8738C245.513 14.5913 245.019 15.1255 244.399 15.4763C243.795 15.8271 243.131 16.0025 242.408 16.0025C241.685 16.0025 241.014 15.8271 240.394 15.4763C239.789 15.1255 239.295 14.5913 238.911 13.8738C238.543 13.1403 238.358 12.2473 238.358 11.1949C238.358 10.1265 238.543 9.23358 238.911 8.51602C239.295 7.78252 239.789 7.24036 240.394 6.88955Z" fill="#2DA8E6"/>
<path fill-rule="evenodd" clip-rule="evenodd" d="M245.528 5.26309C244.613 4.72093 243.573 4.44985 242.408 4.44985C241.242 4.44985 240.195 4.72093 239.265 5.26309C238.351 5.80524 237.628 6.58658 237.097 7.60711C236.566 8.62764 236.3 9.82357 236.3 11.1949C236.3 12.5662 236.566 13.7622 237.097 14.7827C237.628 15.7873 238.351 16.5606 239.265 17.1028C240.195 17.645 241.242 17.916 242.408 17.916C243.573 17.916 244.613 17.645 245.528 17.1028C246.458 16.5606 247.18 15.7873 247.697 14.7827C248.228 13.7622 248.493 12.5662 248.493 11.1949C248.493 9.82357 248.228 8.62764 247.697 7.60711C247.18 6.58658 246.458 5.80524 245.528 5.26309ZM240.394 6.88955C241.014 6.53875 241.685 6.36334 242.408 6.36334C243.131 6.36334 243.795 6.53875 244.399 6.88955C245.019 7.24036 245.513 7.78252 245.882 8.51602C246.266 9.23358 246.458 10.1265 246.458 11.1949C246.458 12.2473 246.266 13.1403 245.882 13.8738C245.513 14.5913 245.019 15.1255 244.399 15.4763C243.795 15.8271 243.131 16.0025 242.408 16.0025C241.685 16.0025 241.014 15.8271 240.394 15.4763C239.789 15.1255 239.295 14.5913 238.911 13.8738C238.543 13.1403 238.358 12.2473 238.358 11.1949C238.358 10.1265 238.543 9.23358 238.911 8.51602C239.295 7.78252 239.789 7.24036 240.394 6.88955Z" fill="url(#paint4_linear)"/>
<path d="M260.943 5.88497C260.073 4.89633 258.929 4.40202 257.513 4.40202C256.48 4.40202 255.566 4.68904 254.769 5.26309C253.987 5.83713 253.441 6.65834 253.131 7.7267V4.61728H251.118V17.7486H253.131V10.7883C253.131 9.30533 253.463 8.18116 254.127 7.41576C254.791 6.63442 255.676 6.24375 256.783 6.24375C257.845 6.24375 258.686 6.59456 259.305 7.29617C259.925 7.99778 260.235 9.00236 260.235 10.3099V17.7486H262.249V10.1186C262.249 8.26886 261.813 6.85766 260.943 5.88497Z" fill="#2DA8E6"/>
<path d="M260.943 5.88497C260.073 4.89633 258.929 4.40202 257.513 4.40202C256.48 4.40202 255.566 4.68904 254.769 5.26309C253.987 5.83713 253.441 6.65834 253.131 7.7267V4.61728H251.118V17.7486H253.131V10.7883C253.131 9.30533 253.463 8.18116 254.127 7.41576C254.791 6.63442 255.676 6.24375 256.783 6.24375C257.845 6.24375 258.686 6.59456 259.305 7.29617C259.925 7.99778 260.235 9.00236 260.235 10.3099V17.7486H262.249V10.1186C262.249 8.26886 261.813 6.85766 260.943 5.88497Z" fill="url(#paint5_linear)"/>
<path d="M65.1648 12.3231V24.2345C65.1648 25.861 64.7443 27.1287 63.9034 28.0376C63.0772 28.9306 61.9265 29.377 60.4512 29.377C58.8579 29.377 57.5965 28.8827 56.667 27.8941C55.7376 26.9055 55.2729 25.4943 55.2729 23.6605H58.3489C58.3489 24.5216 58.5112 25.1833 58.8357 25.6457C59.1751 26.1082 59.6693 26.3394 60.3184 26.3394C60.9085 26.3394 61.3438 26.156 61.6241 25.7892C61.9044 25.4065 62.0445 24.8883 62.0445 24.2345V12.3231H65.1648Z" fill="#2DA8E6"/>
<path d="M65.1648 12.3231V24.2345C65.1648 25.861 64.7443 27.1287 63.9034 28.0376C63.0772 28.9306 61.9265 29.377 60.4512 29.377C58.8579 29.377 57.5965 28.8827 56.667 27.8941C55.7376 26.9055 55.2729 25.4943 55.2729 23.6605H58.3489C58.3489 24.5216 58.5112 25.1833 58.8357 25.6457C59.1751 26.1082 59.6693 26.3394 60.3184 26.3394C60.9085 26.3394 61.3438 26.156 61.6241 25.7892C61.9044 25.4065 62.0445 24.8883 62.0445 24.2345V12.3231H65.1648Z" fill="url(#paint6_linear)"/>
<path fill-rule="evenodd" clip-rule="evenodd" d="M72.698 15.7913C73.7307 15.7913 74.6159 16.0544 75.3535 16.5806C76.0912 17.1068 76.6149 17.8164 76.9247 18.7093V15.9587H80.0229V29.2096H76.9247V26.4351C76.6149 27.328 76.0912 28.0456 75.3535 28.5877C74.6159 29.1139 73.7307 29.377 72.698 29.377C71.6653 29.377 70.7358 29.106 69.9097 28.5638C69.0835 28.0217 68.4344 27.2403 67.9623 26.2198C67.5049 25.1833 67.2763 23.9714 67.2763 22.5842C67.2763 21.1969 67.5049 19.993 67.9623 18.9724C68.4344 17.936 69.0835 17.1467 69.9097 16.6045C70.7358 16.0623 71.6653 15.7913 72.698 15.7913ZM73.6717 18.7333C72.698 18.7333 71.9161 19.0761 71.326 19.7618C70.7358 20.4474 70.4408 21.3882 70.4408 22.5842C70.4408 23.7801 70.7358 24.7209 71.326 25.4065C71.9161 26.0763 72.698 26.4111 73.6717 26.4111C74.6159 26.4111 75.3904 26.0683 75.9953 25.3826C76.6149 24.681 76.9247 23.7482 76.9247 22.5842C76.9247 21.4042 76.6149 20.4713 75.9953 19.7857C75.3904 19.0841 74.6159 18.7333 73.6717 18.7333Z" fill="#2DA8E6"/>
<path fill-rule="evenodd" clip-rule="evenodd" d="M72.698 15.7913C73.7307 15.7913 74.6159 16.0544 75.3535 16.5806C76.0912 17.1068 76.6149 17.8164 76.9247 18.7093V15.9587H80.0229V29.2096H76.9247V26.4351C76.6149 27.328 76.0912 28.0456 75.3535 28.5877C74.6159 29.1139 73.7307 29.377 72.698 29.377C71.6653 29.377 70.7358 29.106 69.9097 28.5638C69.0835 28.0217 68.4344 27.2403 67.9623 26.2198C67.5049 25.1833 67.2763 23.9714 67.2763 22.5842C67.2763 21.1969 67.5049 19.993 67.9623 18.9724C68.4344 17.936 69.0835 17.1467 69.9097 16.6045C70.7358 16.0623 71.6653 15.7913 72.698 15.7913ZM73.6717 18.7333C72.698 18.7333 71.9161 19.0761 71.326 19.7618C70.7358 20.4474 70.4408 21.3882 70.4408 22.5842C70.4408 23.7801 70.7358 24.7209 71.326 25.4065C71.9161 26.0763 72.698 26.4111 73.6717 26.4111C74.6159 26.4111 75.3904 26.0683 75.9953 25.3826C76.6149 24.681 76.9247 23.7482 76.9247 22.5842C76.9247 21.4042 76.6149 20.4713 75.9953 19.7857C75.3904 19.0841 74.6159 18.7333 73.6717 18.7333Z" fill="url(#paint7_linear)"/>
<path d="M88.1838 25.8371L91.282 15.9587H94.6014L90.0648 29.2096H86.2586L81.722 15.9587H85.0636L88.1838 25.8371Z" fill="#2DA8E6"/>
<path d="M88.1838 25.8371L91.282 15.9587H94.6014L90.0648 29.2096H86.2586L81.722 15.9587H85.0636L88.1838 25.8371Z" fill="url(#paint8_linear)"/>
<path fill-rule="evenodd" clip-rule="evenodd" d="M101.138 15.7913C102.171 15.7913 103.056 16.0544 103.793 16.5806C104.531 17.1068 105.055 17.8164 105.365 18.7093V15.9587H108.463V29.2096H105.365V26.4351C105.055 27.328 104.531 28.0456 103.793 28.5877C103.056 29.1139 102.171 29.377 101.138 29.377C100.105 29.377 99.1757 29.106 98.3496 28.5638C97.5234 28.0217 96.8743 27.2403 96.4022 26.2198C95.9448 25.1833 95.7162 23.9714 95.7162 22.5842C95.7162 21.1969 95.9448 19.993 96.4022 18.9724C96.8743 17.936 97.5234 17.1467 98.3496 16.6045C99.1757 16.0623 100.105 15.7913 101.138 15.7913ZM102.112 18.7333C101.138 18.7333 100.356 19.0761 99.7659 19.7618C99.1757 20.4474 98.8807 21.3882 98.8807 22.5842C98.8807 23.7801 99.1757 24.7209 99.7659 25.4065C100.356 26.0763 101.138 26.4111 102.112 26.4111C103.056 26.4111 103.83 26.0683 104.435 25.3826C105.055 24.681 105.365 23.7482 105.365 22.5842C105.365 21.4042 105.055 20.4713 104.435 19.7857C103.83 19.0841 103.056 18.7333 102.112 18.7333Z" fill="#2DA8E6"/>
<path fill-rule="evenodd" clip-rule="evenodd" d="M101.138 15.7913C102.171 15.7913 103.056 16.0544 103.793 16.5806C104.531 17.1068 105.055 17.8164 105.365 18.7093V15.9587H108.463V29.2096H105.365V26.4351C105.055 27.328 104.531 28.0456 103.793 28.5877C103.056 29.1139 102.171 29.377 101.138 29.377C100.105 29.377 99.1757 29.106 98.3496 28.5638C97.5234 28.0217 96.8743 27.2403 96.4022 26.2198C95.9448 25.1833 95.7162 23.9714 95.7162 22.5842C95.7162 21.1969 95.9448 19.993 96.4022 18.9724C96.8743 17.936 97.5234 17.1467 98.3496 16.6045C99.1757 16.0623 100.105 15.7913 101.138 15.7913ZM102.112 18.7333C101.138 18.7333 100.356 19.0761 99.7659 19.7618C99.1757 20.4474 98.8807 21.3882 98.8807 22.5842C98.8807 23.7801 99.1757 24.7209 99.7659 25.4065C100.356 26.0763 101.138 26.4111 102.112 26.4111C103.056 26.4111 103.83 26.0683 104.435 25.3826C105.055 24.681 105.365 23.7482 105.365 22.5842C105.365 21.4042 105.055 20.4713 104.435 19.7857C103.83 19.0841 103.056 18.7333 102.112 18.7333Z" fill="url(#paint9_linear)"/>
<path d="M156.977 59.4547C154.439 57.3818 151.208 56.3453 147.284 56.3453C144.156 56.3453 141.412 57.0788 139.052 58.5458C136.721 59.9809 134.906 62.006 133.608 64.6211C132.339 67.2362 131.705 70.2181 131.705 73.5667C131.705 76.9153 132.339 79.8971 133.608 82.5123C134.906 85.1274 136.735 87.1684 139.096 88.6354C141.456 90.0705 144.215 90.7881 147.372 90.7881C149.969 90.7881 152.27 90.2619 154.277 89.2095C156.313 88.1571 157.98 86.7857 159.278 85.0955C160.576 83.4052 161.52 81.5715 162.111 79.5942V71.5097H146.222V77.3937H155.782C155.221 79.3709 154.262 80.9017 152.905 81.986C151.547 83.0385 149.969 83.5647 148.169 83.5647C145.366 83.5647 143.197 82.7036 141.663 80.9815C140.158 79.2593 139.406 76.7877 139.406 73.5667C139.406 70.6008 140.129 68.2568 141.574 66.5346C143.02 64.7806 144.938 63.9036 147.328 63.9036C148.862 63.9036 150.175 64.2703 151.267 65.0038C152.359 65.7054 153.17 66.6622 153.701 67.8741H161.712C161.093 64.3341 159.514 61.5276 156.977 59.4547Z" fill="#2DA8E6"/>
<path d="M156.977 59.4547C154.439 57.3818 151.208 56.3453 147.284 56.3453C144.156 56.3453 141.412 57.0788 139.052 58.5458C136.721 59.9809 134.906 62.006 133.608 64.6211C132.339 67.2362 131.705 70.2181 131.705 73.5667C131.705 76.9153 132.339 79.8971 133.608 82.5123C134.906 85.1274 136.735 87.1684 139.096 88.6354C141.456 90.0705 144.215 90.7881 147.372 90.7881C149.969 90.7881 152.27 90.2619 154.277 89.2095C156.313 88.1571 157.98 86.7857 159.278 85.0955C160.576 83.4052 161.52 81.5715 162.111 79.5942V71.5097H146.222V77.3937H155.782C155.221 79.3709 154.262 80.9017 152.905 81.986C151.547 83.0385 149.969 83.5647 148.169 83.5647C145.366 83.5647 143.197 82.7036 141.663 80.9815C140.158 79.2593 139.406 76.7877 139.406 73.5667C139.406 70.6008 140.129 68.2568 141.574 66.5346C143.02 64.7806 144.938 63.9036 147.328 63.9036C148.862 63.9036 150.175 64.2703 151.267 65.0038C152.359 65.7054 153.17 66.6622 153.701 67.8741H161.712C161.093 64.3341 159.514 61.5276 156.977 59.4547Z" fill="url(#paint10_linear)"/>
<path fill-rule="evenodd" clip-rule="evenodd" d="M184.449 65.1473C182.531 64.0311 180.348 63.473 177.899 63.473C175.45 63.473 173.251 64.0311 171.304 65.1473C169.357 66.2317 167.822 67.8103 166.701 69.8832C165.609 71.9562 165.063 74.3799 165.063 77.1545C165.063 79.929 165.609 82.3528 166.701 84.4257C167.822 86.4987 169.357 88.0933 171.304 89.2095C173.251 90.2938 175.45 90.8359 177.899 90.8359C180.348 90.8359 182.531 90.2938 184.449 89.2095C186.396 88.0933 187.916 86.4987 189.008 84.4257C190.129 82.3528 190.689 79.929 190.689 77.1545C190.689 74.3799 190.129 71.9562 189.008 69.8832C187.916 67.8103 186.396 66.2317 184.449 65.1473ZM174.225 72.2751C175.228 71.127 176.453 70.5529 177.899 70.5529C179.344 70.5529 180.554 71.127 181.528 72.2751C182.502 73.3913 182.988 75.0177 182.988 77.1545C182.988 79.2912 182.502 80.9177 181.528 82.0339C180.554 83.1501 179.344 83.7082 177.899 83.7082C176.453 83.7082 175.228 83.1501 174.225 82.0339C173.251 80.9177 172.765 79.2912 172.765 77.1545C172.765 75.0177 173.251 73.3913 174.225 72.2751Z" fill="#2DA8E6"/>
<path fill-rule="evenodd" clip-rule="evenodd" d="M184.449 65.1473C182.531 64.0311 180.348 63.473 177.899 63.473C175.45 63.473 173.251 64.0311 171.304 65.1473C169.357 66.2317 167.822 67.8103 166.701 69.8832C165.609 71.9562 165.063 74.3799 165.063 77.1545C165.063 79.929 165.609 82.3528 166.701 84.4257C167.822 86.4987 169.357 88.0933 171.304 89.2095C173.251 90.2938 175.45 90.8359 177.899 90.8359C180.348 90.8359 182.531 90.2938 184.449 89.2095C186.396 88.0933 187.916 86.4987 189.008 84.4257C190.129 82.3528 190.689 79.929 190.689 77.1545C190.689 74.3799 190.129 71.9562 189.008 69.8832C187.916 67.8103 186.396 66.2317 184.449 65.1473ZM174.225 72.2751C175.228 71.127 176.453 70.5529 177.899 70.5529C179.344 70.5529 180.554 71.127 181.528 72.2751C182.502 73.3913 182.988 75.0177 182.988 77.1545C182.988 79.2912 182.502 80.9177 181.528 82.0339C180.554 83.1501 179.344 83.7082 177.899 83.7082C176.453 83.7082 175.228 83.1501 174.225 82.0339C173.251 80.9177 172.765 79.2912 172.765 77.1545C172.765 75.0177 173.251 73.3913 174.225 72.2751Z" fill="url(#paint11_linear)"/>
<path d="M16.904 160.2V142.871H11.2277V160.2C11.2277 162.018 10.5085 162.927 9.07011 162.927C7.4104 162.927 6.58054 161.743 6.58054 159.375H0.970703C0.970703 162.317 1.72311 164.577 3.22791 166.156C4.73272 167.71 6.76864 168.488 9.33567 168.488C11.7035 168.488 13.5513 167.77 14.8791 166.335C16.229 164.9 16.904 162.855 16.904 160.2Z" fill="#2DA8E6"/>
<path d="M16.904 160.2V142.871H11.2277V160.2C11.2277 162.018 10.5085 162.927 9.07011 162.927C7.4104 162.927 6.58054 161.743 6.58054 159.375H0.970703C0.970703 162.317 1.72311 164.577 3.22791 166.156C4.73272 167.71 6.76864 168.488 9.33567 168.488C11.7035 168.488 13.5513 167.77 14.8791 166.335C16.229 164.9 16.904 162.855 16.904 160.2Z" fill="url(#paint12_linear)"/>
<path fill-rule="evenodd" clip-rule="evenodd" d="M31.3378 149.006C30.3198 148.312 29.1027 147.966 27.6864 147.966C26.1595 147.966 24.7874 148.384 23.5703 149.221C22.3753 150.035 21.4237 151.218 20.7156 152.773C20.0296 154.304 19.6866 156.122 19.6866 158.227C19.6866 160.308 20.0296 162.125 20.7156 163.68C21.4237 165.235 22.3753 166.431 23.5703 167.268C24.7874 168.081 26.1595 168.488 27.6864 168.488C29.1027 168.488 30.3198 168.141 31.3378 167.447C32.3557 166.754 33.1081 165.809 33.595 164.613V168.237H39.238V148.217H33.595V151.84C33.1081 150.644 32.3557 149.7 31.3378 149.006ZM26.5578 154.639C27.3102 153.778 28.295 153.347 29.5121 153.347C30.7071 153.347 31.6808 153.79 32.4332 154.675C33.2077 155.536 33.595 156.72 33.595 158.227C33.595 159.71 33.2077 160.894 32.4332 161.779C31.6808 162.664 30.7071 163.106 29.5121 163.106C28.295 163.106 27.3102 162.676 26.5578 161.814C25.8275 160.953 25.4624 159.757 25.4624 158.227C25.4624 156.696 25.8275 155.5 26.5578 154.639Z" fill="#2DA8E6"/>
<path fill-rule="evenodd" clip-rule="evenodd" d="M31.3378 149.006C30.3198 148.312 29.1027 147.966 27.6864 147.966C26.1595 147.966 24.7874 148.384 23.5703 149.221C22.3753 150.035 21.4237 151.218 20.7156 152.773C20.0296 154.304 19.6866 156.122 19.6866 158.227C19.6866 160.308 20.0296 162.125 20.7156 163.68C21.4237 165.235 22.3753 166.431 23.5703 167.268C24.7874 168.081 26.1595 168.488 27.6864 168.488C29.1027 168.488 30.3198 168.141 31.3378 167.447C32.3557 166.754 33.1081 165.809 33.595 164.613V168.237H39.238V148.217H33.595V151.84C33.1081 150.644 32.3557 149.7 31.3378 149.006ZM26.5578 154.639C27.3102 153.778 28.295 153.347 29.5121 153.347C30.7071 153.347 31.6808 153.79 32.4332 154.675C33.2077 155.536 33.595 156.72 33.595 158.227C33.595 159.71 33.2077 160.894 32.4332 161.779C31.6808 162.664 30.7071 163.106 29.5121 163.106C28.295 163.106 27.3102 162.676 26.5578 161.814C25.8275 160.953 25.4624 159.757 25.4624 158.227C25.4624 156.696 25.8275 155.5 26.5578 154.639Z" fill="url(#paint13_linear)"/>
<path d="M55.7268 148.217L51.7103 162.245L47.6274 148.217H41.586L48.1585 168.237H55.1957L61.7681 148.217H55.7268Z" fill="#2DA8E6"/>
<path d="M55.7268 148.217L51.7103 162.245L47.6274 148.217H41.586L48.1585 168.237H55.1957L61.7681 148.217H55.7268Z" fill="url(#paint14_linear)"/>
<path fill-rule="evenodd" clip-rule="evenodd" d="M74.8081 149.006C73.7901 148.312 72.573 147.966 71.1567 147.966C69.6297 147.966 68.2577 148.384 67.0406 149.221C65.8456 150.035 64.894 151.218 64.1859 152.773C63.4999 154.304 63.1568 156.122 63.1568 158.227C63.1568 160.308 63.4999 162.125 64.1859 163.68C64.894 165.235 65.8456 166.431 67.0406 167.268C68.2577 168.081 69.6297 168.488 71.1567 168.488C72.573 168.488 73.7901 168.141 74.8081 167.447C75.826 166.754 76.5784 165.809 77.0653 164.613V168.237H82.7083V148.217H77.0653V151.84C76.5784 150.644 75.826 149.7 74.8081 149.006ZM70.0281 154.639C70.7805 153.778 71.7652 153.347 72.9824 153.347C74.1774 153.347 75.1511 153.79 75.9035 154.675C76.678 155.536 77.0653 156.72 77.0653 158.227C77.0653 159.71 76.678 160.894 75.9035 161.779C75.1511 162.664 74.1774 163.106 72.9824 163.106C71.7652 163.106 70.7805 162.676 70.0281 161.814C69.2978 160.953 68.9327 159.757 68.9327 158.227C68.9327 156.696 69.2978 155.5 70.0281 154.639Z" fill="#2DA8E6"/>
<path fill-rule="evenodd" clip-rule="evenodd" d="M74.8081 149.006C73.7901 148.312 72.573 147.966 71.1567 147.966C69.6297 147.966 68.2577 148.384 67.0406 149.221C65.8456 150.035 64.894 151.218 64.1859 152.773C63.4999 154.304 63.1568 156.122 63.1568 158.227C63.1568 160.308 63.4999 162.125 64.1859 163.68C64.894 165.235 65.8456 166.431 67.0406 167.268C68.2577 168.081 69.6297 168.488 71.1567 168.488C72.573 168.488 73.7901 168.141 74.8081 167.447C75.826 166.754 76.5784 165.809 77.0653 164.613V168.237H82.7083V148.217H77.0653V151.84C76.5784 150.644 75.826 149.7 74.8081 149.006ZM70.0281 154.639C70.7805 153.778 71.7652 153.347 72.9824 153.347C74.1774 153.347 75.1511 153.79 75.9035 154.675C76.678 155.536 77.0653 156.72 77.0653 158.227C77.0653 159.71 76.678 160.894 75.9035 161.779C75.1511 162.664 74.1774 163.106 72.9824 163.106C71.7652 163.106 70.7805 162.676 70.0281 161.814C69.2978 160.953 68.9327 159.757 68.9327 158.227C68.9327 156.696 69.2978 155.5 70.0281 154.639Z" fill="url(#paint15_linear)"/>
<path d="M98.9647 149.867C97.5705 148.599 95.7006 147.966 93.3548 147.966C91.0534 147.966 89.2719 148.528 88.0106 149.652C86.7492 150.752 86.1185 152.199 86.1185 153.993C86.1185 155.38 86.4394 156.481 87.0811 157.294C87.7229 158.083 88.4863 158.657 89.3715 159.016C90.2567 159.375 91.3853 159.71 92.7573 160.021C94.1294 160.355 95.1141 160.678 95.7116 160.989C96.3313 161.276 96.6411 161.767 96.6411 162.46C96.6411 162.986 96.4751 163.417 96.1432 163.752C95.8112 164.063 95.3244 164.218 94.6826 164.218C93.7532 164.218 92.9897 163.991 92.3922 163.537C91.8168 163.082 91.4849 162.424 91.3964 161.563H85.9193C86.2513 163.788 87.1696 165.498 88.6744 166.694C90.1793 167.89 92.182 168.488 94.6826 168.488C96.1653 168.488 97.4488 168.237 98.5332 167.734C99.6175 167.232 100.447 166.538 101.023 165.653C101.598 164.768 101.886 163.752 101.886 162.604C101.886 161.193 101.554 160.068 100.89 159.231C100.226 158.394 99.4405 157.796 98.5332 157.437C97.6258 157.055 96.464 156.684 95.0478 156.325C93.7421 156.014 92.7795 155.703 92.1599 155.392C91.5623 155.081 91.2636 154.615 91.2636 153.993C91.2636 153.443 91.4296 153.024 91.7615 152.737C92.0935 152.426 92.5803 152.271 93.2221 152.271C94.0409 152.271 94.7158 152.51 95.2469 152.988C95.8002 153.443 96.1542 154.077 96.3091 154.89H101.62C101.266 152.809 100.381 151.135 98.9647 149.867Z" fill="#2DA8E6"/>
<path d="M98.9647 149.867C97.5705 148.599 95.7006 147.966 93.3548 147.966C91.0534 147.966 89.2719 148.528 88.0106 149.652C86.7492 150.752 86.1185 152.199 86.1185 153.993C86.1185 155.38 86.4394 156.481 87.0811 157.294C87.7229 158.083 88.4863 158.657 89.3715 159.016C90.2567 159.375 91.3853 159.71 92.7573 160.021C94.1294 160.355 95.1141 160.678 95.7116 160.989C96.3313 161.276 96.6411 161.767 96.6411 162.46C96.6411 162.986 96.4751 163.417 96.1432 163.752C95.8112 164.063 95.3244 164.218 94.6826 164.218C93.7532 164.218 92.9897 163.991 92.3922 163.537C91.8168 163.082 91.4849 162.424 91.3964 161.563H85.9193C86.2513 163.788 87.1696 165.498 88.6744 166.694C90.1793 167.89 92.182 168.488 94.6826 168.488C96.1653 168.488 97.4488 168.237 98.5332 167.734C99.6175 167.232 100.447 166.538 101.023 165.653C101.598 164.768 101.886 163.752 101.886 162.604C101.886 161.193 101.554 160.068 100.89 159.231C100.226 158.394 99.4405 157.796 98.5332 157.437C97.6258 157.055 96.464 156.684 95.0478 156.325C93.7421 156.014 92.7795 155.703 92.1599 155.392C91.5623 155.081 91.2636 154.615 91.2636 153.993C91.2636 153.443 91.4296 153.024 91.7615 152.737C92.0935 152.426 92.5803 152.271 93.2221 152.271C94.0409 152.271 94.7158 152.51 95.2469 152.988C95.8002 153.443 96.1542 154.077 96.3091 154.89H101.62C101.266 152.809 100.381 151.135 98.9647 149.867Z" fill="url(#paint16_linear)"/>
<path d="M119.402 150.118C117.787 148.683 115.784 147.966 113.394 147.966C111.579 147.966 109.964 148.384 108.547 149.221C107.131 150.035 106.025 151.218 105.228 152.773C104.453 154.304 104.066 156.122 104.066 158.227C104.066 160.308 104.465 162.125 105.261 163.68C106.058 165.235 107.153 166.431 108.547 167.268C109.964 168.081 111.579 168.488 113.394 168.488C115.784 168.488 117.787 167.782 119.402 166.371C121.017 164.936 122.035 162.974 122.456 160.487H116.448C116.271 161.348 115.906 162.018 115.352 162.496C114.799 162.974 114.102 163.214 113.261 163.214C112.265 163.214 111.446 162.795 110.805 161.958C110.163 161.097 109.842 159.853 109.842 158.227C109.842 156.6 110.163 155.368 110.805 154.531C111.446 153.67 112.265 153.24 113.261 153.24C114.102 153.24 114.799 153.479 115.352 153.957C115.906 154.436 116.271 155.105 116.448 155.966H122.456C122.035 153.479 121.017 151.529 119.402 150.118Z" fill="#2DA8E6"/>
<path d="M119.402 150.118C117.787 148.683 115.784 147.966 113.394 147.966C111.579 147.966 109.964 148.384 108.547 149.221C107.131 150.035 106.025 151.218 105.228 152.773C104.453 154.304 104.066 156.122 104.066 158.227C104.066 160.308 104.465 162.125 105.261 163.68C106.058 165.235 107.153 166.431 108.547 167.268C109.964 168.081 111.579 168.488 113.394 168.488C115.784 168.488 117.787 167.782 119.402 166.371C121.017 164.936 122.035 162.974 122.456 160.487H116.448C116.271 161.348 115.906 162.018 115.352 162.496C114.799 162.974 114.102 163.214 113.261 163.214C112.265 163.214 111.446 162.795 110.805 161.958C110.163 161.097 109.842 159.853 109.842 158.227C109.842 156.6 110.163 155.368 110.805 154.531C111.446 153.67 112.265 153.24 113.261 153.24C114.102 153.24 114.799 153.479 115.352 153.957C115.906 154.436 116.271 155.105 116.448 155.966H122.456C122.035 153.479 121.017 151.529 119.402 150.118Z" fill="url(#paint17_linear)"/>
<path d="M133.817 149.078C132.71 149.795 131.803 150.764 131.095 151.984V148.217H125.419V168.237H131.095V159.124C131.095 157.473 131.504 156.301 132.323 155.608C133.164 154.914 134.337 154.567 135.842 154.567H137.468V148.001C136.163 148.001 134.945 148.36 133.817 149.078Z" fill="#2DA8E6"/>
<path d="M133.817 149.078C132.71 149.795 131.803 150.764 131.095 151.984V148.217H125.419V168.237H131.095V159.124C131.095 157.473 131.504 156.301 132.323 155.608C133.164 154.914 134.337 154.567 135.842 154.567H137.468V148.001C136.163 148.001 134.945 148.36 133.817 149.078Z" fill="url(#paint18_linear)"/>
<path d="M140.242 140.288C139.623 140.886 139.313 141.651 139.313 142.584C139.313 143.493 139.623 144.258 140.242 144.88C140.862 145.478 141.681 145.777 142.699 145.777C143.717 145.777 144.535 145.478 145.155 144.88C145.775 144.258 146.085 143.493 146.085 142.584C146.085 141.651 145.775 140.886 145.155 140.288C144.535 139.666 143.717 139.355 142.699 139.355C141.681 139.355 140.862 139.666 140.242 140.288Z" fill="#2DA8E6"/>
<path d="M140.242 140.288C139.623 140.886 139.313 141.651 139.313 142.584C139.313 143.493 139.623 144.258 140.242 144.88C140.862 145.478 141.681 145.777 142.699 145.777C143.717 145.777 144.535 145.478 145.155 144.88C145.775 144.258 146.085 143.493 146.085 142.584C146.085 141.651 145.775 140.886 145.155 140.288C144.535 139.666 143.717 139.355 142.699 139.355C141.681 139.355 140.862 139.666 140.242 140.288Z" fill="url(#paint19_linear)"/>
<path d="M139.844 168.237H145.52V148.217H139.844V168.237Z" fill="#2DA8E6"/>
<path d="M139.844 168.237H145.52V148.217H139.844V168.237Z" fill="url(#paint20_linear)"/>
<path fill-rule="evenodd" clip-rule="evenodd" d="M165.074 149.221C163.879 148.384 162.518 147.966 160.991 147.966C159.575 147.966 158.357 148.312 157.339 149.006C156.321 149.7 155.58 150.644 155.115 151.84V148.217H149.439V177.78H155.115V164.613C155.58 165.809 156.321 166.754 157.339 167.447C158.357 168.141 159.575 168.488 160.991 168.488C162.518 168.488 163.879 168.081 165.074 167.268C166.291 166.431 167.242 165.235 167.928 163.68C168.637 162.125 168.991 160.308 168.991 158.227C168.991 156.122 168.637 154.304 167.928 152.773C167.242 151.218 166.291 150.035 165.074 149.221ZM156.211 154.675C156.985 153.79 157.97 153.347 159.165 153.347C160.382 153.347 161.356 153.778 162.086 154.639C162.839 155.5 163.215 156.696 163.215 158.227C163.215 159.757 162.839 160.953 162.086 161.814C161.356 162.676 160.382 163.106 159.165 163.106C157.97 163.106 156.985 162.664 156.211 161.779C155.458 160.894 155.082 159.71 155.082 158.227C155.082 156.72 155.458 155.536 156.211 154.675Z" fill="#2DA8E6"/>
<path fill-rule="evenodd" clip-rule="evenodd" d="M165.074 149.221C163.879 148.384 162.518 147.966 160.991 147.966C159.575 147.966 158.357 148.312 157.339 149.006C156.321 149.7 155.58 150.644 155.115 151.84V148.217H149.439V177.78H155.115V164.613C155.58 165.809 156.321 166.754 157.339 167.447C158.357 168.141 159.575 168.488 160.991 168.488C162.518 168.488 163.879 168.081 165.074 167.268C166.291 166.431 167.242 165.235 167.928 163.68C168.637 162.125 168.991 160.308 168.991 158.227C168.991 156.122 168.637 154.304 167.928 152.773C167.242 151.218 166.291 150.035 165.074 149.221ZM156.211 154.675C156.985 153.79 157.97 153.347 159.165 153.347C160.382 153.347 161.356 153.778 162.086 154.639C162.839 155.5 163.215 156.696 163.215 158.227C163.215 159.757 162.839 160.953 162.086 161.814C161.356 162.676 160.382 163.106 159.165 163.106C157.97 163.106 156.985 162.664 156.211 161.779C155.458 160.894 155.082 159.71 155.082 158.227C155.082 156.72 155.458 155.536 156.211 154.675Z" fill="url(#paint21_linear)"/>
<path d="M182.426 168.237V162.963H180.633C179.925 162.963 179.416 162.807 179.106 162.496C178.818 162.185 178.675 161.635 178.675 160.846V153.383H182.392V148.217H178.675V143.301H172.998V148.217H170.509V153.383H172.998V160.738C172.998 163.417 173.596 165.342 174.791 166.514C176.008 167.663 177.701 168.237 179.87 168.237H182.426Z" fill="#2DA8E6"/>
<path d="M182.426 168.237V162.963H180.633C179.925 162.963 179.416 162.807 179.106 162.496C178.818 162.185 178.675 161.635 178.675 160.846V153.383H182.392V148.217H178.675V143.301H172.998V148.217H170.509V153.383H172.998V160.738C172.998 163.417 173.596 165.342 174.791 166.514C176.008 167.663 177.701 168.237 179.87 168.237H182.426Z" fill="url(#paint22_linear)"/>
<path d="M8.99266 51.5456C10.8958 51.5456 12.467 52.0559 13.7062 53.0764C14.9455 54.081 15.8012 55.4603 16.2733 57.2143H14.1488C13.7505 56.0981 13.1088 55.2131 12.2236 54.5594C11.3384 53.8896 10.254 53.5548 8.97053 53.5548C7.95257 53.5548 7.03788 53.8259 6.22647 54.368C5.4298 54.8942 4.79542 55.6596 4.32333 56.6642C3.86598 57.6528 3.63731 58.8169 3.63731 60.1563C3.63731 61.4798 3.86598 62.6359 4.32333 63.6245C4.79542 64.6132 5.4298 65.3785 6.22647 65.9207C7.03788 66.4469 7.95257 66.71 8.97053 66.71C10.254 66.71 11.3384 66.3831 12.2236 65.7294C13.1088 65.0596 13.7505 64.1667 14.1488 63.0505H16.2733C15.8012 64.8045 14.9455 66.1918 13.7062 67.2123C12.467 68.2169 10.8958 68.7192 8.99266 68.7192C7.53211 68.7192 6.24122 68.3604 5.11999 67.6428C3.99876 66.9093 3.12096 65.8968 2.48658 64.6052C1.86695 63.2976 1.55713 61.8147 1.55713 60.1563C1.55713 58.482 1.86695 56.9911 2.48658 55.6835C3.12096 54.376 3.99876 53.3634 5.11999 52.6459C6.24122 51.9124 7.53211 51.5456 8.99266 51.5456Z" fill="#2DA8E6"/>
<path d="M8.99266 51.5456C10.8958 51.5456 12.467 52.0559 13.7062 53.0764C14.9455 54.081 15.8012 55.4603 16.2733 57.2143H14.1488C13.7505 56.0981 13.1088 55.2131 12.2236 54.5594C11.3384 53.8896 10.254 53.5548 8.97053 53.5548C7.95257 53.5548 7.03788 53.8259 6.22647 54.368C5.4298 54.8942 4.79542 55.6596 4.32333 56.6642C3.86598 57.6528 3.63731 58.8169 3.63731 60.1563C3.63731 61.4798 3.86598 62.6359 4.32333 63.6245C4.79542 64.6132 5.4298 65.3785 6.22647 65.9207C7.03788 66.4469 7.95257 66.71 8.97053 66.71C10.254 66.71 11.3384 66.3831 12.2236 65.7294C13.1088 65.0596 13.7505 64.1667 14.1488 63.0505H16.2733C15.8012 64.8045 14.9455 66.1918 13.7062 67.2123C12.467 68.2169 10.8958 68.7192 8.99266 68.7192C7.53211 68.7192 6.24122 68.3604 5.11999 67.6428C3.99876 66.9093 3.12096 65.8968 2.48658 64.6052C1.86695 63.2976 1.55713 61.8147 1.55713 60.1563C1.55713 58.482 1.86695 56.9911 2.48658 55.6835C3.12096 54.376 3.99876 53.3634 5.11999 52.6459C6.24122 51.9124 7.53211 51.5456 8.99266 51.5456Z" fill="url(#paint23_linear)"/>
<path fill-rule="evenodd" clip-rule="evenodd" d="M31.0712 57.8362L30.2967 61.711H33.3948V63.6963H29.9205L28.9468 68.5757H27.0436L28.0173 63.6963H23.348L22.3743 68.5757H20.4711L21.4448 63.6963H17.9926V61.711H21.821L22.5956 57.8362H19.254V55.827H22.9939L23.9676 50.8759H25.8707L24.897 55.827H29.5664L30.5401 50.8759H32.4432L31.4695 55.827H34.634V57.8362H31.0712ZM29.168 57.8362H24.4987L23.7242 61.711H28.3935L29.168 57.8362Z" fill="#2DA8E6"/>
<path fill-rule="evenodd" clip-rule="evenodd" d="M31.0712 57.8362L30.2967 61.711H33.3948V63.6963H29.9205L28.9468 68.5757H27.0436L28.0173 63.6963H23.348L22.3743 68.5757H20.4711L21.4448 63.6963H17.9926V61.711H21.821L22.5956 57.8362H19.254V55.827H22.9939L23.9676 50.8759H25.8707L24.897 55.827H29.5664L30.5401 50.8759H32.4432L31.4695 55.827H34.634V57.8362H31.0712ZM29.168 57.8362H24.4987L23.7242 61.711H28.3935L29.168 57.8362Z" fill="url(#paint24_linear)"/>
<path d="M224.947 143.84C223.664 142.755 222.048 142.213 220.101 142.213C218.596 142.213 217.276 142.58 216.14 143.313C215.004 144.031 214.119 145.044 213.484 146.351C212.865 147.659 212.555 149.15 212.555 150.824C212.555 152.482 212.865 153.965 213.484 155.273C214.119 156.58 215.004 157.601 216.14 158.334C217.291 159.052 218.611 159.411 220.101 159.411C222.048 159.411 223.664 158.868 224.947 157.784C226.231 156.7 227.079 155.225 227.492 153.359H224.217C223.878 154.268 223.347 154.986 222.624 155.512C221.916 156.038 221.06 156.301 220.057 156.301C219.231 156.301 218.486 156.078 217.822 155.631C217.158 155.185 216.641 154.547 216.273 153.718C215.904 152.889 215.719 151.924 215.719 150.824C215.719 149.708 215.904 148.735 216.273 147.906C216.641 147.077 217.158 146.439 217.822 145.992C218.486 145.546 219.231 145.323 220.057 145.323C221.06 145.323 221.916 145.586 222.624 146.112C223.347 146.638 223.878 147.356 224.217 148.265H227.492C227.079 146.399 226.231 144.924 224.947 143.84Z" fill="#2DA8E6"/>
<path d="M224.947 143.84C223.664 142.755 222.048 142.213 220.101 142.213C218.596 142.213 217.276 142.58 216.14 143.313C215.004 144.031 214.119 145.044 213.484 146.351C212.865 147.659 212.555 149.15 212.555 150.824C212.555 152.482 212.865 153.965 213.484 155.273C214.119 156.58 215.004 157.601 216.14 158.334C217.291 159.052 218.611 159.411 220.101 159.411C222.048 159.411 223.664 158.868 224.947 157.784C226.231 156.7 227.079 155.225 227.492 153.359H224.217C223.878 154.268 223.347 154.986 222.624 155.512C221.916 156.038 221.06 156.301 220.057 156.301C219.231 156.301 218.486 156.078 217.822 155.631C217.158 155.185 216.641 154.547 216.273 153.718C215.904 152.889 215.719 151.924 215.719 150.824C215.719 149.708 215.904 148.735 216.273 147.906C216.641 147.077 217.158 146.439 217.822 145.992C218.486 145.546 219.231 145.323 220.057 145.323C221.06 145.323 221.916 145.586 222.624 146.112C223.347 146.638 223.878 147.356 224.217 148.265H227.492C227.079 146.399 226.231 144.924 224.947 143.84Z" fill="url(#paint25_linear)"/>
<path d="M236.185 152.307H240.323V149.221H236.185V144.653H233.175V149.221H229.037V152.307H233.175V156.851H236.185V152.307Z" fill="#2DA8E6"/>
<path d="M236.185 152.307H240.323V149.221H236.185V144.653H233.175V149.221H229.037V152.307H233.175V156.851H236.185V152.307Z" fill="url(#paint26_linear)"/>
<path d="M248.719 152.307H252.857V149.221H248.719V144.653H245.709V149.221H241.571V152.307H245.709V156.851H248.719V152.307Z" fill="#2DA8E6"/>
<path d="M248.719 152.307H252.857V149.221H248.719V144.653H245.709V149.221H241.571V152.307H245.709V156.851H248.719V152.307Z" fill="url(#paint27_linear)"/>
<path fill-rule="evenodd" clip-rule="evenodd" d="M252.406 87.0129L248.335 80.1244H246.144V87.0129H244.13V70.1503H249.264C251.034 70.1503 252.362 70.6127 253.247 71.5376C254.133 72.4465 254.575 73.6584 254.575 75.1732C254.575 76.5446 254.221 77.6528 253.513 78.4979C252.805 79.3271 251.779 79.8453 250.437 80.0526L254.686 87.0129H252.406ZM246.144 78.5457H249.087C251.374 78.5457 252.517 77.4614 252.517 75.2928C252.517 73.1242 251.374 72.0399 249.087 72.0399H246.144V78.5457Z" fill="#2DA8E6"/>
<path fill-rule="evenodd" clip-rule="evenodd" d="M252.406 87.0129L248.335 80.1244H246.144V87.0129H244.13V70.1503H249.264C251.034 70.1503 252.362 70.6127 253.247 71.5376C254.133 72.4465 254.575 73.6584 254.575 75.1732C254.575 76.5446 254.221 77.6528 253.513 78.4979C252.805 79.3271 251.779 79.8453 250.437 80.0526L254.686 87.0129H252.406ZM246.144 78.5457H249.087C251.374 78.5457 252.517 77.4614 252.517 75.2928C252.517 73.1242 251.374 72.0399 249.087 72.0399H246.144V78.5457Z" fill="url(#paint28_linear)"/>
<path d="M267.831 73.8816V87.0129H265.817V83.9274C265.507 84.9958 264.954 85.817 264.157 86.3911C263.375 86.9492 262.461 87.2282 261.413 87.2282C260.012 87.2282 258.876 86.7419 258.005 85.7692C257.135 84.7805 256.7 83.3693 256.7 81.5356V73.8816H258.714V81.3203C258.714 82.6279 259.023 83.6404 259.643 84.358C260.263 85.0596 261.104 85.4104 262.166 85.4104C263.272 85.4104 264.157 85.0277 264.821 84.2623C265.485 83.481 265.817 82.3488 265.817 80.8659V73.8816H267.831Z" fill="#2DA8E6"/>
<path d="M267.831 73.8816V87.0129H265.817V83.9274C265.507 84.9958 264.954 85.817 264.157 86.3911C263.375 86.9492 262.461 87.2282 261.413 87.2282C260.012 87.2282 258.876 86.7419 258.005 85.7692C257.135 84.7805 256.7 83.3693 256.7 81.5356V73.8816H258.714V81.3203C258.714 82.6279 259.023 83.6404 259.643 84.358C260.263 85.0596 261.104 85.4104 262.166 85.4104C263.272 85.4104 264.157 85.0277 264.821 84.2623C265.485 83.481 265.817 82.3488 265.817 80.8659V73.8816H267.831Z" fill="url(#paint29_linear)"/>
<path fill-rule="evenodd" clip-rule="evenodd" d="M277.762 73.7142C278.839 73.7142 279.798 73.9853 280.639 74.5274C281.48 75.0696 282.137 75.8509 282.609 76.8714C283.096 77.892 283.339 79.0879 283.339 80.4592C283.339 81.8306 283.096 83.0265 282.609 84.047C282.137 85.0516 281.48 85.825 280.639 86.3671C279.798 86.9093 278.839 87.1804 277.762 87.1804C276.582 87.1804 275.579 86.8615 274.753 86.2236C273.941 85.5699 273.381 84.7168 273.071 83.6643V87.0129H271.057V69.3132H273.071V77.2302C273.381 76.1778 273.941 75.3327 274.753 74.6948C275.579 74.0411 276.582 73.7142 277.762 73.7142ZM277.187 75.6516C276.405 75.6516 275.697 75.8509 275.063 76.2496C274.428 76.6323 273.934 77.1904 273.58 77.9239C273.226 78.6574 273.049 79.5025 273.049 80.4592C273.049 81.416 273.226 82.2611 273.58 82.9946C273.934 83.7122 274.428 84.2703 275.063 84.6689C275.697 85.0676 276.405 85.2669 277.187 85.2669C278.441 85.2669 279.437 84.8443 280.175 83.9992C280.927 83.1381 281.303 81.9581 281.303 80.4592C281.303 78.9603 280.927 77.7883 280.175 76.9432C279.437 76.0821 278.441 75.6516 277.187 75.6516Z" fill="#2DA8E6"/>
<path fill-rule="evenodd" clip-rule="evenodd" d="M277.762 73.7142C278.839 73.7142 279.798 73.9853 280.639 74.5274C281.48 75.0696 282.137 75.8509 282.609 76.8714C283.096 77.892 283.339 79.0879 283.339 80.4592C283.339 81.8306 283.096 83.0265 282.609 84.047C282.137 85.0516 281.48 85.825 280.639 86.3671C279.798 86.9093 278.839 87.1804 277.762 87.1804C276.582 87.1804 275.579 86.8615 274.753 86.2236C273.941 85.5699 273.381 84.7168 273.071 83.6643V87.0129H271.057V69.3132H273.071V77.2302C273.381 76.1778 273.941 75.3327 274.753 74.6948C275.579 74.0411 276.582 73.7142 277.762 73.7142ZM277.187 75.6516C276.405 75.6516 275.697 75.8509 275.063 76.2496C274.428 76.6323 273.934 77.1904 273.58 77.9239C273.226 78.6574 273.049 79.5025 273.049 80.4592C273.049 81.416 273.226 82.2611 273.58 82.9946C273.934 83.7122 274.428 84.2703 275.063 84.6689C275.697 85.0676 276.405 85.2669 277.187 85.2669C278.441 85.2669 279.437 84.8443 280.175 83.9992C280.927 83.1381 281.303 81.9581 281.303 80.4592C281.303 78.9603 280.927 77.7883 280.175 76.9432C279.437 76.0821 278.441 75.6516 277.187 75.6516Z" fill="url(#paint30_linear)"/>
<path d="M286.81 73.8816L290.749 84.2145L294.4 73.8816H296.635L289.421 93.2318H287.141L289.664 86.7977L284.552 73.8816H286.81Z" fill="#2DA8E6"/>
<path d="M286.81 73.8816L290.749 84.2145L294.4 73.8816H296.635L289.421 93.2318H287.141L289.664 86.7977L284.552 73.8816H286.81Z" fill="url(#paint31_linear)"/>
<path d="M40.9329 112.267C41.287 111.581 41.4641 110.84 41.4641 110.043C41.4641 108.974 41.2501 108.121 40.8223 107.483C40.3945 106.83 39.8707 106.343 39.2511 106.024C38.6462 105.705 37.8422 105.37 36.839 105.02C36.0128 104.733 35.3637 104.478 34.8916 104.254C34.4195 104.015 34.0212 103.696 33.6966 103.298C33.3868 102.883 33.2319 102.349 33.2319 101.695C33.2319 100.866 33.4753 100.228 33.9621 99.7815C34.449 99.3191 35.0981 99.0879 35.9095 99.0879C36.7947 99.0879 37.4955 99.343 38.0119 99.8533C38.5282 100.364 38.8454 100.954 38.9634 101.623H41.1321C40.9846 100.379 40.4609 99.3589 39.5609 98.5616C38.661 97.7484 37.4439 97.3418 35.9095 97.3418C34.9211 97.3418 34.058 97.5252 33.3204 97.8919C32.5975 98.2587 32.0369 98.7769 31.6385 99.4466C31.255 100.116 31.0632 100.89 31.0632 101.767C31.0632 102.787 31.2697 103.608 31.6828 104.23C32.1106 104.852 32.6196 105.323 33.2097 105.642C33.8146 105.945 34.6113 106.271 35.5997 106.622C36.4407 106.909 37.1045 107.18 37.5914 107.435C38.0782 107.675 38.4839 108.009 38.8085 108.44C39.1478 108.871 39.3175 109.429 39.3175 110.114C39.3175 110.912 39.0814 111.565 38.6093 112.076C38.1372 112.586 37.4586 112.841 36.5734 112.841C35.8948 112.841 35.312 112.698 34.8252 112.411C34.3531 112.108 33.9843 111.733 33.7187 111.286C33.4679 110.824 33.3204 110.354 33.2761 109.875H31.1296C31.2033 110.784 31.4763 111.597 31.9484 112.315C32.4352 113.016 33.077 113.575 33.8736 113.989C34.685 114.388 35.6071 114.587 36.6398 114.587C37.702 114.587 38.5946 114.372 39.3175 113.941C40.0404 113.511 40.5789 112.953 40.9329 112.267Z" fill="#2DA8E6"/>
<path d="M40.9329 112.267C41.287 111.581 41.4641 110.84 41.4641 110.043C41.4641 108.974 41.2501 108.121 40.8223 107.483C40.3945 106.83 39.8707 106.343 39.2511 106.024C38.6462 105.705 37.8422 105.37 36.839 105.02C36.0128 104.733 35.3637 104.478 34.8916 104.254C34.4195 104.015 34.0212 103.696 33.6966 103.298C33.3868 102.883 33.2319 102.349 33.2319 101.695C33.2319 100.866 33.4753 100.228 33.9621 99.7815C34.449 99.3191 35.0981 99.0879 35.9095 99.0879C36.7947 99.0879 37.4955 99.343 38.0119 99.8533C38.5282 100.364 38.8454 100.954 38.9634 101.623H41.1321C40.9846 100.379 40.4609 99.3589 39.5609 98.5616C38.661 97.7484 37.4439 97.3418 35.9095 97.3418C34.9211 97.3418 34.058 97.5252 33.3204 97.8919C32.5975 98.2587 32.0369 98.7769 31.6385 99.4466C31.255 100.116 31.0632 100.89 31.0632 101.767C31.0632 102.787 31.2697 103.608 31.6828 104.23C32.1106 104.852 32.6196 105.323 33.2097 105.642C33.8146 105.945 34.6113 106.271 35.5997 106.622C36.4407 106.909 37.1045 107.18 37.5914 107.435C38.0782 107.675 38.4839 108.009 38.8085 108.44C39.1478 108.871 39.3175 109.429 39.3175 110.114C39.3175 110.912 39.0814 111.565 38.6093 112.076C38.1372 112.586 37.4586 112.841 36.5734 112.841C35.8948 112.841 35.312 112.698 34.8252 112.411C34.3531 112.108 33.9843 111.733 33.7187 111.286C33.4679 110.824 33.3204 110.354 33.2761 109.875H31.1296C31.2033 110.784 31.4763 111.597 31.9484 112.315C32.4352 113.016 33.077 113.575 33.8736 113.989C34.685 114.388 35.6071 114.587 36.6398 114.587C37.702 114.587 38.5946 114.372 39.3175 113.941C40.0404 113.511 40.5789 112.953 40.9329 112.267Z" fill="url(#paint32_linear)"/>
<path d="M53.3998 102.46C52.3819 101.567 51.0984 101.121 49.5493 101.121C48.3838 101.121 47.3511 101.392 46.4512 101.934C45.5512 102.476 44.8431 103.258 44.3267 104.278C43.8251 105.299 43.5743 106.495 43.5743 107.866C43.5743 109.237 43.8251 110.433 44.3267 111.454C44.8431 112.458 45.5512 113.232 46.4512 113.774C47.3511 114.316 48.3838 114.587 49.5493 114.587C51.0984 114.587 52.3819 114.149 53.3998 113.272C54.4178 112.379 55.0448 111.175 55.2808 109.66H53.1564C53.0089 110.601 52.6032 111.342 51.9393 111.884C51.2901 112.426 50.4787 112.698 49.505 112.698C48.7969 112.698 48.1478 112.522 47.5576 112.171C46.9823 111.821 46.5175 111.286 46.1635 110.569C45.8094 109.835 45.6324 108.934 45.6324 107.866C45.6324 106.798 45.8094 105.905 46.1635 105.187C46.5175 104.454 46.9823 103.911 47.5576 103.561C48.1478 103.21 48.7969 103.034 49.505 103.034C50.4787 103.034 51.2901 103.306 51.9393 103.848C52.6032 104.374 53.0089 105.107 53.1564 106.048H55.2808C55.0448 104.549 54.4178 103.353 53.3998 102.46Z" fill="#2DA8E6"/>
<path d="M53.3998 102.46C52.3819 101.567 51.0984 101.121 49.5493 101.121C48.3838 101.121 47.3511 101.392 46.4512 101.934C45.5512 102.476 44.8431 103.258 44.3267 104.278C43.8251 105.299 43.5743 106.495 43.5743 107.866C43.5743 109.237 43.8251 110.433 44.3267 111.454C44.8431 112.458 45.5512 113.232 46.4512 113.774C47.3511 114.316 48.3838 114.587 49.5493 114.587C51.0984 114.587 52.3819 114.149 53.3998 113.272C54.4178 112.379 55.0448 111.175 55.2808 109.66H53.1564C53.0089 110.601 52.6032 111.342 51.9393 111.884C51.2901 112.426 50.4787 112.698 49.505 112.698C48.7969 112.698 48.1478 112.522 47.5576 112.171C46.9823 111.821 46.5175 111.286 46.1635 110.569C45.8094 109.835 45.6324 108.934 45.6324 107.866C45.6324 106.798 45.8094 105.905 46.1635 105.187C46.5175 104.454 46.9823 103.911 47.5576 103.561C48.1478 103.21 48.7969 103.034 49.505 103.034C50.4787 103.034 51.2901 103.306 51.9393 103.848C52.6032 104.374 53.0089 105.107 53.1564 106.048H55.2808C55.0448 104.549 54.4178 103.353 53.3998 102.46Z" fill="url(#paint33_linear)"/>
<path fill-rule="evenodd" clip-rule="evenodd" d="M65.883 102.078C65.0715 101.44 64.0757 101.121 62.8955 101.121C61.8185 101.121 60.8596 101.392 60.0186 101.934C59.1777 102.476 58.5138 103.258 58.027 104.278C57.5549 105.299 57.3188 106.495 57.3188 107.866C57.3188 109.237 57.5549 110.433 58.027 111.454C58.5138 112.458 59.1777 113.232 60.0186 113.774C60.8596 114.316 61.8185 114.587 62.8955 114.587C64.0757 114.587 65.0715 114.268 65.883 113.63C66.7091 112.993 67.2845 112.139 67.6091 111.071V114.42H69.6228V101.288H67.6091V104.637C67.2845 103.569 66.7091 102.716 65.883 102.078ZM60.4834 104.35C61.2358 103.489 62.2316 103.058 63.4708 103.058C64.2675 103.058 64.9756 103.258 65.5953 103.656C66.2297 104.039 66.7239 104.597 67.078 105.331C67.432 106.064 67.6091 106.909 67.6091 107.866C67.6091 108.823 67.432 109.668 67.078 110.401C66.7239 111.119 66.2297 111.677 65.5953 112.076C64.9756 112.474 64.2675 112.674 63.4708 112.674C62.2316 112.674 61.2358 112.251 60.4834 111.406C59.7457 110.545 59.3769 109.365 59.3769 107.866C59.3769 106.367 59.7457 105.195 60.4834 104.35Z" fill="#2DA8E6"/>
<path fill-rule="evenodd" clip-rule="evenodd" d="M65.883 102.078C65.0715 101.44 64.0757 101.121 62.8955 101.121C61.8185 101.121 60.8596 101.392 60.0186 101.934C59.1777 102.476 58.5138 103.258 58.027 104.278C57.5549 105.299 57.3188 106.495 57.3188 107.866C57.3188 109.237 57.5549 110.433 58.027 111.454C58.5138 112.458 59.1777 113.232 60.0186 113.774C60.8596 114.316 61.8185 114.587 62.8955 114.587C64.0757 114.587 65.0715 114.268 65.883 113.63C66.7091 112.993 67.2845 112.139 67.6091 111.071V114.42H69.6228V101.288H67.6091V104.637C67.2845 103.569 66.7091 102.716 65.883 102.078ZM60.4834 104.35C61.2358 103.489 62.2316 103.058 63.4708 103.058C64.2675 103.058 64.9756 103.258 65.5953 103.656C66.2297 104.039 66.7239 104.597 67.078 105.331C67.432 106.064 67.6091 106.909 67.6091 107.866C67.6091 108.823 67.432 109.668 67.078 110.401C66.7239 111.119 66.2297 111.677 65.5953 112.076C64.9756 112.474 64.2675 112.674 63.4708 112.674C62.2316 112.674 61.2358 112.251 60.4834 111.406C59.7457 110.545 59.3769 109.365 59.3769 107.866C59.3769 106.367 59.7457 105.195 60.4834 104.35Z" fill="url(#paint34_linear)"/>
<path d="M74.8416 114.42V96.7199H72.8278V114.42H74.8416Z" fill="#2DA8E6"/>
<path d="M74.8416 114.42V96.7199H72.8278V114.42H74.8416Z" fill="url(#paint35_linear)"/>
<path fill-rule="evenodd" clip-rule="evenodd" d="M86.0459 102.078C85.2345 101.44 84.2387 101.121 83.0584 101.121C81.9814 101.121 81.0225 101.392 80.1816 101.934C79.3407 102.476 78.6768 103.258 78.1899 104.278C77.7178 105.299 77.4818 106.495 77.4818 107.866C77.4818 109.237 77.7178 110.433 78.1899 111.454C78.6768 112.458 79.3407 113.232 80.1816 113.774C81.0225 114.316 81.9814 114.587 83.0584 114.587C84.2387 114.587 85.2345 114.268 86.0459 113.63C86.8721 112.993 87.4474 112.139 87.772 111.071V114.42H89.7858V101.288H87.772V104.637C87.4474 103.569 86.8721 102.716 86.0459 102.078ZM80.6463 104.35C81.3987 103.489 82.3945 103.058 83.6338 103.058C84.4304 103.058 85.1386 103.258 85.7582 103.656C86.3926 104.039 86.8868 104.597 87.2409 105.331C87.595 106.064 87.772 106.909 87.772 107.866C87.772 108.823 87.595 109.668 87.2409 110.401C86.8868 111.119 86.3926 111.677 85.7582 112.076C85.1386 112.474 84.4304 112.674 83.6338 112.674C82.3945 112.674 81.3987 112.251 80.6463 111.406C79.9086 110.545 79.5398 109.365 79.5398 107.866C79.5398 106.367 79.9086 105.195 80.6463 104.35Z" fill="#2DA8E6"/>
<path fill-rule="evenodd" clip-rule="evenodd" d="M86.0459 102.078C85.2345 101.44 84.2387 101.121 83.0584 101.121C81.9814 101.121 81.0225 101.392 80.1816 101.934C79.3407 102.476 78.6768 103.258 78.1899 104.278C77.7178 105.299 77.4818 106.495 77.4818 107.866C77.4818 109.237 77.7178 110.433 78.1899 111.454C78.6768 112.458 79.3407 113.232 80.1816 113.774C81.0225 114.316 81.9814 114.587 83.0584 114.587C84.2387 114.587 85.2345 114.268 86.0459 113.63C86.8721 112.993 87.4474 112.139 87.772 111.071V114.42H89.7858V101.288H87.772V104.637C87.4474 103.569 86.8721 102.716 86.0459 102.078ZM80.6463 104.35C81.3987 103.489 82.3945 103.058 83.6338 103.058C84.4304 103.058 85.1386 103.258 85.7582 103.656C86.3926 104.039 86.8868 104.597 87.2409 105.331C87.595 106.064 87.772 106.909 87.772 107.866C87.772 108.823 87.595 109.668 87.2409 110.401C86.8868 111.119 86.3926 111.677 85.7582 112.076C85.1386 112.474 84.4304 112.674 83.6338 112.674C82.3945 112.674 81.3987 112.251 80.6463 111.406C79.9086 110.545 79.5398 109.365 79.5398 107.866C79.5398 106.367 79.9086 105.195 80.6463 104.35Z" fill="url(#paint36_linear)"/>
<defs>
<linearGradient id="paint0_linear" x1="-49.3186" y1="-99.1041" x2="384.141" y2="301.934" gradientUnits="userSpaceOnUse">
<stop stop-color="#326EE6"/>
<stop offset="1" stop-color="white" stop-opacity="0"/>
</linearGradient>
<linearGradient id="paint1_linear" x1="-49.3186" y1="-99.1041" x2="384.141" y2="301.934" gradientUnits="userSpaceOnUse">
<stop stop-color="#326EE6"/>
<stop offset="1" stop-color="white" stop-opacity="0"/>
</linearGradient>
<linearGradient id="paint2_linear" x1="-49.3186" y1="-99.1041" x2="384.141" y2="301.934" gradientUnits="userSpaceOnUse">
<stop stop-color="#326EE6"/>
<stop offset="1" stop-color="white" stop-opacity="0"/>
</linearGradient>
<linearGradient id="paint3_linear" x1="-49.3186" y1="-99.1041" x2="384.141" y2="301.934" gradientUnits="userSpaceOnUse">
<stop stop-color="#326EE6"/>
<stop offset="1" stop-color="white" stop-opacity="0"/>
</linearGradient>
<linearGradient id="paint4_linear" x1="-49.3186" y1="-99.1041" x2="384.141" y2="301.934" gradientUnits="userSpaceOnUse">
<stop stop-color="#326EE6"/>
<stop offset="1" stop-color="white" stop-opacity="0"/>
</linearGradient>
<linearGradient id="paint5_linear" x1="-49.3186" y1="-99.1041" x2="384.141" y2="301.934" gradientUnits="userSpaceOnUse">
<stop stop-color="#326EE6"/>
<stop offset="1" stop-color="white" stop-opacity="0"/>
</linearGradient>
<linearGradient id="paint6_linear" x1="-49.3186" y1="-99.1041" x2="384.141" y2="301.934" gradientUnits="userSpaceOnUse">
<stop stop-color="#326EE6"/>
<stop offset="1" stop-color="white" stop-opacity="0"/>
</linearGradient>
<linearGradient id="paint7_linear" x1="-49.3186" y1="-99.1041" x2="384.141" y2="301.934" gradientUnits="userSpaceOnUse">
<stop stop-color="#326EE6"/>
<stop offset="1" stop-color="white" stop-opacity="0"/>
</linearGradient>
<linearGradient id="paint8_linear" x1="-49.3186" y1="-99.1041" x2="384.141" y2="301.934" gradientUnits="userSpaceOnUse">
<stop stop-color="#326EE6"/>
<stop offset="1" stop-color="white" stop-opacity="0"/>
</linearGradient>
<linearGradient id="paint9_linear" x1="-49.3186" y1="-99.1041" x2="384.141" y2="301.934" gradientUnits="userSpaceOnUse">
<stop stop-color="#326EE6"/>
<stop offset="1" stop-color="white" stop-opacity="0"/>
</linearGradient>
<linearGradient id="paint10_linear" x1="-49.3186" y1="-99.1041" x2="384.141" y2="301.934" gradientUnits="userSpaceOnUse">
<stop stop-color="#326EE6"/>
<stop offset="1" stop-color="white" stop-opacity="0"/>
</linearGradient>
<linearGradient id="paint11_linear" x1="-49.3186" y1="-99.1041" x2="384.141" y2="301.934" gradientUnits="userSpaceOnUse">
<stop stop-color="#326EE6"/>
<stop offset="1" stop-color="white" stop-opacity="0"/>
</linearGradient>
<linearGradient id="paint12_linear" x1="-49.3186" y1="-99.1041" x2="384.141" y2="301.934" gradientUnits="userSpaceOnUse">
<stop stop-color="#326EE6"/>
<stop offset="1" stop-color="white" stop-opacity="0"/>
</linearGradient>
<linearGradient id="paint13_linear" x1="-49.3186" y1="-99.1041" x2="384.141" y2="301.934" gradientUnits="userSpaceOnUse">
<stop stop-color="#326EE6"/>
<stop offset="1" stop-color="white" stop-opacity="0"/>
</linearGradient>
<linearGradient id="paint14_linear" x1="-49.3186" y1="-99.1041" x2="384.141" y2="301.934" gradientUnits="userSpaceOnUse">
<stop stop-color="#326EE6"/>
<stop offset="1" stop-color="white" stop-opacity="0"/>
</linearGradient>
<linearGradient id="paint15_linear" x1="-49.3186" y1="-99.1041" x2="384.141" y2="301.934" gradientUnits="userSpaceOnUse">
<stop stop-color="#326EE6"/>
<stop offset="1" stop-color="white" stop-opacity="0"/>
</linearGradient>
<linearGradient id="paint16_linear" x1="-49.3186" y1="-99.1041" x2="384.141" y2="301.934" gradientUnits="userSpaceOnUse">
<stop stop-color="#326EE6"/>
<stop offset="1" stop-color="white" stop-opacity="0"/>
</linearGradient>
<linearGradient id="paint17_linear" x1="-49.3186" y1="-99.1041" x2="384.141" y2="301.934" gradientUnits="userSpaceOnUse">
<stop stop-color="#326EE6"/>
<stop offset="1" stop-color="white" stop-opacity="0"/>
</linearGradient>
<linearGradient id="paint18_linear" x1="-49.3186" y1="-99.1041" x2="384.141" y2="301.934" gradientUnits="userSpaceOnUse">
<stop stop-color="#326EE6"/>
<stop offset="1" stop-color="white" stop-opacity="0"/>
</linearGradient>
<linearGradient id="paint19_linear" x1="-49.3186" y1="-99.1041" x2="384.141" y2="301.934" gradientUnits="userSpaceOnUse">
<stop stop-color="#326EE6"/>
<stop offset="1" stop-color="white" stop-opacity="0"/>
</linearGradient>
<linearGradient id="paint20_linear" x1="-49.3186" y1="-99.1041" x2="384.141" y2="301.934" gradientUnits="userSpaceOnUse">
<stop stop-color="#326EE6"/>
<stop offset="1" stop-color="white" stop-opacity="0"/>
</linearGradient>
<linearGradient id="paint21_linear" x1="-49.3186" y1="-99.1041" x2="384.141" y2="301.934" gradientUnits="userSpaceOnUse">
<stop stop-color="#326EE6"/>
<stop offset="1" stop-color="white" stop-opacity="0"/>
</linearGradient>
<linearGradient id="paint22_linear" x1="-49.3186" y1="-99.1041" x2="384.141" y2="301.934" gradientUnits="userSpaceOnUse">
<stop stop-color="#326EE6"/>
<stop offset="1" stop-color="white" stop-opacity="0"/>
</linearGradient>
<linearGradient id="paint23_linear" x1="-49.3186" y1="-99.1041" x2="384.141" y2="301.934" gradientUnits="userSpaceOnUse">
<stop stop-color="#326EE6"/>
<stop offset="1" stop-color="white" stop-opacity="0"/>
</linearGradient>
<linearGradient id="paint24_linear" x1="-49.3186" y1="-99.1041" x2="384.141" y2="301.934" gradientUnits="userSpaceOnUse">
<stop stop-color="#326EE6"/>
<stop offset="1" stop-color="white" stop-opacity="0"/>
</linearGradient>
<linearGradient id="paint25_linear" x1="-49.3186" y1="-99.1041" x2="384.141" y2="301.934" gradientUnits="userSpaceOnUse">
<stop stop-color="#326EE6"/>
<stop offset="1" stop-color="white" stop-opacity="0"/>
</linearGradient>
<linearGradient id="paint26_linear" x1="-49.3186" y1="-99.1041" x2="384.141" y2="301.934" gradientUnits="userSpaceOnUse">
<stop stop-color="#326EE6"/>
<stop offset="1" stop-color="white" stop-opacity="0"/>
</linearGradient>
<linearGradient id="paint27_linear" x1="-49.3186" y1="-99.1041" x2="384.141" y2="301.934" gradientUnits="userSpaceOnUse">
<stop stop-color="#326EE6"/>
<stop offset="1" stop-color="white" stop-opacity="0"/>
</linearGradient>
<linearGradient id="paint28_linear" x1="-49.3186" y1="-99.1041" x2="384.141" y2="301.934" gradientUnits="userSpaceOnUse">
<stop stop-color="#326EE6"/>
<stop offset="1" stop-color="white" stop-opacity="0"/>
</linearGradient>
<linearGradient id="paint29_linear" x1="-49.3186" y1="-99.1041" x2="384.141" y2="301.934" gradientUnits="userSpaceOnUse">
<stop stop-color="#326EE6"/>
<stop offset="1" stop-color="white" stop-opacity="0"/>
</linearGradient>
<linearGradient id="paint30_linear" x1="-49.3186" y1="-99.1041" x2="384.141" y2="301.934" gradientUnits="userSpaceOnUse">
<stop stop-color="#326EE6"/>
<stop offset="1" stop-color="white" stop-opacity="0"/>
</linearGradient>
<linearGradient id="paint31_linear" x1="-49.3186" y1="-99.1041" x2="384.141" y2="301.934" gradientUnits="userSpaceOnUse">
<stop stop-color="#326EE6"/>
<stop offset="1" stop-color="white" stop-opacity="0"/>
</linearGradient>
<linearGradient id="paint32_linear" x1="-49.3186" y1="-99.1041" x2="384.141" y2="301.934" gradientUnits="userSpaceOnUse">
<stop stop-color="#326EE6"/>
<stop offset="1" stop-color="white" stop-opacity="0"/>
</linearGradient>
<linearGradient id="paint33_linear" x1="-49.3186" y1="-99.1041" x2="384.141" y2="301.934" gradientUnits="userSpaceOnUse">
<stop stop-color="#326EE6"/>
<stop offset="1" stop-color="white" stop-opacity="0"/>
</linearGradient>
<linearGradient id="paint34_linear" x1="-49.3186" y1="-99.1041" x2="384.141" y2="301.934" gradientUnits="userSpaceOnUse">
<stop stop-color="#326EE6"/>
<stop offset="1" stop-color="white" stop-opacity="0"/>
</linearGradient>
<linearGradient id="paint35_linear" x1="-49.3186" y1="-99.1041" x2="384.141" y2="301.934" gradientUnits="userSpaceOnUse">
<stop stop-color="#326EE6"/>
<stop offset="1" stop-color="white" stop-opacity="0"/>
</linearGradient>
<linearGradient id="paint36_linear" x1="-49.3186" y1="-99.1041" x2="384.141" y2="301.934" gradientUnits="userSpaceOnUse">
<stop stop-color="#326EE6"/>
<stop offset="1" stop-color="white" stop-opacity="0"/>
</linearGradient>
</defs>
</svg>
