<svg width="512" height="512" viewBox="0 0 512 512" fill="none" xmlns="http://www.w3.org/2000/svg">
<g clip-path="url(#clip0)">
<path d="M500.907 287.573C507.733 280.747 512 271.36 512 261.12V247.467C512 242.347 508.587 238.934 503.467 238.934H480.427L321.707 175.787C317.44 174.08 312.32 176.64 310.614 180.907C308.908 185.174 311.467 190.294 315.734 192L433.702 238.933H81.323L228.079 184.579C235.513 196.79 248.929 204.8 264.534 204.8C288.427 204.8 307.201 186.027 307.201 162.133C307.201 141.653 292.694 124.586 273.068 120.32V110.108C292.749 106.248 307.201 89.23 307.201 68.267V8.533C307.201 3.413 303.788 0 298.668 0C293.548 0 290.135 3.413 290.135 8.533V33.93C283.045 28.68 274.211 25.6 264.535 25.6C254.859 25.6 246.025 28.68 238.935 33.93V8.533C238.935 3.413 235.522 0 230.402 0C225.282 0 221.869 3.413 221.869 8.533V68.266C221.869 89.229 236.321 106.247 256.002 110.107V128C256.002 133.12 259.415 136.533 264.535 136.533C279.042 136.533 290.135 147.626 290.135 162.133C290.135 176.64 279.042 187.733 264.535 187.733C256.327 187.733 249.213 184.179 244.582 178.467L264.404 171.126L269.655 173.227C271.362 174.08 272.215 174.08 273.068 174.08C276.481 174.08 279.895 172.373 280.748 168.107C282.455 163.84 279.895 158.72 275.628 157.014L269.775 154.673C268.261 153.633 266.458 153.045 264.65 153.076C264.613 153.074 264.575 153.076 264.538 153.075C264.498 153.076 264.458 153.074 264.418 153.076C262.721 153.047 261.031 153.565 259.577 154.489L238.934 162.135C238.934 157.015 235.521 153.602 230.401 153.602C225.281 153.602 221.868 157.015 221.868 162.135C221.868 164.232 222.021 166.287 222.301 168.296L31.573 238.933H8.533C3.413 238.933 0 242.346 0 247.466V261.119C0 271.359 4.267 280.746 11.093 287.572C14.506 290.985 17.066 296.959 17.066 302.079V448.852C17.066 454.825 14.506 459.092 11.093 463.359C4.267 470.187 0 479.573 0 489.813V503.466C0 508.586 3.413 511.999 8.533 511.999H503.466C508.586 511.999 511.999 508.586 511.999 503.466V489.813C511.999 479.573 507.732 470.186 500.906 463.36C496.639 459.093 494.933 453.973 494.933 448.853V302.08C494.933 296.107 497.493 291.84 500.907 287.573ZM238.933 68.267C238.933 53.76 250.026 42.667 264.533 42.667C279.04 42.667 290.133 53.76 290.133 68.267C290.133 82.774 279.04 93.867 264.533 93.867C250.027 93.867 238.933 82.773 238.933 68.267ZM488.96 475.307C493.227 479.574 494.933 484.694 494.933 489.814V494.934H17.067V489.814C17.067 483.841 19.627 479.574 23.04 475.307C29.867 468.48 34.133 459.094 34.133 448.854V302.08C34.133 292.693 29.866 282.453 23.04 275.627C19.627 271.36 17.067 266.24 17.067 261.12V256H494.934V261.12C494.934 266.24 492.374 271.36 488.961 275.627C482.134 282.454 477.868 291.84 477.868 302.08V448.853C477.867 459.093 482.133 468.48 488.96 475.307Z" fill="#909090"/>
<path d="M194.448 471H190.632C188.808 471 187.392 470.448 186.384 469.344C185.424 468.192 184.944 466.536 184.944 464.376V460.92C184.944 460.68 185.016 460.464 185.16 460.272C185.304 460.032 185.496 459.912 185.736 459.912H186.312C186.936 459.912 187.248 460.248 187.248 460.92V464.304C187.248 467.04 188.376 468.408 190.632 468.408H194.448C196.8 468.408 197.976 467.04 197.976 464.304V442.992C197.976 442.752 198.024 442.512 198.12 442.272C198.264 442.032 198.504 441.912 198.84 441.912H199.416C200.04 441.912 200.352 442.248 200.352 442.92V464.376C200.352 466.536 199.824 468.192 198.768 469.344C197.76 470.448 196.32 471 194.448 471ZM218.149 471H217.717C217.381 471 217.069 470.688 216.781 470.064C215.485 470.688 214.405 471 213.541 471H210.949C209.317 471 208.045 470.472 207.133 469.416C206.221 468.36 205.765 466.92 205.765 465.096V455.736C205.765 453.912 206.221 452.472 207.133 451.416C208.045 450.36 209.317 449.832 210.949 449.832H218.149C218.725 449.832 219.013 450.12 219.013 450.696V470.064C219.013 470.688 218.725 471 218.149 471ZM217.069 454.152C217.069 453.96 217.021 453.672 216.925 453.288C216.829 452.952 216.661 452.688 216.421 452.496C216.181 452.304 215.797 452.16 215.269 452.064H210.949C208.837 452.064 207.781 453.288 207.781 455.736V465.024C207.781 467.52 208.837 468.768 210.949 468.768H213.469C215.821 468.768 216.997 467.592 216.997 465.24C216.997 461.976 216.997 459.6 216.997 458.112C217.045 456.624 217.069 455.616 217.069 455.088V454.152ZM231.605 470.28C231.413 470.76 231.148 471 230.812 471H229.949C229.709 471 229.517 470.928 229.373 470.784C229.277 470.592 229.205 470.448 229.157 470.352L223.541 450.984C223.397 450.216 223.637 449.832 224.261 449.832H224.837C225.077 449.832 225.245 449.904 225.341 450.048C225.485 450.192 225.581 450.312 225.629 450.408L230.381 467.472C231.005 465.072 231.581 462.936 232.109 461.064C232.685 459.192 233.189 457.488 233.621 455.952L235.277 450.408C235.277 450.36 235.325 450.264 235.421 450.12C235.517 449.928 235.685 449.832 235.925 449.832H236.501C237.125 449.832 237.365 450.216 237.221 450.984L231.605 470.28ZM253.868 471H253.436C253.1 471 252.788 470.688 252.5 470.064C251.204 470.688 250.124 471 249.26 471H246.668C245.036 471 243.764 470.472 242.852 469.416C241.94 468.36 241.484 466.92 241.484 465.096V455.736C241.484 453.912 241.94 452.472 242.852 451.416C243.764 450.36 245.036 449.832 246.668 449.832H253.868C254.444 449.832 254.732 450.12 254.732 450.696V470.064C254.732 470.688 254.444 471 253.868 471ZM252.788 454.152C252.788 453.96 252.74 453.672 252.644 453.288C252.548 452.952 252.38 452.688 252.14 452.496C251.9 452.304 251.516 452.16 250.988 452.064H246.668C244.556 452.064 243.5 453.288 243.5 455.736V465.024C243.5 467.52 244.556 468.768 246.668 468.768H249.188C251.54 468.768 252.716 467.592 252.716 465.24C252.716 461.976 252.716 459.6 252.716 458.112C252.764 456.624 252.788 455.616 252.788 455.088V454.152ZM266.603 471H260.699C260.219 471 259.979 470.712 259.979 470.136V469.632C259.979 469.056 260.219 468.768 260.699 468.768H266.603C267.707 468.768 268.499 468.528 268.979 468.048C269.459 467.568 269.699 466.92 269.699 466.104V465.024C269.699 464.112 269.579 463.44 269.339 463.008C269.099 462.528 268.595 462.12 267.827 461.784L263.291 460.056C261.899 459.528 260.963 458.88 260.483 458.112C260.003 457.296 259.763 456.192 259.763 454.8C259.763 451.488 261.347 449.832 264.515 449.832H270.059C270.299 449.832 270.491 449.928 270.635 450.12C270.779 450.264 270.851 450.456 270.851 450.696V451.2C270.851 451.776 270.587 452.064 270.059 452.064H264.515C263.459 452.064 262.739 452.304 262.355 452.784C262.019 453.216 261.851 453.696 261.851 454.224V455.304C261.851 455.976 261.971 456.48 262.211 456.816C262.499 457.152 263.051 457.488 263.867 457.824L268.403 459.696C269.651 460.224 270.491 460.992 270.923 462C271.403 462.96 271.643 464.256 271.643 465.888C271.643 467.712 271.211 469.032 270.347 469.848C269.531 470.616 268.283 471 266.603 471ZM285.729 471H280.977C279.441 471 278.217 470.472 277.305 469.416C276.393 468.36 275.937 466.92 275.937 465.096V455.736C275.937 453.912 276.393 452.472 277.305 451.416C278.217 450.36 279.441 449.832 280.977 449.832H285.729C286.257 449.832 286.521 450.12 286.521 450.696V451.2C286.521 451.488 286.425 451.704 286.233 451.848C286.089 451.992 285.921 452.064 285.729 452.064H280.977C278.961 452.064 277.953 453.288 277.953 455.736V465.024C277.953 467.52 278.961 468.768 280.977 468.768H285.729C286.257 468.768 286.521 469.056 286.521 469.632V470.136C286.521 470.472 286.425 470.712 286.233 470.856C286.089 470.952 285.921 471 285.729 471ZM296.745 452.064H295.449C294.489 452.064 293.745 452.448 293.217 453.216C292.689 453.936 292.425 454.896 292.425 456.096V470.064C292.425 470.688 292.185 471 291.705 471H291.273C290.889 471 290.697 470.688 290.697 470.064V450.696C290.697 450.12 290.889 449.832 291.273 449.832H291.705C291.897 449.832 292.041 449.88 292.137 449.976C292.233 450.072 292.377 450.36 292.569 450.84C293.193 450.504 293.697 450.264 294.081 450.12C294.513 449.928 294.993 449.832 295.521 449.832H296.745C296.937 449.832 297.105 449.928 297.249 450.12C297.393 450.264 297.465 450.456 297.465 450.696V451.2C297.465 451.776 297.225 452.064 296.745 452.064ZM304.046 447.096H302.03C301.934 447.096 301.91 446.976 301.958 446.736C302.054 446.496 302.102 446.28 302.102 446.088V442.848C302.102 442.608 302.054 442.392 301.958 442.2C301.91 442.008 301.934 441.912 302.03 441.912H304.046C304.142 441.912 304.166 442.008 304.118 442.2C304.118 442.392 304.118 442.608 304.118 442.848V446.088C304.118 446.28 304.118 446.496 304.118 446.736C304.166 446.976 304.142 447.096 304.046 447.096ZM304.046 471H302.03C301.934 471 301.91 470.904 301.958 470.712C302.054 470.472 302.102 470.256 302.102 470.064V450.408C302.102 450.168 302.054 449.952 301.958 449.76C301.91 449.568 301.934 449.472 302.03 449.472H304.046C304.142 449.472 304.166 449.568 304.118 449.76C304.118 449.952 304.118 450.168 304.118 450.408V470.064C304.118 470.256 304.118 470.472 304.118 470.712C304.166 470.904 304.142 471 304.046 471ZM318.334 471.288H315.742C315.214 471.288 314.71 471.216 314.23 471.072C313.798 470.928 313.174 470.616 312.358 470.136V476.472C312.358 476.712 312.286 476.928 312.142 477.12C311.998 477.312 311.806 477.408 311.566 477.408H311.062C310.822 477.408 310.63 477.312 310.486 477.12C310.39 476.928 310.342 476.712 310.342 476.472V450.696C310.342 450.456 310.39 450.264 310.486 450.12C310.63 449.928 310.822 449.832 311.062 449.832H311.566C311.71 449.832 311.83 449.904 311.926 450.048C312.07 450.144 312.262 450.384 312.502 450.768C313.702 450.144 314.782 449.832 315.742 449.832H318.334C319.918 449.832 321.19 450.336 322.15 451.344C323.11 452.352 323.59 453.84 323.59 455.808V465.312C323.59 467.328 323.11 468.84 322.15 469.848C321.19 470.808 319.918 471.288 318.334 471.288ZM321.502 455.808C321.502 453.36 320.446 452.136 318.334 452.136H315.742C313.486 452.136 312.358 453.288 312.358 455.592V465.456C312.358 467.76 313.486 468.912 315.742 468.912H318.334C320.446 468.912 321.502 467.688 321.502 465.24V455.808ZM337.097 471H335.873C334.289 471 333.017 470.472 332.057 469.416C331.097 468.36 330.617 466.92 330.617 465.096V451.92H328.601C328.121 451.92 327.881 451.632 327.881 451.056V450.552C327.881 449.928 328.121 449.616 328.601 449.616H330.617V446.808C330.617 446.568 330.689 446.352 330.833 446.16C330.977 445.92 331.169 445.8 331.409 445.8H331.913C332.153 445.8 332.321 445.92 332.417 446.16C332.561 446.352 332.633 446.568 332.633 446.808V449.616H336.737C337.265 449.616 337.529 449.928 337.529 450.552V451.056C337.529 451.392 337.433 451.632 337.241 451.776C337.097 451.872 336.929 451.92 336.737 451.92H332.633V465.096C332.633 467.496 333.713 468.696 335.873 468.696H337.097C337.625 468.696 337.889 468.984 337.889 469.56V470.136C337.889 470.472 337.793 470.712 337.601 470.856C337.457 470.952 337.289 471 337.097 471Z" fill="black"/>
<path d="M221.032 338H216.64C214.816 338 213.4 337.448 212.392 336.344C211.432 335.192 210.952 333.536 210.952 331.376V315.536C210.952 313.472 211.432 311.864 212.392 310.712C213.4 309.512 214.816 308.912 216.64 308.912H221.032C222.856 308.912 224.272 309.512 225.28 310.712C226.288 311.864 226.792 313.472 226.792 315.536V317.48C226.792 318.296 226.48 318.704 225.856 318.704H225.28C224.944 318.704 224.704 318.584 224.56 318.344C224.464 318.104 224.416 317.816 224.416 317.48V315.536C224.416 312.848 223.288 311.504 221.032 311.504H216.64C214.432 311.504 213.328 312.848 213.328 315.536V331.304C213.328 334.04 214.432 335.408 216.64 335.408H221.032C223.288 335.408 224.416 334.04 224.416 331.304V325.184H219.592C219.064 325.184 218.8 324.848 218.8 324.176V323.672C218.8 323.432 218.872 323.192 219.016 322.952C219.16 322.712 219.352 322.592 219.592 322.592H225.424C226.336 322.592 226.792 323.096 226.792 324.104V331.376C226.792 333.536 226.288 335.192 225.28 336.344C224.272 337.448 222.856 338 221.032 338ZM240.52 338H237.496C235.864 338 234.592 337.472 233.68 336.416C232.768 335.36 232.312 333.92 232.312 332.096V322.736C232.312 320.912 232.768 319.472 233.68 318.416C234.592 317.36 235.864 316.832 237.496 316.832H240.52C242.104 316.832 243.376 317.36 244.336 318.416C245.296 319.472 245.776 320.912 245.776 322.736V332.096C245.776 333.92 245.296 335.36 244.336 336.416C243.376 337.472 242.104 338 240.52 338ZM243.688 322.736C243.688 320.288 242.632 319.064 240.52 319.064H237.496C235.384 319.064 234.328 320.288 234.328 322.736V332.024C234.328 334.52 235.384 335.768 237.496 335.768H240.52C242.632 335.768 243.688 334.52 243.688 332.024V322.736Z" fill="black"/>
<path d="M210 342H249V350H210V342Z" fill="#57A4FF"/>
<path d="M91.448 303H87.632C85.808 303 84.392 302.448 83.384 301.344C82.424 300.192 81.944 298.536 81.944 296.376V292.92C81.944 292.68 82.016 292.464 82.16 292.272C82.304 292.032 82.496 291.912 82.736 291.912H83.312C83.936 291.912 84.248 292.248 84.248 292.92V296.304C84.248 299.04 85.376 300.408 87.632 300.408H91.448C93.8 300.408 94.976 299.04 94.976 296.304V274.992C94.976 274.752 95.024 274.512 95.12 274.272C95.264 274.032 95.504 273.912 95.84 273.912H96.416C97.04 273.912 97.352 274.248 97.352 274.92V296.376C97.352 298.536 96.824 300.192 95.768 301.344C94.76 302.448 93.32 303 91.448 303ZM115.149 303H114.717C114.381 303 114.069 302.688 113.781 302.064C112.485 302.688 111.405 303 110.541 303H107.949C106.317 303 105.045 302.472 104.133 301.416C103.221 300.36 102.765 298.92 102.765 297.096V287.736C102.765 285.912 103.221 284.472 104.133 283.416C105.045 282.36 106.317 281.832 107.949 281.832H115.149C115.725 281.832 116.013 282.12 116.013 282.696V302.064C116.013 302.688 115.725 303 115.149 303ZM114.069 286.152C114.069 285.96 114.021 285.672 113.925 285.288C113.829 284.952 113.661 284.688 113.421 284.496C113.181 284.304 112.797 284.16 112.269 284.064H107.949C105.837 284.064 104.781 285.288 104.781 287.736V297.024C104.781 299.52 105.837 300.768 107.949 300.768H110.469C112.821 300.768 113.997 299.592 113.997 297.24C113.997 293.976 113.997 291.6 113.997 290.112C114.045 288.624 114.069 287.616 114.069 287.088V286.152ZM128.605 302.28C128.413 302.76 128.148 303 127.812 303H126.949C126.709 303 126.517 302.928 126.373 302.784C126.277 302.592 126.205 302.448 126.157 302.352L120.541 282.984C120.397 282.216 120.637 281.832 121.261 281.832H121.837C122.077 281.832 122.245 281.904 122.341 282.048C122.485 282.192 122.581 282.312 122.629 282.408L127.381 299.472C128.005 297.072 128.581 294.936 129.109 293.064C129.685 291.192 130.189 289.488 130.621 287.952L132.277 282.408C132.277 282.36 132.325 282.264 132.421 282.12C132.517 281.928 132.685 281.832 132.925 281.832H133.501C134.125 281.832 134.365 282.216 134.221 282.984L128.605 302.28ZM150.868 303H150.436C150.1 303 149.788 302.688 149.5 302.064C148.204 302.688 147.124 303 146.26 303H143.668C142.036 303 140.764 302.472 139.852 301.416C138.94 300.36 138.484 298.92 138.484 297.096V287.736C138.484 285.912 138.94 284.472 139.852 283.416C140.764 282.36 142.036 281.832 143.668 281.832H150.868C151.444 281.832 151.732 282.12 151.732 282.696V302.064C151.732 302.688 151.444 303 150.868 303ZM149.788 286.152C149.788 285.96 149.74 285.672 149.644 285.288C149.548 284.952 149.38 284.688 149.14 284.496C148.9 284.304 148.516 284.16 147.988 284.064H143.668C141.556 284.064 140.5 285.288 140.5 287.736V297.024C140.5 299.52 141.556 300.768 143.668 300.768H146.188C148.54 300.768 149.716 299.592 149.716 297.24C149.716 293.976 149.716 291.6 149.716 290.112C149.764 288.624 149.788 287.616 149.788 287.088V286.152Z" fill="black"/>
<path d="M331.032 375.344H323.76V384.992C323.76 385.232 323.688 385.472 323.544 385.712C323.4 385.904 323.16 386 322.824 386H322.248C321.624 386 321.312 385.664 321.312 384.992V357.992C321.312 357.272 321.624 356.912 322.248 356.912H331.032C332.856 356.912 334.272 357.512 335.28 358.712C336.288 359.864 336.792 361.472 336.792 363.536V368.72C336.792 370.736 336.288 372.344 335.28 373.544C334.272 374.744 332.856 375.344 331.032 375.344ZM334.488 363.536C334.488 360.848 333.336 359.504 331.032 359.504H323.76V372.68H331.032C332.136 372.68 332.976 372.368 333.552 371.744C334.176 371.072 334.488 370.04 334.488 368.648V363.536ZM350.453 384.488C350.069 385.688 349.733 386.648 349.445 387.368C349.157 388.136 348.893 388.712 348.653 389.096C347.549 391.112 345.965 392.12 343.901 392.12H342.965C342.341 392.12 342.029 391.808 342.029 391.184V390.752C342.029 390.128 342.341 389.816 342.965 389.816H343.901C345.149 389.816 346.061 389.336 346.637 388.376C347.213 387.416 347.669 386.384 348.005 385.28C346.997 382.4 345.917 379.28 344.765 375.92C343.661 372.512 342.557 369.176 341.453 365.912C341.357 365.672 341.357 365.432 341.453 365.192C341.597 364.952 341.813 364.832 342.101 364.832H342.677C343.013 364.832 343.253 364.976 343.397 365.264C343.445 365.504 343.493 365.624 343.541 365.624L348.941 382.112L352.541 371.096L354.341 365.552C354.533 365.072 354.845 364.832 355.277 364.832H355.781C356.165 364.832 356.381 364.976 356.429 365.264C356.477 365.552 356.501 365.816 356.501 366.056L350.453 384.488ZM369.019 386H367.795C366.211 386 364.939 385.472 363.979 384.416C363.019 383.36 362.539 381.92 362.539 380.096V366.92H360.523C360.043 366.92 359.803 366.632 359.803 366.056V365.552C359.803 364.928 360.043 364.616 360.523 364.616H362.539V361.808C362.539 361.568 362.611 361.352 362.755 361.16C362.899 360.92 363.091 360.8 363.331 360.8H363.835C364.075 360.8 364.243 360.92 364.339 361.16C364.483 361.352 364.555 361.568 364.555 361.808V364.616H368.659C369.187 364.616 369.451 364.928 369.451 365.552V366.056C369.451 366.392 369.355 366.632 369.163 366.776C369.019 366.872 368.851 366.92 368.659 366.92H364.555V380.096C364.555 382.496 365.635 383.696 367.795 383.696H369.019C369.547 383.696 369.811 383.984 369.811 384.56V385.136C369.811 385.472 369.715 385.712 369.523 385.856C369.379 385.952 369.211 386 369.019 386ZM386.628 386H386.124C385.644 386 385.404 385.688 385.404 385.064V370.52C385.404 368.024 384.348 366.776 382.236 366.776H379.644C377.388 366.776 376.26 367.976 376.26 370.376V385.064C376.26 385.688 375.996 386 375.468 386H374.964C374.724 386 374.532 385.904 374.388 385.712C374.292 385.52 374.244 385.304 374.244 385.064V357.776C374.244 357.152 374.484 356.84 374.964 356.84H375.468C375.996 356.84 376.26 357.152 376.26 357.776V365.408C376.98 365.024 377.604 364.784 378.132 364.688C378.708 364.544 379.212 364.472 379.644 364.472H382.236C383.82 364.472 385.092 365 386.052 366.056C387.012 367.064 387.492 368.552 387.492 370.52V385.064C387.492 385.688 387.204 386 386.628 386ZM400.793 386H397.769C396.137 386 394.865 385.472 393.953 384.416C393.041 383.36 392.585 381.92 392.585 380.096V370.736C392.585 368.912 393.041 367.472 393.953 366.416C394.865 365.36 396.137 364.832 397.769 364.832H400.793C402.377 364.832 403.649 365.36 404.609 366.416C405.569 367.472 406.049 368.912 406.049 370.736V380.096C406.049 381.92 405.569 383.36 404.609 384.416C403.649 385.472 402.377 386 400.793 386ZM403.961 370.736C403.961 368.288 402.905 367.064 400.793 367.064H397.769C395.657 367.064 394.601 368.288 394.601 370.736V380.024C394.601 382.52 395.657 383.768 397.769 383.768H400.793C402.905 383.768 403.961 382.52 403.961 380.024V370.736ZM423.893 386H423.389C422.909 386 422.669 385.688 422.669 385.064V370.736C422.669 368.288 421.613 367.064 419.501 367.064H416.909C414.653 367.064 413.525 368.24 413.525 370.592V385.064C413.525 385.688 413.261 386 412.733 386H412.229C411.749 386 411.509 385.688 411.509 385.064V365.696C411.509 365.456 411.557 365.264 411.653 365.12C411.797 364.928 411.989 364.832 412.229 364.832H412.733C412.877 364.832 412.997 364.904 413.093 365.048C413.237 365.144 413.429 365.384 413.669 365.768C414.773 365.144 415.853 364.832 416.909 364.832H419.501C421.085 364.832 422.357 365.36 423.317 366.416C424.277 367.472 424.757 368.912 424.757 370.736V385.064C424.757 385.688 424.469 386 423.893 386Z" fill="black"/>
<path d="M73.04 377H67.928C66.056 377 64.616 376.448 63.608 375.344C62.6 374.192 62.096 372.536 62.096 370.376V354.536C62.096 352.52 62.6 350.912 63.608 349.712C64.664 348.512 66.104 347.912 67.928 347.912H73.04C74.864 347.912 76.28 348.512 77.288 349.712C78.344 350.912 78.872 352.52 78.872 354.536V356.48C78.872 356.816 78.8 357.104 78.656 357.344C78.512 357.584 78.272 357.704 77.936 357.704H77.432C76.808 357.704 76.496 357.296 76.496 356.48V354.536C76.496 351.848 75.344 350.504 73.04 350.504H67.928C65.672 350.504 64.544 351.848 64.544 354.536V370.304C64.544 373.04 65.672 374.408 67.928 374.408H73.04C75.344 374.408 76.496 373.04 76.496 370.304V368.36C76.496 367.64 76.808 367.28 77.432 367.28H77.936C78.224 367.28 78.44 367.4 78.584 367.64C78.776 367.88 78.872 368.12 78.872 368.36V370.376C78.872 372.536 78.368 374.192 77.36 375.344C76.352 376.448 74.912 377 73.04 377ZM110.292 356.48H106.332L103.524 366.344H107.196C107.436 366.344 107.652 366.44 107.844 366.632C108.084 366.776 108.204 366.992 108.204 367.28V367.928C108.204 368.264 108.084 368.528 107.844 368.72C107.652 368.864 107.436 368.936 107.196 368.936H102.876L100.932 375.992C100.836 376.232 100.692 376.472 100.5 376.712C100.356 376.904 100.116 377 99.7796 377H99.3476C98.8196 377 98.5076 376.808 98.4116 376.424C98.3636 376.04 98.3876 375.728 98.4836 375.488L100.284 368.936H92.2916L90.3476 375.992C90.2516 376.232 90.1076 376.472 89.9156 376.712C89.7236 376.904 89.5076 377 89.2676 377H88.6916C88.2596 377 87.9956 376.88 87.8996 376.64C87.8036 376.352 87.8036 375.896 87.8996 375.272C88.0436 374.6 88.2596 373.76 88.5476 372.752C88.8836 371.744 89.2676 370.472 89.6996 368.936H86.3876C85.7156 368.936 85.3796 368.6 85.3796 367.928V367.28C85.3796 366.656 85.7156 366.344 86.3876 366.344H90.3476L93.1556 356.48H89.4836C88.8596 356.48 88.5476 356.144 88.5476 355.472V354.824C88.5476 354.152 88.8596 353.816 89.4836 353.816H93.8036L95.7476 346.688C95.8436 346.448 95.9876 346.232 96.1796 346.04C96.4196 345.848 96.6836 345.752 96.9716 345.752H97.3316C97.8116 345.752 98.0996 345.944 98.1956 346.328C98.2916 346.712 98.2916 347 98.1956 347.192L96.3956 353.816H104.388L106.332 346.688C106.428 346.448 106.572 346.232 106.764 346.04C106.956 345.848 107.196 345.752 107.484 345.752H107.844C108.228 345.752 108.468 345.848 108.564 346.04C108.708 346.232 108.78 346.52 108.78 346.904V347.336L106.98 353.816H110.292C111.012 353.816 111.372 354.152 111.372 354.824V355.472C111.372 356.144 111.012 356.48 110.292 356.48ZM95.7476 356.48L93.0116 366.344H100.932L103.668 356.48H95.7476Z" fill="black"/>
<path d="M393.04 463H387.928C386.056 463 384.616 462.448 383.608 461.344C382.6 460.192 382.096 458.536 382.096 456.376V440.536C382.096 438.52 382.6 436.912 383.608 435.712C384.664 434.512 386.104 433.912 387.928 433.912H393.04C394.864 433.912 396.28 434.512 397.288 435.712C398.344 436.912 398.872 438.52 398.872 440.536V442.48C398.872 442.816 398.8 443.104 398.656 443.344C398.512 443.584 398.272 443.704 397.936 443.704H397.432C396.808 443.704 396.496 443.296 396.496 442.48V440.536C396.496 437.848 395.344 436.504 393.04 436.504H387.928C385.672 436.504 384.544 437.848 384.544 440.536V456.304C384.544 459.04 385.672 460.408 387.928 460.408H393.04C395.344 460.408 396.496 459.04 396.496 456.304V454.36C396.496 453.64 396.808 453.28 397.432 453.28H397.936C398.224 453.28 398.44 453.4 398.584 453.64C398.776 453.88 398.872 454.12 398.872 454.36V456.376C398.872 458.536 398.368 460.192 397.36 461.344C396.352 462.448 394.912 463 393.04 463ZM423.884 448.672H416.252V456.952C416.252 457.096 416.156 457.336 415.964 457.672C415.868 457.72 415.772 457.768 415.676 457.816C415.58 457.864 415.436 457.888 415.244 457.888H414.74C414.356 457.888 414.164 457.864 414.164 457.816L413.876 456.808V448.672H406.028C405.884 448.672 405.644 448.576 405.308 448.384C405.212 448.288 405.164 448.048 405.164 447.664V447.16C405.164 446.824 405.236 446.584 405.38 446.44C405.764 446.248 405.98 446.152 406.028 446.152H413.876V438.016C413.876 437.632 413.948 437.344 414.092 437.152C414.14 437.104 414.188 437.056 414.236 437.008C414.332 436.96 414.5 436.936 414.74 436.936H415.244C415.58 436.936 415.82 437.008 415.964 437.152C416.156 437.584 416.252 437.872 416.252 438.016V446.152H423.884C424.556 446.152 424.892 446.488 424.892 447.16V447.664C424.892 448.336 424.556 448.672 423.884 448.672ZM450.18 448.672H442.548V456.952C442.548 457.096 442.452 457.336 442.26 457.672C442.164 457.72 442.068 457.768 441.972 457.816C441.876 457.864 441.732 457.888 441.54 457.888H441.036C440.652 457.888 440.46 457.864 440.46 457.816L440.172 456.808V448.672H432.324C432.18 448.672 431.94 448.576 431.604 448.384C431.508 448.288 431.46 448.048 431.46 447.664V447.16C431.46 446.824 431.532 446.584 431.676 446.44C432.06 446.248 432.276 446.152 432.324 446.152H440.172V438.016C440.172 437.632 440.244 437.344 440.388 437.152C440.436 437.104 440.484 437.056 440.532 437.008C440.628 436.96 440.796 436.936 441.036 436.936H441.54C441.876 436.936 442.116 437.008 442.26 437.152C442.452 437.584 442.548 437.872 442.548 438.016V446.152H450.18C450.852 446.152 451.188 446.488 451.188 447.16V447.664C451.188 448.336 450.852 448.672 450.18 448.672Z" fill="black"/>
<path d="M386 471H452V479H386V471Z" fill="#57A4FF"/>
<path d="M312.36 311H311.568C311.088 311 310.776 310.808 310.632 310.424L306.024 299.336H299.616V309.992C299.616 310.664 299.256 311 298.536 311H298.104C297.864 311 297.624 310.952 297.384 310.856C297.192 310.712 297.096 310.424 297.096 309.992V282.92C297.096 282.248 297.432 281.912 298.104 281.912H306.744C308.616 281.912 310.056 282.488 311.064 283.64C312.12 284.744 312.648 286.376 312.648 288.536V292.712C312.648 294.296 312.312 295.616 311.64 296.672C311.016 297.68 309.96 298.52 308.472 299.192L313.008 309.632C313.056 309.824 313.08 310.112 313.08 310.496C313.128 310.832 312.888 311 312.36 311ZM310.272 288.536C310.272 285.8 309.096 284.432 306.744 284.432H299.616V296.744H306.744C309.096 296.744 310.272 295.4 310.272 292.712V288.536ZM330.775 311H330.343C330.007 311 329.695 310.688 329.407 310.064C328.783 310.4 328.207 310.64 327.679 310.784C327.199 310.928 326.671 311 326.095 311H323.575C321.991 311 320.719 310.472 319.759 309.416C318.799 308.36 318.319 306.92 318.319 305.096V290.696C318.319 290.12 318.583 289.832 319.111 289.832H319.687C319.927 289.832 320.119 289.928 320.263 290.12C320.407 290.264 320.479 290.456 320.479 290.696V305.024C320.479 307.52 321.511 308.768 323.575 308.768H326.095C328.399 308.768 329.551 307.592 329.551 305.24V290.696C329.551 290.12 329.815 289.832 330.343 289.832H330.775C331.015 289.832 331.207 289.928 331.351 290.12C331.495 290.264 331.567 290.456 331.567 290.696V310.064C331.567 310.688 331.303 311 330.775 311ZM344.736 311H337.464C337.224 311 337.032 310.904 336.888 310.712C336.792 310.52 336.744 310.304 336.744 310.064V282.776C336.744 282.152 336.984 281.84 337.464 281.84H337.968C338.496 281.84 338.76 282.152 338.76 282.776V290.192C339.576 289.712 340.2 289.4 340.632 289.256C341.112 289.112 341.616 289.04 342.144 289.04H344.736C346.32 289.04 347.592 289.592 348.552 290.696C349.512 291.8 349.992 293.288 349.992 295.16V304.952C349.992 306.92 349.512 308.432 348.552 309.488C347.592 310.496 346.32 311 344.736 311ZM347.904 295.232C347.904 292.688 346.848 291.416 344.736 291.416H342.144C339.888 291.416 338.76 292.616 338.76 295.016V308.624H344.736C346.848 308.624 347.904 307.376 347.904 304.88V295.232ZM363.508 309.488C363.124 310.688 362.788 311.648 362.5 312.368C362.212 313.136 361.948 313.712 361.708 314.096C360.604 316.112 359.02 317.12 356.956 317.12H356.02C355.396 317.12 355.084 316.808 355.084 316.184V315.752C355.084 315.128 355.396 314.816 356.02 314.816H356.956C358.204 314.816 359.116 314.336 359.692 313.376C360.268 312.416 360.724 311.384 361.06 310.28C360.052 307.4 358.972 304.28 357.82 300.92C356.716 297.512 355.612 294.176 354.508 290.912C354.412 290.672 354.412 290.432 354.508 290.192C354.652 289.952 354.868 289.832 355.156 289.832H355.732C356.068 289.832 356.308 289.976 356.452 290.264C356.5 290.504 356.548 290.624 356.596 290.624L361.996 307.112L365.596 296.096L367.396 290.552C367.588 290.072 367.9 289.832 368.332 289.832H368.836C369.22 289.832 369.436 289.976 369.484 290.264C369.532 290.552 369.556 290.816 369.556 291.056L363.508 309.488Z" fill="black"/>
<path d="M182.176 398H177.496C175.624 398 174.184 397.448 173.176 396.344C172.168 395.192 171.664 393.536 171.664 391.376V389.72C171.664 388.952 171.952 388.568 172.528 388.568H173.176C173.8 388.568 174.112 388.952 174.112 389.72V391.304C174.112 394.04 175.24 395.408 177.496 395.408H182.176C184.48 395.408 185.632 394.04 185.632 391.304V389.288C185.632 388.232 185.224 387.344 184.408 386.624C183.592 385.904 182.512 385.376 181.168 385.04C180.112 384.8 179.056 384.56 178 384.32C176.944 384.032 175.936 383.624 174.976 383.096C174.016 382.568 173.224 381.92 172.6 381.152C171.976 380.336 171.664 379.304 171.664 378.056V375.536C171.664 373.52 172.168 371.912 173.176 370.712C174.232 369.512 175.672 368.912 177.496 368.912H182.176C184 368.912 185.416 369.512 186.424 370.712C187.48 371.912 188.008 373.52 188.008 375.536V376.688C188.008 377.504 187.696 377.912 187.072 377.912H186.568C185.944 377.912 185.632 377.504 185.632 376.688V375.536C185.632 372.848 184.48 371.504 182.176 371.504H177.496C175.24 371.504 174.112 372.848 174.112 375.536V377.984C174.112 378.8 174.424 379.544 175.048 380.216C175.672 380.84 176.8 381.344 178.432 381.728C179.536 381.968 180.592 382.232 181.6 382.52C182.656 382.76 183.688 383.168 184.696 383.744C185.656 384.272 186.448 384.968 187.072 385.832C187.696 386.648 188.008 387.752 188.008 389.144V391.376C188.008 393.536 187.504 395.192 186.496 396.344C185.488 397.448 184.048 398 182.176 398ZM202.893 398H198.141C196.605 398 195.381 397.472 194.469 396.416C193.557 395.36 193.101 393.92 193.101 392.096V382.736C193.101 380.912 193.557 379.472 194.469 378.416C195.381 377.36 196.605 376.832 198.141 376.832H202.893C203.421 376.832 203.685 377.12 203.685 377.696V378.2C203.685 378.488 203.589 378.704 203.397 378.848C203.253 378.992 203.085 379.064 202.893 379.064H198.141C196.125 379.064 195.117 380.288 195.117 382.736V392.024C195.117 394.52 196.125 395.768 198.141 395.768H202.893C203.421 395.768 203.685 396.056 203.685 396.632V397.136C203.685 397.472 203.589 397.712 203.397 397.856C203.253 397.952 203.085 398 202.893 398ZM220.461 398H220.029C219.693 398 219.381 397.688 219.093 397.064C217.797 397.688 216.717 398 215.853 398H213.261C211.629 398 210.357 397.472 209.445 396.416C208.533 395.36 208.077 393.92 208.077 392.096V382.736C208.077 380.912 208.533 379.472 209.445 378.416C210.357 377.36 211.629 376.832 213.261 376.832H220.461C221.037 376.832 221.325 377.12 221.325 377.696V397.064C221.325 397.688 221.037 398 220.461 398ZM219.381 381.152C219.381 380.96 219.333 380.672 219.237 380.288C219.141 379.952 218.973 379.688 218.733 379.496C218.493 379.304 218.109 379.16 217.581 379.064H213.261C211.149 379.064 210.093 380.288 210.093 382.736V392.024C210.093 394.52 211.149 395.768 213.261 395.768H215.781C218.133 395.768 219.309 394.592 219.309 392.24C219.309 388.976 219.309 386.6 219.309 385.112C219.357 383.624 219.381 382.616 219.381 382.088V381.152ZM228.085 398H227.581C227.341 398 227.149 397.904 227.005 397.712C226.909 397.52 226.861 397.304 226.861 397.064V369.776C226.861 369.152 227.101 368.84 227.581 368.84H228.085C228.661 368.84 228.949 369.152 228.949 369.776V397.064C228.949 397.688 228.661 398 228.085 398ZM246.969 398H246.537C246.201 398 245.889 397.688 245.601 397.064C244.305 397.688 243.225 398 242.361 398H239.769C238.137 398 236.865 397.472 235.953 396.416C235.041 395.36 234.585 393.92 234.585 392.096V382.736C234.585 380.912 235.041 379.472 235.953 378.416C236.865 377.36 238.137 376.832 239.769 376.832H246.969C247.545 376.832 247.833 377.12 247.833 377.696V397.064C247.833 397.688 247.545 398 246.969 398ZM245.889 381.152C245.889 380.96 245.841 380.672 245.745 380.288C245.649 379.952 245.481 379.688 245.241 379.496C245.001 379.304 244.617 379.16 244.089 379.064H239.769C237.657 379.064 236.601 380.288 236.601 382.736V392.024C236.601 394.52 237.657 395.768 239.769 395.768H242.289C244.641 395.768 245.817 394.592 245.817 392.24C245.817 388.976 245.817 386.6 245.817 385.112C245.865 383.624 245.889 382.616 245.889 382.088V381.152Z" fill="black"/>
<path d="M187 475H340V483H187V475Z" fill="#57A4FF"/>
<path d="M81 307H163V315H81V307Z" fill="#57A4FF"/>
<path d="M59 384H119V392H59V384Z" fill="#57A4FF"/>
<path d="M86.36 448H85.568C85.088 448 84.776 447.808 84.632 447.424L80.024 436.336H73.616V446.992C73.616 447.664 73.256 448 72.536 448H72.104C71.864 448 71.624 447.952 71.384 447.856C71.192 447.712 71.096 447.424 71.096 446.992V419.92C71.096 419.248 71.432 418.912 72.104 418.912H80.744C82.616 418.912 84.056 419.488 85.064 420.64C86.12 421.744 86.648 423.376 86.648 425.536V429.712C86.648 431.296 86.312 432.616 85.64 433.672C85.016 434.68 83.96 435.52 82.472 436.192L87.008 446.632C87.056 446.824 87.08 447.112 87.08 447.496C87.128 447.832 86.888 448 86.36 448ZM84.272 425.536C84.272 422.8 83.096 421.432 80.744 421.432H73.616V433.744H80.744C83.096 433.744 84.272 432.4 84.272 429.712V425.536ZM104.775 448H104.343C104.007 448 103.695 447.688 103.407 447.064C102.783 447.4 102.207 447.64 101.679 447.784C101.199 447.928 100.671 448 100.095 448H97.5746C95.9906 448 94.7186 447.472 93.7586 446.416C92.7986 445.36 92.3186 443.92 92.3186 442.096V427.696C92.3186 427.12 92.5826 426.832 93.1106 426.832H93.6866C93.9266 426.832 94.1186 426.928 94.2626 427.12C94.4066 427.264 94.4786 427.456 94.4786 427.696V442.024C94.4786 444.52 95.5106 445.768 97.5746 445.768H100.095C102.399 445.768 103.551 444.592 103.551 442.24V427.696C103.551 427.12 103.815 426.832 104.343 426.832H104.775C105.015 426.832 105.207 426.928 105.351 427.12C105.495 427.264 105.567 427.456 105.567 427.696V447.064C105.567 447.688 105.303 448 104.775 448ZM117.08 448H111.176C110.696 448 110.456 447.712 110.456 447.136V446.632C110.456 446.056 110.696 445.768 111.176 445.768H117.08C118.184 445.768 118.976 445.528 119.456 445.048C119.936 444.568 120.176 443.92 120.176 443.104V442.024C120.176 441.112 120.056 440.44 119.816 440.008C119.576 439.528 119.072 439.12 118.304 438.784L113.768 437.056C112.376 436.528 111.44 435.88 110.96 435.112C110.48 434.296 110.24 433.192 110.24 431.8C110.24 428.488 111.824 426.832 114.992 426.832H120.536C120.776 426.832 120.968 426.928 121.112 427.12C121.256 427.264 121.328 427.456 121.328 427.696V428.2C121.328 428.776 121.064 429.064 120.536 429.064H114.992C113.936 429.064 113.216 429.304 112.832 429.784C112.496 430.216 112.328 430.696 112.328 431.224V432.304C112.328 432.976 112.448 433.48 112.688 433.816C112.976 434.152 113.528 434.488 114.344 434.824L118.88 436.696C120.128 437.224 120.968 437.992 121.4 439C121.88 439.96 122.12 441.256 122.12 442.888C122.12 444.712 121.688 446.032 120.824 446.848C120.008 447.616 118.76 448 117.08 448ZM134.909 448H133.685C132.101 448 130.829 447.472 129.869 446.416C128.909 445.36 128.429 443.92 128.429 442.096V428.92H126.413C125.933 428.92 125.693 428.632 125.693 428.056V427.552C125.693 426.928 125.933 426.616 126.413 426.616H128.429V423.808C128.429 423.568 128.501 423.352 128.645 423.16C128.789 422.92 128.981 422.8 129.221 422.8H129.725C129.965 422.8 130.133 422.92 130.229 423.16C130.373 423.352 130.445 423.568 130.445 423.808V426.616H134.549C135.077 426.616 135.341 426.928 135.341 427.552V428.056C135.341 428.392 135.245 428.632 135.053 428.776C134.909 428.872 134.741 428.92 134.549 428.92H130.445V442.096C130.445 444.496 131.525 445.696 133.685 445.696H134.909C135.437 445.696 135.701 445.984 135.701 446.56V447.136C135.701 447.472 135.605 447.712 135.413 447.856C135.269 447.952 135.101 448 134.909 448Z" fill="black"/>
<path d="M68 455H128V463H68V455Z" fill="#57A4FF"/>
<path d="M291 315H373V323H291V315Z" fill="#57A4FF"/>
<path d="M331 394H413V402H331V394Z" fill="#57A4FF"/>
<path d="M169 402H251V410H169V402Z" fill="#57A4FF"/>
</g>
<defs>
<clipPath id="clip0">
<rect width="512" height="512" fill="white"/>
</clipPath>
</defs>
</svg>
