<svg width="480" height="480" viewBox="0 0 480 480" fill="none" xmlns="http://www.w3.org/2000/svg">
<path d="M400 56H80C66.7461 56 56 66.7461 56 80V400C56 413.254 66.7461 424 80 424H400C413.254 424 424 413.254 424 400V80C424 66.7461 413.254 56 400 56ZM392 392H88V88H392V392Z" fill="#57A4FF"/>
<path d="M376 104H104V376H376V104ZM136 160C136 146.746 146.746 136 160 136C173.254 136 184 146.746 184 160C184 173.254 173.254 184 160 184C146.746 184 136 173.254 136 160ZM160 264H224V280H160V264ZM168 360H152V328H168V360ZM200 360H184V328H200V360ZM232 360H216V328H232V360ZM264 360H248V328H264V360ZM240 280V264H256V280H240ZM296 360H280V328H296V360ZM304 248H160V232H304V248ZM328 360H312V328H328V360ZM336 248H320V232H336V248ZM336 216H160V200H336V216Z" fill="#909090"/>
<path d="M168 160C168 164.418 164.418 168 160 168C155.582 168 152 164.418 152 160C152 155.582 155.582 152 160 152C164.418 152 168 155.582 168 160Z" fill="black"/>
<path d="M0 160H40V176H0V160Z" fill="#909090"/>
<path d="M0 208H40V224H0V208Z" fill="#909090"/>
<path d="M0 112H40V128H0V112Z" fill="#909090"/>
<path d="M208 0H224V40H208V0Z" fill="#909090"/>
<path d="M0 256H40V272H0V256Z" fill="#909090"/>
<path d="M112 0H128V40H112V0Z" fill="#909090"/>
<path d="M160 0H176V40H160V0Z" fill="#909090"/>
<path d="M208 440H224V480H208V440Z" fill="#909090"/>
<path d="M0 304H40V320H0V304Z" fill="#909090"/>
<path d="M160 440H176V480H160V440Z" fill="#909090"/>
<path d="M0 352H40V368H0V352Z" fill="#909090"/>
<path d="M112 440H128V480H112V440Z" fill="#909090"/>
<path d="M440 208H480V224H440V208Z" fill="#909090"/>
<path d="M440 256H480V272H440V256Z" fill="#909090"/>
<path d="M256 0H272V40H256V0Z" fill="#909090"/>
<path d="M440 352H480V368H440V352Z" fill="#909090"/>
<path d="M304 440H320V480H304V440Z" fill="#909090"/>
<path d="M256 440H272V480H256V440Z" fill="#909090"/>
<path d="M440 160H480V176H440V160Z" fill="#909090"/>
<path d="M440 304H480V320H440V304Z" fill="#909090"/>
<path d="M352 0H368V40H352V0Z" fill="#909090"/>
<path d="M304 0H320V40H304V0Z" fill="#909090"/>
<path d="M352 440H368V480H352V440Z" fill="#909090"/>
<path d="M440 112H480V128H440V112Z" fill="#909090"/>
</svg>
