<svg width="911" height="573" viewBox="0 0 911 573" fill="none" xmlns="http://www.w3.org/2000/svg">
  <path d="M215 207H255V223H215V207Z" fill="#C4C4C4" />
  <path d="M215 255H255V271H215V255Z" fill="#C4C4C4" />
  <path d="M215 159H255V175H215V159Z" fill="#C4C4C4" />
  <path d="M423 47H439V87H423V47Z" fill="#C4C4C4" />
  <path d="M215 303H255V319H215V303Z" fill="#C4C4C4" />
  <path d="M327 47H343V87H327V47Z" fill="#C4C4C4" />
  <path d="M375 47H391V87H375V47Z" fill="#C4C4C4" />
  <path d="M423 487H439V527H423V487Z" fill="#C4C4C4" />
  <path d="M215 351H255V367H215V351Z" fill="#C4C4C4" />
  <path d="M375 487H391V527H375V487Z" fill="#C4C4C4" />
  <path d="M215 399H255V415H215V399Z" fill="#C4C4C4" />
  <path d="M327 487H343V527H327V487Z" fill="#C4C4C4" />
  <path d="M655 255H695V271H655V255Z" fill="#C4C4C4" />
  <path d="M655 303H695V319H655V303Z" fill="#C4C4C4" />
  <path d="M471 47H487V87H471V47Z" fill="#C4C4C4" />
  <path d="M655 399H695V415H655V399Z" fill="#C4C4C4" />
  <path d="M519 487H535V527H519V487Z" fill="#C4C4C4" />
  <path d="M471 487H487V527H471V487Z" fill="#C4C4C4" />
  <path d="M655 207H695V223H655V207Z" fill="#C4C4C4" />
  <path d="M655 351H695V367H655V351Z" fill="#C4C4C4" />
  <path d="M567 47H583V87H567V47Z" fill="#C4C4C4" />
  <path d="M519 47H535V87H519V47Z" fill="#C4C4C4" />
  <path d="M567 487H583V527H567V487Z" fill="#C4C4C4" />
  <path d="M655 159H695V175H655V159Z" fill="#C4C4C4" />
  <g filter="url(#filter0_d)">
    <rect x="287" y="118" width="336" height="337" rx="25" stroke="#326EE6" stroke-width="31" />
    <rect x="287" y="118" width="336" height="337" rx="25" stroke="url(#paint0_linear)" stroke-width="31" />
  </g>
  <path d="M591 157C591 153.686 588.314 151 585 151H325C321.686 151 319 153.686 319 157V417C319 420.314 321.686 423 325 423H585C588.314 423 591 420.314 591 417V157Z" fill="#656565" />
  <rect x="343" y="175" width="135" height="20" fill="#F5F6F8" />
  <rect x="343" y="336" width="208" height="15" fill="#F5F6F8" />
  <rect x="343" y="360" width="176" height="15" fill="#F5F6F8" />
  <rect x="343" y="384" width="144" height="15" fill="#F5F6F8" />
  <defs>
    <filter id="filter0_d" x="259.5" y="90.5" width="391" height="392" filterUnits="userSpaceOnUse" color-interpolation-filters="sRGB">
      <feFlood flood-opacity="0" result="BackgroundImageFix" />
      <feColorMatrix in="SourceAlpha" type="matrix" values="0 0 0 0 0 0 0 0 0 0 0 0 0 0 0 0 0 0 127 0" />
      <feMorphology radius="2" operator="dilate" in="SourceAlpha" result="effect1_dropShadow" />
      <feOffset />
      <feGaussianBlur stdDeviation="5" />
      <feColorMatrix type="matrix" values="0 0 0 0 0 0 0 0 0 0 0 0 0 0 0 0 0 0 0.25 0" />
      <feBlend mode="normal" in2="BackgroundImageFix" result="effect1_dropShadow" />
      <feBlend mode="normal" in="SourceGraphic" in2="effect1_dropShadow" result="shape" />
    </filter>
    <linearGradient id="paint0_linear" x1="761.5" y1="606" x2="63.5" y2="-139.5" gradientUnits="userSpaceOnUse">
      <stop stop-color="#2DA8E6" />
      <stop offset="1" stop-color="white" stop-opacity="0" />
    </linearGradient>
  </defs>
</svg>
