<svg width="1615" height="1739" viewBox="0 0 1615 1739" fill="none" xmlns="http://www.w3.org/2000/svg">
<path d="M392.378 1309.89C392.378 1298.34 399.478 1292.56 413.677 1292.56C428.117 1292.56 435.337 1298.34 435.337 1309.89V1565.84C435.337 1577.39 428.117 1583.17 413.677 1583.17C399.478 1583.17 392.378 1577.39 392.378 1565.84V1309.89ZM282.634 1565.84C282.634 1577.39 275.414 1583.17 260.974 1583.17C246.775 1583.17 239.675 1577.39 239.675 1565.84V1309.89C239.675 1298.34 246.775 1292.56 260.974 1292.56C275.414 1292.56 282.634 1298.34 282.634 1309.89V1565.84ZM367.108 1431.91C367.108 1440.33 364.22 1447.43 358.444 1453.21C352.668 1458.98 345.569 1461.87 337.145 1461.87C328.963 1461.87 321.983 1458.98 316.207 1453.21C310.431 1447.43 307.543 1440.33 307.543 1431.91C307.543 1423.48 310.431 1416.38 316.207 1410.61C321.983 1404.83 328.963 1401.94 337.145 1401.94C345.569 1401.94 352.668 1404.83 358.444 1410.61C364.22 1416.38 367.108 1423.48 367.108 1431.91ZM640.918 1298.7C644.528 1294.37 648.62 1292.2 653.192 1292.2C658.246 1292.2 663.421 1294.49 668.715 1299.06C671.363 1301.71 673.529 1304.35 675.213 1307C677.139 1309.65 678.101 1312.3 678.101 1314.94C678.101 1319.27 676.537 1323.01 673.408 1326.13L625.034 1382.45L530.813 1493.28V1565.84C530.813 1577.39 523.593 1583.17 509.153 1583.17C494.954 1583.17 487.854 1577.39 487.854 1565.84V1309.89C487.854 1298.34 494.954 1292.56 509.153 1292.56C523.593 1292.56 530.813 1298.34 530.813 1309.89V1427.94L640.918 1298.7ZM589.656 1470.17C587.25 1466.8 586.046 1462.71 586.046 1457.9C586.046 1450.68 589.055 1444.9 595.071 1440.57H594.71C599.524 1437.2 604.337 1435.52 609.15 1435.52C613.723 1435.52 617.574 1438.16 620.702 1443.46L690.375 1545.26L690.014 1544.9C692.18 1548.27 693.263 1551.88 693.263 1555.73C693.263 1561.99 690.135 1567.52 683.877 1572.34H684.238C681.591 1574.02 679.064 1575.34 676.657 1576.31C674.251 1577.27 672.085 1577.75 670.159 1577.75C668.234 1577.75 666.188 1577.03 664.022 1575.58C662.097 1574.14 660.172 1572.34 658.246 1570.17L589.656 1470.17ZM917.938 1523.24C917.938 1542.73 911.44 1557.29 898.444 1566.92C892.187 1571.49 885.689 1575.1 878.95 1577.75C872.452 1580.16 866.074 1581.36 859.817 1581.36H781.119C774.862 1581.36 768.364 1580.16 761.625 1577.75C755.127 1575.1 748.749 1571.49 742.492 1566.92C736.235 1562.11 731.421 1556.21 728.052 1549.23C724.683 1542.01 722.998 1533.35 722.998 1523.24V1309.89C722.998 1298.34 730.098 1292.56 744.297 1292.56C758.737 1292.56 765.957 1298.34 765.957 1309.89V1520.35C765.957 1526.61 767.762 1532.26 771.372 1537.32C774.982 1542.37 781.239 1544.9 790.144 1544.9H850.792C859.697 1544.9 865.954 1542.37 869.564 1537.32C873.174 1532.26 874.979 1526.61 874.979 1520.35V1309.89C874.979 1298.34 882.079 1292.56 896.278 1292.56C910.718 1292.56 917.938 1298.34 917.938 1309.89V1523.24ZM1123.12 1474.5C1123.12 1468.97 1121.08 1463.67 1116.99 1458.62C1112.9 1453.33 1105.68 1450.32 1095.33 1449.6C1088.59 1457.78 1080.41 1461.87 1070.78 1461.87C1062.6 1461.87 1055.62 1458.98 1049.84 1453.21C1044.07 1447.43 1041.18 1440.33 1041.18 1431.91C1041.18 1423.48 1044.07 1416.38 1049.84 1410.61C1055.62 1404.83 1062.6 1401.94 1070.78 1401.94C1075.11 1401.94 1079.32 1403.15 1083.41 1405.55C1087.75 1407.96 1091.6 1410.85 1094.97 1414.22C1100.26 1413.98 1104.35 1413.13 1107.24 1411.69C1110.13 1410.25 1112.17 1408.56 1113.38 1406.64C1114.82 1404.47 1115.66 1402.06 1115.9 1399.42C1116.14 1396.77 1116.27 1394.12 1116.27 1391.47V1355.01C1116.27 1349 1114.34 1343.46 1110.49 1338.41C1106.88 1333.35 1100.62 1330.83 1091.72 1330.83H1016.27L1015.91 1569.09C1015.91 1573.9 1013.62 1577.63 1009.05 1580.28C1004.72 1582.68 999.903 1583.89 994.608 1583.89C980.409 1583.89 973.309 1578.11 973.309 1566.56V1316.03C973.309 1307.36 975.475 1301.59 979.807 1298.7C984.38 1295.81 989.795 1294.37 996.052 1294.37H1100.74C1107 1294.37 1113.62 1295.57 1120.6 1297.98C1127.82 1300.38 1134.56 1303.63 1140.81 1307.72H1140.45C1146.71 1312.3 1151.28 1318.31 1154.17 1325.77C1157.3 1333.23 1158.86 1341.9 1158.86 1351.76V1392.56C1158.86 1402.18 1156.82 1410.13 1152.73 1416.38C1148.63 1422.4 1144.3 1427.21 1139.73 1430.82C1142.86 1432.75 1145.87 1434.79 1148.76 1436.96C1151.64 1438.89 1154.05 1441.05 1155.98 1443.46C1159.1 1446.83 1161.51 1450.8 1163.2 1455.37C1165.12 1459.94 1166.08 1465.36 1166.08 1471.62V1523.24C1166.08 1542.97 1158.38 1557.53 1142.98 1566.92C1135.28 1571.73 1127.94 1575.34 1120.96 1577.75C1114.22 1580.16 1107.48 1581.36 1100.74 1581.36H1047.31C1043.22 1581.36 1039.97 1579.68 1037.57 1576.31C1035.4 1572.94 1034.32 1568.49 1034.32 1562.95C1034.32 1550.92 1039.37 1544.9 1049.48 1544.9H1098.94C1107.84 1544.9 1114.1 1542.37 1117.71 1537.32C1121.32 1532.26 1123.12 1526.61 1123.12 1520.35V1474.5ZM1243.19 1581.36C1234.29 1581.36 1228.27 1579.07 1225.14 1574.5C1222.01 1569.93 1220.45 1564.88 1220.45 1559.34V1316.03C1220.45 1310.49 1222.01 1305.56 1225.14 1301.22C1228.27 1296.65 1234.29 1294.37 1243.19 1294.37H1368.82C1377.72 1294.37 1382.42 1300.38 1382.9 1312.42C1383.38 1324.69 1378.69 1330.83 1368.82 1330.83H1263.05V1544.9H1375.32C1384.22 1544.9 1388.79 1550.8 1389.03 1562.59C1389.52 1575.1 1384.94 1581.36 1375.32 1581.36H1243.19ZM1355.46 1431.91C1355.46 1440.33 1352.45 1447.43 1346.44 1453.21C1340.66 1458.98 1333.56 1461.87 1325.14 1461.87C1316.95 1461.87 1309.98 1458.98 1304.2 1453.21C1298.42 1447.43 1295.54 1440.33 1295.54 1431.91C1295.54 1423.48 1298.42 1416.38 1304.2 1410.61C1309.98 1404.83 1316.95 1401.94 1325.14 1401.94C1333.56 1401.94 1340.66 1404.83 1346.44 1410.61C1352.45 1416.38 1355.46 1423.48 1355.46 1431.91Z" fill="#E4E4E4"/>
<path d="M980.077 404.462L1131.9 515.411C1132.56 515.894 1133.49 515.422 1133.49 514.604L1133.49 370.912C1133.49 362.338 1131.45 353.887 1127.54 346.258L1123.8 338.969C1116.82 325.383 1102.84 316.84 1087.57 316.84C1077.19 316.84 1067.21 320.8 1059.65 327.913L979.981 402.926C979.526 403.355 979.572 404.092 980.077 404.462Z" fill="#50CBE5" stroke="black" stroke-width="6"/>
<path d="M377 780.012C377 1008.02 568.446 1193.03 804.83 1193.03C1041.21 1193.03 1232.66 1008.02 1232.66 780.012C1232.66 552.008 1041.21 366.996 804.83 366.996C568.446 366.996 377 552.008 377 780.012Z" fill="#30A8FF" stroke="black" stroke-width="6"/>
<ellipse rx="162.758" ry="157.161" transform="matrix(-1 0 0 1 921.621 632.128)" fill="#7ECEF0"/>
<path d="M779.021 632.109C779.021 708.111 842.837 769.781 921.631 769.781C1000.43 769.781 1064.24 708.111 1064.24 632.109C1064.24 556.108 1000.43 494.438 921.631 494.438C842.837 494.438 779.021 556.108 779.021 632.109Z" fill="white" stroke="black" stroke-width="2"/>
<ellipse rx="124.462" ry="120.182" transform="matrix(-1 0 0 1 921.632 632.118)" fill="#B6B4B1"/>
<ellipse rx="95.7399" ry="92.4478" transform="matrix(-1 0 0 1 921.625 632.109)" fill="black"/>
<ellipse rx="28.722" ry="27.7344" transform="matrix(-1 0 0 1 994.392 595.122)" fill="white"/>
<ellipse rx="19.148" ry="18.4896" transform="matrix(-1 0 0 1 850.788 683.911)" fill="white"/>
<path d="M382.582 742.707C363.549 916.087 485.582 1190 803.159 1190C1034.39 1190 1229.66 1009.52 1229.66 783C1114.49 1096.23 999.113 988.793 945.819 948.71C892.525 908.628 833.522 849.901 728.838 754.823C624.154 659.744 504.396 686.778 382.582 742.707Z" fill="url(#paint0_linear)" fill-opacity="0.52"/>
<path d="M382.076 793.225C372.557 930.309 526.477 1192 814.003 1192C1033.89 1192 1217.3 1005.34 1227.66 816.624C1103.07 1117.24 1001.3 1008.61 950.668 974.524C900.034 940.441 843.975 890.503 744.515 809.655C645.056 728.807 482.976 704.635 382.076 793.225Z" fill="url(#paint1_linear)" fill-opacity="0.52"/>
<path d="M1058.97 770.479C1047.03 771.991 1037.48 777.068 1031.78 788.976C1030.42 798.721 1032.36 811.814 1036.96 826.166C1041.6 840.64 1048.89 856.161 1057.91 870.414C1066.94 884.676 1077.66 897.578 1089.12 906.888C1100.54 916.164 1112.49 921.712 1124.14 921.773C1174.16 913.819 1205.97 876.412 1214.95 840.043C1219.33 822.285 1221.5 806.864 1221.65 794.182C1221.81 781.457 1219.94 771.701 1216.43 765.11C1213 758.647 1208.05 755.256 1201.63 754.86C1195.1 754.457 1186.67 757.135 1176.36 763.844C1169.06 775.063 1157.33 778.772 1144.16 779.124C1132.16 779.446 1118.46 776.996 1104.98 774.583C1103.57 774.33 1102.15 774.078 1100.75 773.829C1085.74 771.174 1071.22 768.928 1058.97 770.479Z" fill="#E15C5C" stroke="black" stroke-width="5"/>
<path d="M1076.88 855.989C1074.69 865.843 1073.67 876.919 1077.47 887.194C1081.27 897.463 1089.9 906.965 1107.05 913.643C1127.26 917.791 1142.57 916.342 1154.49 912.056C1166.41 907.767 1174.95 900.633 1181.61 893.383C1187.99 886.431 1190.62 880.386 1190.45 875.067C1190.29 869.752 1187.32 865.11 1182.4 860.97C1177.48 856.83 1170.62 853.207 1162.7 849.934C1154.79 846.662 1145.84 843.742 1136.75 841.001C1117.48 837.234 1104.61 836.371 1095.52 838.753C1086.45 841.127 1081.1 846.73 1076.88 855.989Z" fill="url(#paint2_linear)" stroke="black" stroke-width="0.4"/>
<path d="M432.391 530.73C429.613 553.204 422.559 581.072 416.78 603.898L416.764 603.962C413.868 615.402 411.299 625.548 409.708 633.225C408.909 637.077 408.377 640.212 408.165 642.53C408.058 643.693 408.041 644.56 408.086 645.164C408.099 645.341 408.116 645.472 408.131 645.564C408.26 645.646 408.504 645.783 408.924 645.95C409.77 646.287 411.01 646.622 412.689 646.922C416.033 647.519 420.711 647.903 426.56 648.046C438.232 648.332 454.188 647.651 472.649 645.992C509.562 642.675 556.215 635.475 598.151 624.46C654.452 609.671 681.82 584.397 699.084 568.455C700.686 566.975 702.201 565.576 703.644 564.273C708.476 559.911 711.167 552.976 711.598 543.558C712.029 534.147 710.178 522.604 706.301 509.562C698.552 483.497 682.899 452.067 662.476 420.966C642.065 389.883 616.983 359.271 590.483 334.813C563.934 310.309 536.196 292.201 510.489 285.757C498.348 282.713 490.772 283.853 485.537 287.406C480.175 291.045 476.542 297.68 473.426 307.366C471.265 314.083 469.464 321.867 467.439 330.614C466.545 334.478 465.607 338.53 464.576 342.76C461.239 356.447 456.983 371.699 450.169 387.546C436.918 418.367 433.846 442.844 433.398 465.172C433.24 473.07 433.409 480.654 433.578 488.214C433.649 491.418 433.721 494.617 433.767 497.834C433.922 508.584 433.791 519.401 432.391 530.73Z" fill="#50CBE5" stroke="black" stroke-width="6"/>
<path d="M651.63 432.359C619.21 390.637 548.991 330.257 537.518 330.257C539.159 334.001 595.326 381.565 640.961 430.188L651.63 432.359Z" fill="#060B1E"/>
<path d="M640.961 470.125C640.961 466.502 525.659 371.501 500.004 365.698C501.659 376.501 573.159 422.652 619.034 458.001C637.644 472.341 640.961 472.225 640.961 470.125Z" fill="#060B1E"/>
<path d="M588.415 471.574C565.624 457.279 555.69 452.727 537.518 444.001C537.518 444.001 485.392 422.098 483.074 422.135C483.074 422.135 483.164 424.291 495.306 430.188C515.118 439.813 535.095 449.976 541.508 453.69C544.092 455.187 552.55 459.763 560.302 463.857C568.055 467.95 583.826 476.481 595.35 482.806C615.224 493.721 619.034 495.433 619.034 493.462C619.034 491.904 600.581 479.205 588.415 471.574Z" fill="#060B1E"/>
<path d="M579.096 506.338C552.777 495.787 481.659 482.806 463.982 480.838C463.982 488.001 528.896 501.703 535.357 503.001C543.54 505.051 596.606 517.758 600.78 519.127C617.221 524.527 611.477 519.045 593.192 511.884C587.162 509.525 580.819 507.026 579.096 506.338Z" fill="#060B1E"/>
<path d="M599.962 552.89C596.078 550.802 576.159 547.501 518.015 549.286C487.408 551.506 450.583 558.132 449.166 561.677C448.614 563.061 484.37 560.263 488.659 560.001C513.159 558.501 507.283 557.985 546.207 556.774C583.736 555.607 602.491 554.253 599.962 552.89Z" fill="#060B1E"/>
<path d="M504.159 617.001C509.758 616.493 588.415 607.001 595.553 599.71C591.159 595.501 433.659 614.501 440.159 620.001C446.659 625.501 504.159 617.001 504.159 617.001Z" fill="#060B1E"/>
<path d="M1082.16 349.033C1084.71 346.377 1086.64 343.884 1086.64 343.162C1086.63 340.724 1084.94 341.423 1078.35 346.59C1076.68 348.222 1046.53 372.307 1037.81 379.661C1029.09 387.015 1021.92 393.811 1021.88 394.758C1021.72 397.831 1079.1 351.85 1082.16 349.033Z" fill="#060B1E"/>
<path d="M1114.66 375.499C1139.66 363.999 1054.86 416.676 1050.83 415.389C1044.09 413.239 1089.66 386.999 1114.66 375.499Z" fill="#060B1E"/>
<path d="M1096.07 441.776C1112.74 440.852 1117.8 441.6 1115.66 438.999C1113.52 436.399 1095.16 436.999 1072.16 438.999C1077.16 441.776 1082.16 441.776 1096.07 441.776Z" fill="#060B1E"/>
<circle cx="71.9999" cy="785" r="66.9999" fill="#CDE0ED" stroke="#57A4FF" stroke-width="10"/>
<circle cx="72.0044" cy="784.99" r="62.3999" fill="#A4E0F7"/>
<ellipse cx="74.1599" cy="780.24" rx="62.1599" ry="60.2398" fill="#CDE0ED"/>
<path d="M66.1095 733.855C66.1642 733.368 66.2779 732.888 66.3978 732.353C68.0056 726.563 74.4386 723.122 80.8573 724.61C95.8278 728.317 108.35 737.829 115.115 750.639C117.973 756.108 115.565 762.63 109.655 765.144C103.745 767.658 96.5838 765.32 93.7253 759.85C90.0195 752.861 83.2329 747.718 75.0768 745.707C69.2494 744.286 65.5145 739.156 66.1095 733.855Z" fill="white"/>
<circle cx="205.571" cy="626.571" r="78.5713" fill="#CDE0ED" stroke="#57A4FF" stroke-width="10"/>
<circle cx="205.573" cy="626.568" r="72.4285" fill="#A4E0F7"/>
<ellipse cx="206.362" cy="621.281" rx="72.1499" ry="69.9213" fill="#CDE0ED"/>
<ellipse cx="244.356" cy="578.223" rx="11.1428" ry="10.7987" fill="white"/>
<path d="M252.891 595.381C253.18 595.108 253.503 594.87 253.858 594.603C257.898 591.867 263.726 593.152 266.962 597.485C274.385 607.738 277.236 620.291 274.755 631.828C273.678 636.739 268.753 639.503 263.739 637.922C258.724 636.34 255.469 631.085 256.547 626.175C257.89 619.872 256.34 613.076 252.291 607.495C249.389 603.517 249.741 598.352 252.891 595.381Z" fill="white"/>
<circle cx="187" cy="938" r="60" fill="#CDE0ED" stroke="#57A4FF" stroke-width="10"/>
<circle cx="187" cy="937.991" r="56.3334" fill="#A4E0F7"/>
<ellipse cx="189.117" cy="935.38" rx="56.1167" ry="54.3833" fill="#CDE0ED"/>
<path d="M206.412 896.456C206.525 896.173 206.673 895.904 206.832 895.603C208.75 892.398 213.171 891.396 216.771 893.344C225.127 898.032 231.059 905.795 232.999 914.586C233.81 918.335 231.292 921.847 227.337 922.38C223.383 922.913 219.479 920.332 218.668 916.584C217.601 911.785 214.384 907.584 209.83 905.036C206.573 903.224 205.182 899.535 206.412 896.456Z" fill="white"/>
<ellipse cx="231.666" cy="935.4" rx="8.66667" ry="8.39897" fill="white"/>
<path d="M145 888L110 845" stroke="#57A4FF" stroke-width="10"/>
<path d="M119 731L154 689" stroke="#57A4FF" stroke-width="10"/>
<circle cx="164.727" cy="309.727" r="51.5" transform="rotate(-104.331 164.727 309.727)" fill="#CDE0ED" stroke="#57A4FF" stroke-width="10"/>
<circle cx="164.718" cy="309.727" r="48.9667" transform="rotate(-104.331 164.718 309.727)" fill="#A4E0F7"/>
<ellipse cx="162.69" cy="309.821" rx="48.7784" ry="47.2717" transform="rotate(-104.331 162.69 309.821)" fill="#CDE0ED"/>
<ellipse cx="130.055" cy="289.042" rx="7.53334" ry="7.30065" transform="rotate(-104.331 130.055 289.042)" fill="white"/>
<path d="M147.096 281.542C143.829 283.795 139.894 282.638 138.48 278.93L138.395 278.707C136.85 274.656 139.266 269.517 143.203 267.703V267.703C143.273 267.671 143.482 267.573 143.551 267.54C144.223 267.211 148.165 265.348 153.992 263.86V263.86C157.973 262.843 163.767 264.9 165.231 268.738V268.738C166.551 272.199 164.224 276.016 160.57 276.623C159.576 276.788 158.511 276.975 157.397 277.187C152.316 278.152 150.702 279.411 149.262 280.198C148.792 280.456 148.313 280.704 147.871 281.008C147.605 281.191 147.346 281.369 147.096 281.542Z" fill="white"/>
<circle cx="818.5" cy="103.5" r="98.5" fill="#CDE0ED" stroke="#57A4FF" stroke-width="10"/>
<circle cx="818.5" cy="103.484" r="89.7001" fill="#A4E0F7"/>
<ellipse cx="819.483" cy="96.945" rx="89.355" ry="86.595" fill="#CDE0ED"/>
<ellipse cx="866.533" cy="43.6276" rx="13.8" ry="13.3737" fill="white"/>
<path d="M877.104 64.8569C877.462 64.519 877.862 64.2251 878.302 63.8937C883.305 60.5052 890.522 62.0963 894.531 67.4626C903.724 80.1613 907.254 95.7074 904.182 109.996C902.848 116.078 896.749 119.502 890.539 117.543C884.329 115.584 880.297 109.076 881.631 102.994C883.296 95.1882 881.375 86.7718 876.361 79.86C872.768 74.9338 873.203 68.5364 877.104 64.8569Z" fill="white"/>
<circle cx="1442" cy="455" r="91" fill="#CDE0ED" stroke="#57A4FF" stroke-width="10"/>
<circle cx="1442" cy="454.986" r="83.2001" fill="#A4E0F7"/>
<ellipse cx="1445.13" cy="451.135" rx="82.88" ry="80.32" fill="#CDE0ED"/>
<path d="M1470.67 393.653C1470.84 393.236 1471.05 392.838 1471.29 392.394C1474.12 387.661 1480.65 386.18 1485.97 389.058C1498.31 395.981 1507.07 407.447 1509.94 420.431C1511.13 425.968 1507.41 431.154 1501.57 431.942C1495.73 432.729 1489.97 428.917 1488.77 423.381C1487.19 416.293 1482.44 410.089 1475.72 406.325C1470.91 403.65 1468.85 398.201 1470.67 393.653Z" fill="white"/>
<ellipse cx="1447.8" cy="384.405" rx="12.8" ry="12.4046" fill="white"/>
<circle cx="1526.26" cy="1225.02" r="65" transform="rotate(-15.0212 1526.26 1225.02)" fill="#CDE0ED" stroke="#57A4FF" stroke-width="10"/>
<circle cx="1526.26" cy="1225.01" r="60.6667" transform="rotate(-15.0212 1526.26 1225.01)" fill="#A4E0F7"/>
<ellipse cx="1527.2" cy="1219.14" rx="60.4334" ry="58.5666" transform="rotate(-15.0212 1527.2 1219.14)" fill="#CDE0ED"/>
<path d="M1519.56 1177.88C1519.55 1177.4 1519.61 1176.93 1519.67 1176.4C1520.58 1170.63 1526.41 1166.59 1532.78 1167.32C1547.65 1169.24 1560.8 1177.04 1568.75 1188.66C1572.11 1193.63 1570.51 1200.2 1565.08 1203.28C1559.65 1206.36 1552.47 1204.9 1549.11 1199.93C1544.75 1193.59 1537.63 1189.37 1529.53 1188.33C1523.74 1187.61 1519.57 1183.07 1519.56 1177.88Z" fill="white"/>
<circle cx="1375.74" cy="1084.69" r="74" transform="rotate(-156.12 1375.74 1084.69)" fill="#CDE0ED" stroke="#57A4FF" stroke-width="10"/>
<circle cx="1375.73" cy="1084.7" r="68.4667" transform="rotate(-156.12 1375.73 1084.7)" fill="#A4E0F7"/>
<ellipse cx="1372.86" cy="1088.54" rx="68.2033" ry="66.0966" transform="rotate(-156.12 1372.86 1088.54)" fill="#CDE0ED"/>
<ellipse cx="1323.02" cy="1104.9" rx="10.5333" ry="10.208" transform="rotate(-156.12 1323.02 1104.9)" fill="white"/>
<path d="M1329.43 1081.3C1329.15 1085.97 1325.22 1088.77 1320.75 1087.38L1317.36 1086.32C1312.35 1084.76 1309.36 1078.44 1310.63 1073.34C1310.76 1072.84 1310.88 1072.32 1311.01 1071.77C1311.04 1071.68 1311.06 1071.59 1311.08 1071.5C1311.28 1070.55 1312.64 1064.57 1316.07 1056.82V1056.82C1318.39 1051.57 1325.67 1046.98 1331.15 1048.69V1048.69C1336.09 1050.24 1338.27 1056.09 1335.78 1060.63C1335.1 1061.87 1334.39 1063.2 1333.65 1064.61C1330.18 1071.29 1330.31 1074.12 1329.88 1076.43C1329.77 1076.98 1329.67 1077.53 1329.63 1078.09C1329.56 1079.25 1329.49 1080.32 1329.43 1081.3Z" fill="white"/>
<path d="M1476.12 1178.87L1425.86 1144.37" stroke="#57A4FF" stroke-width="10"/>
<defs>
<linearGradient id="paint0_linear" x1="839.232" y1="707.282" x2="637.955" y2="1174.57" gradientUnits="userSpaceOnUse">
<stop offset="0.0267148" stop-color="white"/>
<stop offset="0.984415" stop-color="#FBFF30" stop-opacity="0"/>
</linearGradient>
<linearGradient id="paint1_linear" x1="845.7" y1="780.756" x2="687.596" y2="1190.87" gradientUnits="userSpaceOnUse">
<stop offset="0.0267148" stop-color="#FEFEFE"/>
<stop offset="0.984415" stop-color="#FBFF30" stop-opacity="0"/>
</linearGradient>
<linearGradient id="paint2_linear" x1="1134.64" y1="845.701" x2="1116.38" y2="914.083" gradientUnits="userSpaceOnUse">
<stop stop-color="#E2A0A0"/>
<stop offset="1" stop-color="#E2A0A0" stop-opacity="0"/>
</linearGradient>
</defs>
</svg>
