<svg width="911" height="573" viewBox="0 0 911 573" fill="none" xmlns="http://www.w3.org/2000/svg">
  <g filter="url(#filter0_d)">
    <rect x="516" y="54" width="217" height="111" rx="5" fill="white" />
    <rect x="516.5" y="54.5" width="216" height="110" rx="4.5" stroke="#C4C4C4" />
  </g>
  <path d="M115 354H294.858C297.51 354 300.054 352.946 301.929 351.071L327.737 325.263C332.401 320.599 340.224 321.649 343.493 327.378L379.1 389.775C383.271 397.085 394.055 396.287 397.105 388.443L475.824 186.024C478.968 177.94 490.209 177.418 494.088 185.177L575.736 348.472C577.43 351.86 580.893 354 584.68 354H796" stroke="#326EE6" stroke-width="25" stroke-linecap="round" />
  <path d="M115 354H294.858C297.51 354 300.054 352.946 301.929 351.071L327.737 325.263C332.401 320.599 340.224 321.649 343.493 327.378L379.1 389.775C383.271 397.085 394.055 396.287 397.105 388.443L475.824 186.024C478.968 177.94 490.209 177.418 494.088 185.177L575.736 348.472C577.43 351.86 580.893 354 584.68 354H796" stroke="url(#paint0_linear)" stroke-width="25" stroke-linecap="round" />
  <rect x="533" y="75" width="172" height="19" fill="#A0A0A0" />
  <rect x="533" y="104" width="131" height="11" fill="#C4C4C4" />
  <rect x="533" y="122" width="88" height="10" fill="#C4C4C4" />
  <rect x="533" y="139" width="155" height="11" fill="#C4C4C4" />
  <defs>
    <filter id="filter0_d" x="496" y="34" width="257" height="151" filterUnits="userSpaceOnUse" color-interpolation-filters="sRGB">
      <feFlood flood-opacity="0" result="BackgroundImageFix" />
      <feColorMatrix in="SourceAlpha" type="matrix" values="0 0 0 0 0 0 0 0 0 0 0 0 0 0 0 0 0 0 127 0" />
      <feOffset />
      <feGaussianBlur stdDeviation="10" />
      <feColorMatrix type="matrix" values="0 0 0 0 0 0 0 0 0 0 0 0 0 0 0 0 0 0 0.25 0" />
      <feBlend mode="normal" in2="BackgroundImageFix" result="effect1_dropShadow" />
      <feBlend mode="normal" in="SourceGraphic" in2="effect1_dropShadow" result="shape" />
    </filter>
    <linearGradient id="paint0_linear" x1="584.5" y1="537" x2="134.5" y2="87" gradientUnits="userSpaceOnUse">
      <stop stop-color="#2DA8E6" />
      <stop offset="1" stop-color="white" stop-opacity="0" />
    </linearGradient>
  </defs>
</svg>
