<svg width="279" height="242" viewBox="0 0 279 242" fill="none" xmlns="http://www.w3.org/2000/svg">
<path d="M27.4013 57.9793C40.0781 57.9605 50.9996 48.3752 53.5519 35.0277H73.233L66.3306 42.4471C64.9694 43.8935 64.4333 46.013 64.925 48.0013C65.4167 49.9896 66.8617 51.5429 68.7115 52.0715C70.5612 52.6 72.533 52.0237 73.8785 50.5605L88.3288 35.0277H107.471V46.5032C107.476 52.8387 112.253 57.9726 118.147 57.9793H203.557C209.451 57.9733 214.227 52.8387 214.233 46.5032V35.027H267.613V103.883H168.401L175.303 96.4632C176.665 95.0168 177.203 92.8967 176.711 90.9077C176.219 88.9187 174.774 87.3647 172.923 86.8362C171.073 86.3077 169.101 86.8853 167.755 88.3498L153.305 103.883H139.5V92.4065C139.495 86.071 134.718 80.9371 128.824 80.9303H43.4154C37.5215 80.9364 32.7454 86.071 32.7391 92.4065V126.834C32.7448 133.17 37.5215 138.304 43.4154 138.311H80.7815V158.887L73.8798 151.468C71.7917 149.251 68.4306 149.263 66.355 151.493C64.2801 153.724 64.2694 157.337 66.3313 159.582L80.7815 175.115V184.215H59.4295C57.4078 184.214 55.5586 185.442 54.6547 187.386L33.3027 233.29C32.4758 235.069 32.564 237.182 33.5367 238.873C34.5094 240.565 36.2278 241.595 38.0776 241.595H112.81C114.832 241.595 116.681 240.368 117.585 238.423L126.786 218.642H201.347L194.444 226.062C193.082 227.508 192.544 229.628 193.036 231.617C193.528 233.606 194.973 235.16 196.824 235.689C198.674 236.217 200.647 235.64 201.992 234.175L216.442 218.642H225.448C228.188 233.073 240.649 242.93 254.281 241.449C267.914 239.969 278.289 227.633 278.289 212.904C278.289 198.175 267.913 185.84 254.281 184.359C240.649 182.879 228.188 192.735 225.448 207.166H216.443L201.993 191.633C199.905 189.416 196.544 189.427 194.468 191.658C192.393 193.889 192.382 197.502 194.444 199.747L201.346 207.166H132.124L138.937 192.519C139.765 190.74 139.676 188.628 138.703 186.936C137.73 185.244 136.012 184.215 134.162 184.215H91.4578V175.115L105.908 159.582C107.97 157.337 107.96 153.724 105.884 151.493C103.809 149.262 100.448 149.251 98.3595 151.468L91.4578 158.887V138.311H128.824C134.718 138.304 139.494 133.17 139.5 126.834V115.359H153.304L167.754 130.892C169.843 133.108 173.204 133.097 175.279 130.866C177.354 128.636 177.365 125.023 175.303 122.778L168.401 115.359H272.951C274.367 115.36 275.725 114.755 276.726 113.679C277.727 112.603 278.289 111.143 278.289 109.62V29.2892C278.29 27.7676 277.728 26.3077 276.726 25.2312C275.725 24.1553 274.367 23.5508 272.951 23.5508H214.232V12.0753C214.227 5.73977 209.45 0.605854 203.556 0.59913H118.148C112.254 0.605182 107.478 5.73977 107.472 12.0753V23.5515H88.33L73.8798 8.0186C71.7917 5.80231 68.4306 5.81307 66.355 8.04415C64.2801 10.2746 64.2694 13.8875 66.3313 16.1327L73.233 23.5521H53.5519C50.7425 8.75893 37.7479 -1.16261 23.8288 0.858685C9.90961 2.8793 -0.17116 16.1508 0.770921 31.215C1.713 46.2792 13.3558 57.9793 27.4013 57.9793ZM251.599 195.691C260.443 195.691 267.613 203.397 267.613 212.905C267.613 222.412 260.443 230.119 251.599 230.119C242.755 230.119 235.585 222.412 235.585 212.905C235.594 203.402 242.759 195.701 251.599 195.691ZM125.524 195.691L110.855 227.227C110.035 228.991 108.266 230.119 106.321 230.119H46.7152L61.3845 198.582C62.2047 196.819 63.9731 195.691 65.918 195.691H125.524ZM48.4154 126.835C45.654 126.835 43.4154 124.596 43.4154 121.835V97.4072C43.4154 94.6458 45.654 92.4072 48.4154 92.4072H123.825C126.586 92.4072 128.824 94.6451 128.825 97.4061L128.828 109.6L128.824 109.621L128.828 109.642L128.83 121.834C128.831 124.596 126.592 126.835 123.83 126.835H48.4154ZM118.148 17.0753C118.148 14.3139 120.387 12.0753 123.148 12.0753H198.558C201.319 12.0753 203.557 14.3132 203.558 17.0742L203.56 29.2684L203.557 29.2892L203.56 29.3101L203.563 41.5021C203.564 44.2639 201.325 46.5032 198.563 46.5032H123.148C120.387 46.5032 118.148 44.2646 118.148 41.5032V17.0753ZM27.4013 12.0753C36.2453 12.0753 43.4154 19.7819 43.4154 29.2892C43.4154 38.7959 36.2453 46.5032 27.4013 46.5032C18.5572 46.5032 11.3872 38.7966 11.3872 29.2892C11.3965 19.7866 18.561 12.0854 27.4013 12.0753Z" fill="#326EE6"/>
<path d="M27.4013 57.9793C40.0781 57.9605 50.9996 48.3752 53.5519 35.0277H73.233L66.3306 42.4471C64.9694 43.8935 64.4333 46.013 64.925 48.0013C65.4167 49.9896 66.8617 51.5429 68.7115 52.0715C70.5612 52.6 72.533 52.0237 73.8785 50.5605L88.3288 35.0277H107.471V46.5032C107.476 52.8387 112.253 57.9726 118.147 57.9793H203.557C209.451 57.9733 214.227 52.8387 214.233 46.5032V35.027H267.613V103.883H168.401L175.303 96.4632C176.665 95.0168 177.203 92.8967 176.711 90.9077C176.219 88.9187 174.774 87.3647 172.923 86.8362C171.073 86.3077 169.101 86.8853 167.755 88.3498L153.305 103.883H139.5V92.4065C139.495 86.071 134.718 80.9371 128.824 80.9303H43.4154C37.5215 80.9364 32.7454 86.071 32.7391 92.4065V126.834C32.7448 133.17 37.5215 138.304 43.4154 138.311H80.7815V158.887L73.8798 151.468C71.7917 149.251 68.4306 149.263 66.355 151.493C64.2801 153.724 64.2694 157.337 66.3313 159.582L80.7815 175.115V184.215H59.4295C57.4078 184.214 55.5586 185.442 54.6547 187.386L33.3027 233.29C32.4758 235.069 32.564 237.182 33.5367 238.873C34.5094 240.565 36.2278 241.595 38.0776 241.595H112.81C114.832 241.595 116.681 240.368 117.585 238.423L126.786 218.642H201.347L194.444 226.062C193.082 227.508 192.544 229.628 193.036 231.617C193.528 233.606 194.973 235.16 196.824 235.689C198.674 236.217 200.647 235.64 201.992 234.175L216.442 218.642H225.448C228.188 233.073 240.649 242.93 254.281 241.449C267.914 239.969 278.289 227.633 278.289 212.904C278.289 198.175 267.913 185.84 254.281 184.359C240.649 182.879 228.188 192.735 225.448 207.166H216.443L201.993 191.633C199.905 189.416 196.544 189.427 194.468 191.658C192.393 193.889 192.382 197.502 194.444 199.747L201.346 207.166H132.124L138.937 192.519C139.765 190.74 139.676 188.628 138.703 186.936C137.73 185.244 136.012 184.215 134.162 184.215H91.4578V175.115L105.908 159.582C107.97 157.337 107.96 153.724 105.884 151.493C103.809 149.262 100.448 149.251 98.3595 151.468L91.4578 158.887V138.311H128.824C134.718 138.304 139.494 133.17 139.5 126.834V115.359H153.304L167.754 130.892C169.843 133.108 173.204 133.097 175.279 130.866C177.354 128.636 177.365 125.023 175.303 122.778L168.401 115.359H272.951C274.367 115.36 275.725 114.755 276.726 113.679C277.727 112.603 278.289 111.143 278.289 109.62V29.2892C278.29 27.7676 277.728 26.3077 276.726 25.2312C275.725 24.1553 274.367 23.5508 272.951 23.5508H214.232V12.0753C214.227 5.73977 209.45 0.605854 203.556 0.59913H118.148C112.254 0.605182 107.478 5.73977 107.472 12.0753V23.5515H88.33L73.8798 8.0186C71.7917 5.80231 68.4306 5.81307 66.355 8.04415C64.2801 10.2746 64.2694 13.8875 66.3313 16.1327L73.233 23.5521H53.5519C50.7425 8.75893 37.7479 -1.16261 23.8288 0.858685C9.90961 2.8793 -0.17116 16.1508 0.770921 31.215C1.713 46.2792 13.3558 57.9793 27.4013 57.9793ZM251.599 195.691C260.443 195.691 267.613 203.397 267.613 212.905C267.613 222.412 260.443 230.119 251.599 230.119C242.755 230.119 235.585 222.412 235.585 212.905C235.594 203.402 242.759 195.701 251.599 195.691ZM125.524 195.691L110.855 227.227C110.035 228.991 108.266 230.119 106.321 230.119H46.7152L61.3845 198.582C62.2047 196.819 63.9731 195.691 65.918 195.691H125.524ZM48.4154 126.835C45.654 126.835 43.4154 124.596 43.4154 121.835V97.4072C43.4154 94.6458 45.654 92.4072 48.4154 92.4072H123.825C126.586 92.4072 128.824 94.6451 128.825 97.4061L128.828 109.6L128.824 109.621L128.828 109.642L128.83 121.834C128.831 124.596 126.592 126.835 123.83 126.835H48.4154ZM118.148 17.0753C118.148 14.3139 120.387 12.0753 123.148 12.0753H198.558C201.319 12.0753 203.557 14.3132 203.558 17.0742L203.56 29.2684L203.557 29.2892L203.56 29.3101L203.563 41.5021C203.564 44.2639 201.325 46.5032 198.563 46.5032H123.148C120.387 46.5032 118.148 44.2646 118.148 41.5032V17.0753ZM27.4013 12.0753C36.2453 12.0753 43.4154 19.7819 43.4154 29.2892C43.4154 38.7959 36.2453 46.5032 27.4013 46.5032C18.5572 46.5032 11.3872 38.7966 11.3872 29.2892C11.3965 19.7866 18.561 12.0854 27.4013 12.0753Z" fill="url(#paint0_linear)"/>
<g filter="url(#filter0_d)">
<path d="M267.613 212.905C267.613 203.398 260.443 195.691 251.599 195.691C242.759 195.701 235.594 203.403 235.585 212.905C235.585 222.413 242.755 230.119 251.599 230.119C260.443 230.119 267.613 222.413 267.613 212.905Z" fill="white"/>
</g>
<g filter="url(#filter1_d)">
<path d="M43.4159 29.2901C43.4159 19.7828 36.2459 12.0762 27.4018 12.0762C18.5615 12.0863 11.3971 19.7875 11.3877 29.2901C11.3877 38.7974 18.5578 46.504 27.4018 46.504C36.2459 46.504 43.4159 38.7968 43.4159 29.2901Z" fill="white"/>
</g>
<path d="M124.805 18.6719H194.783V25.701H124.805V18.6719Z" fill="#909090"/>
<path d="M124.805 31.7266H165.392V39.2578H124.805V31.7266Z" fill="#909090"/>
<path d="M48.7617 100.01H122.472V107.039H48.7617V100.01Z" fill="#909090"/>
<path d="M73.9541 202.434H113.608V208.961H73.9541V202.434Z" fill="#909090"/>
<path d="M57.1592 215.99H96.8134V222.517H57.1592V215.99Z" fill="#909090"/>
<path d="M48.7617 113.566H88.8825V121.098H48.7617V113.566Z" fill="#909090"/>
<defs>
<filter id="filter0_d" x="225.585" y="185.691" width="52.0282" height="54.4279" filterUnits="userSpaceOnUse" color-interpolation-filters="sRGB">
<feFlood flood-opacity="0" result="BackgroundImageFix"/>
<feColorMatrix in="SourceAlpha" type="matrix" values="0 0 0 0 0 0 0 0 0 0 0 0 0 0 0 0 0 0 127 0"/>
<feOffset/>
<feGaussianBlur stdDeviation="5"/>
<feColorMatrix type="matrix" values="0 0 0 0 0 0 0 0 0 0 0 0 0 0 0 0 0 0 0.25 0"/>
<feBlend mode="normal" in2="BackgroundImageFix" result="effect1_dropShadow"/>
<feBlend mode="normal" in="SourceGraphic" in2="effect1_dropShadow" result="shape"/>
</filter>
<filter id="filter1_d" x="1.3877" y="2.07617" width="52.0282" height="54.4278" filterUnits="userSpaceOnUse" color-interpolation-filters="sRGB">
<feFlood flood-opacity="0" result="BackgroundImageFix"/>
<feColorMatrix in="SourceAlpha" type="matrix" values="0 0 0 0 0 0 0 0 0 0 0 0 0 0 0 0 0 0 127 0"/>
<feOffset/>
<feGaussianBlur stdDeviation="5"/>
<feColorMatrix type="matrix" values="0 0 0 0 0 0 0 0 0 0 0 0 0 0 0 0 0 0 0.25 0"/>
<feBlend mode="normal" in2="BackgroundImageFix" result="effect1_dropShadow"/>
<feBlend mode="normal" in="SourceGraphic" in2="effect1_dropShadow" result="shape"/>
</filter>
<linearGradient id="paint0_linear" x1="316.457" y1="352.455" x2="-198.231" y2="18.9981" gradientUnits="userSpaceOnUse">
<stop stop-color="#2DA8E6"/>
<stop offset="1" stop-color="white" stop-opacity="0"/>
</linearGradient>
</defs>
</svg>
