<svg width="512" height="512" viewBox="0 0 512 512" fill="none" xmlns="http://www.w3.org/2000/svg">
<path d="M486.4 0H25.6C11.468 0.015 0.015 11.468 0 25.6V486.4C0.015 500.532 11.468 511.985 25.6 512H486.4C500.532 511.985 511.985 500.532 512 486.4V25.6C511.985 11.468 500.532 0.015 486.4 0ZM494.933 486.4C494.928 491.111 491.111 494.929 486.4 494.933H25.6C20.89 494.927 17.073 491.11 17.067 486.4V85.333H494.934V486.4H494.933ZM494.933 68.267H17.067V25.6C17.073 20.89 20.89 17.073 25.6 17.067H486.4C491.111 17.072 494.929 20.889 494.933 25.6V68.267V68.267Z" fill="#909090"/>
<path d="M36.6081 36.608C33.3081 39.973 33.3081 45.361 36.6081 48.725C39.9731 52.025 45.3611 52.025 48.7251 48.725C52.0251 45.36 52.0251 39.973 48.7251 36.608C45.3041 33.449 40.0291 33.449 36.6081 36.608Z" fill="#909090"/>
<path d="M81.5791 35.583C81.1031 35.259 80.5861 35 80.0411 34.812C79.5571 34.566 79.0391 34.395 78.5041 34.304C76.8411 33.956 75.1111 34.133 73.5541 34.812C72.5211 35.246 71.5701 35.853 70.7411 36.608C67.4411 39.973 67.4411 45.361 70.7411 48.725C71.5711 49.477 72.5221 50.083 73.5541 50.517C74.5811 50.955 75.6841 51.187 76.8001 51.2C77.3711 51.184 77.9411 51.127 78.5041 51.029C79.0391 50.934 79.5571 50.761 80.0411 50.516C80.5851 50.328 81.1031 50.069 81.5791 49.745C82.0041 49.407 82.4291 49.066 82.8581 48.724C83.1991 48.295 83.5411 47.87 83.8791 47.357C84.2191 46.922 84.4801 46.432 84.6501 45.907C84.8951 45.422 85.0681 44.904 85.1621 44.369C85.2601 43.806 85.3171 43.236 85.3331 42.665C85.3001 40.406 84.4161 38.243 82.8581 36.606C82.4291 36.267 82.0041 35.925 81.5791 35.583Z" fill="#909090"/>
<path d="M118.783 39.421C118.595 38.878 118.335 38.363 118.012 37.888C117.7 37.44 117.359 37.012 116.991 36.608C114.55 34.147 110.862 33.407 107.66 34.736C104.458 36.065 102.379 39.2 102.399 42.667C102.413 46.117 104.495 49.223 107.681 50.546C110.868 51.869 114.537 51.152 116.991 48.726C117.357 48.321 117.698 47.893 118.012 47.447C118.336 46.971 118.595 46.454 118.783 45.909C119.028 45.424 119.201 44.906 119.295 44.371C119.393 43.808 119.45 43.238 119.466 42.667C119.446 42.094 119.389 41.524 119.295 40.959C119.201 40.424 119.028 39.906 118.783 39.421Z" fill="#909090"/>
<path d="M315.733 34.1331H196.267C191.554 34.1331 187.734 37.9531 187.734 42.6661C187.734 47.3791 191.554 51.1991 196.267 51.1991H315.734C320.447 51.1991 324.267 47.3791 324.267 42.6661C324.267 37.9531 320.446 34.1331 315.733 34.1331Z" fill="black"/>
<path d="M469.333 34.1331H460.8C456.087 34.1331 452.267 37.9531 452.267 42.6661C452.267 47.3791 456.088 51.1991 460.8 51.1991H469.333C474.046 51.1991 477.866 47.3791 477.866 42.6661C477.866 37.9531 474.046 34.1331 469.333 34.1331Z" fill="black"/>
<path d="M426.667 34.1331H418.134C413.421 34.1331 409.601 37.9531 409.601 42.6661C409.601 47.3791 413.421 51.1991 418.134 51.1991H426.667C431.38 51.1991 435.2 47.3791 435.2 42.6661C435.2 37.9531 431.38 34.1331 426.667 34.1331Z" fill="#909090"/>
<path d="M76.8 196.267C97.065 196.239 114.524 181.984 118.604 162.134H150.066L139.032 173.168C136.856 175.319 135.999 178.471 136.785 181.428C137.571 184.385 139.881 186.695 142.838 187.481C145.795 188.267 148.947 187.41 151.098 185.234L174.198 162.134H204.798V179.2C204.807 188.622 212.443 196.257 221.865 196.267H358.4C367.822 196.258 375.457 188.622 375.467 179.2V162.133H460.8V264.533H302.2L313.234 253.499C315.412 251.348 316.271 248.195 315.485 245.237C314.699 242.279 312.388 239.968 309.43 239.182C306.472 238.396 303.319 239.255 301.168 241.433L278.068 264.533H256V247.466C255.991 238.044 248.355 230.409 238.933 230.399H102.4C92.978 230.408 85.343 238.044 85.333 247.466V298.666C85.342 308.088 92.978 315.723 102.4 315.733H162.133V346.333L151.1 335.3C147.762 332.004 142.389 332.021 139.071 335.338C135.754 338.655 135.737 344.028 139.033 347.367L162.133 370.467V384H128C124.768 383.999 121.812 385.825 120.367 388.717L86.234 456.984C84.912 459.629 85.053 462.771 86.608 465.287C88.163 467.803 90.91 469.334 93.867 469.334H213.334C216.566 469.335 219.522 467.509 220.967 464.617L235.675 435.2H354.867L343.833 446.234C341.655 448.385 340.796 451.538 341.582 454.496C342.368 457.454 344.679 459.765 347.637 460.551C350.595 461.337 353.748 460.478 355.899 458.3L378.999 435.2H393.395C397.776 456.661 417.695 471.319 439.488 469.117C461.281 466.916 477.866 448.57 477.866 426.666C477.866 404.762 461.28 386.417 439.488 384.215C417.695 382.014 397.776 396.671 393.395 418.132H379L355.9 395.032C352.562 391.736 347.189 391.752 343.871 395.07C340.554 398.387 340.537 403.76 343.833 407.099L354.866 418.133H244.208L255.1 396.35C256.423 393.705 256.281 390.563 254.726 388.047C253.171 385.531 250.424 384 247.467 384H179.2V370.467L202.3 347.367C205.596 344.029 205.58 338.656 202.262 335.338C198.944 332.02 193.572 332.004 190.233 335.3L179.2 346.333V315.733H238.933C248.355 315.724 255.99 308.088 256 298.666V281.6H278.067L301.167 304.7C304.505 307.996 309.878 307.98 313.196 304.662C316.513 301.345 316.53 295.972 313.234 292.633L302.2 281.6H469.333C471.596 281.601 473.767 280.702 475.368 279.101C476.968 277.501 477.867 275.33 477.867 273.066V153.6C477.868 151.337 476.969 149.166 475.368 147.565C473.768 145.965 471.597 145.066 469.333 145.066H375.466V128C375.457 118.578 367.821 110.943 358.399 110.933H221.867C212.445 110.942 204.81 118.578 204.8 128V145.067H174.2L151.1 121.967C147.762 118.671 142.389 118.687 139.071 122.005C135.754 125.322 135.737 130.695 139.033 134.034L150.066 145.068H118.604C114.113 123.068 93.34 108.313 71.089 111.319C48.838 114.324 32.723 134.061 34.229 156.464C35.735 178.867 54.347 196.267 76.8 196.267ZM435.2 401.067C449.338 401.067 460.8 412.528 460.8 426.667C460.8 440.806 449.338 452.267 435.2 452.267C421.062 452.267 409.6 440.806 409.6 426.667C409.615 412.535 421.068 401.082 435.2 401.067ZM233.658 401.067L208.058 452.267H107.675L133.275 401.067H233.658ZM102.4 298.667V247.467H238.933L238.939 273.036L238.933 273.067L238.939 273.098L238.945 298.667H102.4V298.667ZM221.867 128H358.4L358.406 153.569L358.4 153.6L358.406 153.631L358.412 179.2H221.867V128ZM76.8 128C90.938 128 102.4 139.461 102.4 153.6C102.4 167.738 90.938 179.2 76.8 179.2C62.662 179.2 51.2 167.739 51.2 153.6C51.215 139.468 62.668 128.015 76.8 128Z" fill="#57A4FF"/>
<path d="M233 137H297V153H233V137Z" fill="#909090"/>
<path d="M281 157H345V173H281V157Z" fill="#909090"/>
<path d="M111 255H229V271H111V255Z" fill="#909090"/>
<path d="M151 408H215V424H151V408Z" fill="#909090"/>
<path d="M124 430H188V446H124V430Z" fill="#909090"/>
<path d="M111 277H175V293H111V277Z" fill="#909090"/>
</svg>
