<svg width="911" height="573" viewBox="0 0 911 573" fill="none" xmlns="http://www.w3.org/2000/svg">
  <path d="M215.214 161.288C242.387 161.251 265.797 142.159 271.268 115.575H313.455L298.66 130.352C295.742 133.233 294.593 137.454 295.647 141.415C296.701 145.375 299.798 148.469 303.763 149.521C307.728 150.574 311.955 149.426 314.839 146.512L345.814 115.575H386.845V138.431C386.857 151.049 397.096 161.275 409.73 161.288H592.808C605.442 161.276 615.68 151.049 615.693 138.431V115.573H730.115V252.714H517.45L532.245 237.937C535.166 235.056 536.318 230.834 535.264 226.872C534.21 222.91 531.111 219.815 527.145 218.763C523.178 217.71 518.951 218.86 516.066 221.777L485.092 252.714H455.501V229.857C455.489 217.239 445.25 207.013 432.616 207H249.54C236.907 207.012 226.669 217.239 226.655 229.857V298.428C226.668 311.046 236.907 321.272 249.54 321.285H329.636V362.267L314.842 347.49C310.366 343.076 303.161 343.099 298.712 347.541C294.264 351.984 294.242 359.18 298.661 363.651L329.636 394.588V412.713H283.867C279.533 412.711 275.57 415.157 273.632 419.03L227.864 510.458C226.091 514 226.28 518.208 228.365 521.578C230.45 524.947 234.134 526.998 238.099 526.998H398.291C402.624 526.999 406.588 524.554 408.526 520.681L428.247 481.283H588.071L573.275 496.061C570.355 498.942 569.203 503.164 570.257 507.126C571.311 511.087 574.41 514.182 578.376 515.235C582.342 516.288 586.57 515.137 589.454 512.22L620.429 481.283H639.732C645.607 510.025 672.316 529.656 701.538 526.707C730.76 523.76 752.999 499.189 752.999 469.854C752.999 440.519 730.759 415.95 701.538 413.001C672.316 410.053 645.607 429.683 639.732 458.425H620.43L589.456 427.488C584.98 423.073 577.775 423.095 573.326 427.538C568.879 431.981 568.856 439.177 573.275 443.649L588.069 458.426H439.689L454.294 429.253C456.068 425.71 455.878 421.502 453.793 418.133C451.708 414.763 448.024 412.713 444.059 412.713H352.521V394.588L383.495 363.651C387.915 359.181 387.893 351.985 383.444 347.541C378.995 343.098 371.792 343.076 367.315 347.49L352.521 362.267V321.285H432.616C445.25 321.273 455.488 311.046 455.501 298.428V275.572H485.09L516.065 306.509C520.541 310.923 527.745 310.902 532.194 306.458C536.642 302.016 536.665 294.82 532.245 290.348L517.45 275.572H741.557C744.591 275.573 747.502 274.369 749.649 272.225C751.795 270.082 753 267.175 753 264.142V104.145C753.001 101.115 751.796 98.2072 749.649 96.063C747.504 93.9202 744.593 92.7162 741.557 92.7162H615.692V69.8602C615.68 57.2416 605.44 47.0163 592.807 47.0029H409.732C397.099 47.015 386.861 57.2416 386.847 69.8602V92.7175H345.816L314.842 61.7804C310.366 57.3662 303.161 57.3876 298.712 61.8313C294.264 66.2737 294.242 73.4695 298.661 77.9414L313.455 92.7188H271.268C265.246 63.2549 237.392 43.4941 207.556 47.5199C177.72 51.5444 156.111 77.9775 158.131 107.981C160.15 137.985 185.107 161.288 215.214 161.288ZM695.788 435.57C714.746 435.57 730.115 450.919 730.115 469.855C730.115 488.791 714.746 504.141 695.788 504.141C676.831 504.141 661.462 488.791 661.462 469.855C661.482 450.929 676.839 435.59 695.788 435.57ZM425.543 435.57L392.599 501.379C391.751 503.072 390.021 504.141 388.128 504.141H256.614L289.558 438.332C290.405 436.639 292.136 435.57 294.029 435.57H425.543ZM254.54 298.429C251.779 298.429 249.54 296.19 249.54 293.429V234.859C249.54 232.097 251.779 229.859 254.54 229.859H427.617C430.378 229.859 432.617 232.096 432.617 234.857L432.624 264.102L432.616 264.144L432.624 264.185L432.631 293.428C432.632 296.19 430.393 298.429 427.631 298.429H254.54ZM409.732 74.8602C409.732 72.0988 411.971 69.8602 414.732 69.8602H587.809C590.57 69.8602 592.809 72.0981 592.809 74.859L592.816 104.104L592.808 104.145L592.816 104.187L592.823 133.43C592.824 136.191 590.585 138.431 587.823 138.431H414.732C411.971 138.431 409.732 136.192 409.732 133.431V74.8602ZM215.214 69.8602C234.171 69.8602 249.54 85.2096 249.54 104.145C249.54 123.08 234.171 138.431 215.214 138.431C196.256 138.431 180.887 123.081 180.887 104.145C180.907 85.219 196.264 69.8803 215.214 69.8602Z" fill="#326EE6" />
  <path d="M215.214 161.288C242.387 161.251 265.797 142.159 271.268 115.575H313.455L298.66 130.352C295.742 133.233 294.593 137.454 295.647 141.415C296.701 145.375 299.798 148.469 303.763 149.521C307.728 150.574 311.955 149.426 314.839 146.512L345.814 115.575H386.845V138.431C386.857 151.049 397.096 161.275 409.73 161.288H592.808C605.442 161.276 615.68 151.049 615.693 138.431V115.573H730.115V252.714H517.45L532.245 237.937C535.166 235.056 536.318 230.834 535.264 226.872C534.21 222.91 531.111 219.815 527.145 218.763C523.178 217.71 518.951 218.86 516.066 221.777L485.092 252.714H455.501V229.857C455.489 217.239 445.25 207.013 432.616 207H249.54C236.907 207.012 226.669 217.239 226.655 229.857V298.428C226.668 311.046 236.907 321.272 249.54 321.285H329.636V362.267L314.842 347.49C310.366 343.076 303.161 343.099 298.712 347.541C294.264 351.984 294.242 359.18 298.661 363.651L329.636 394.588V412.713H283.867C279.533 412.711 275.57 415.157 273.632 419.03L227.864 510.458C226.091 514 226.28 518.208 228.365 521.578C230.45 524.947 234.134 526.998 238.099 526.998H398.291C402.624 526.999 406.588 524.554 408.526 520.681L428.247 481.283H588.071L573.275 496.061C570.355 498.942 569.203 503.164 570.257 507.126C571.311 511.087 574.41 514.182 578.376 515.235C582.342 516.288 586.57 515.137 589.454 512.22L620.429 481.283H639.732C645.607 510.025 672.316 529.656 701.538 526.707C730.76 523.76 752.999 499.189 752.999 469.854C752.999 440.519 730.759 415.95 701.538 413.001C672.316 410.053 645.607 429.683 639.732 458.425H620.43L589.456 427.488C584.98 423.073 577.775 423.095 573.326 427.538C568.879 431.981 568.856 439.177 573.275 443.649L588.069 458.426H439.689L454.294 429.253C456.068 425.71 455.878 421.502 453.793 418.133C451.708 414.763 448.024 412.713 444.059 412.713H352.521V394.588L383.495 363.651C387.915 359.181 387.893 351.985 383.444 347.541C378.995 343.098 371.792 343.076 367.315 347.49L352.521 362.267V321.285H432.616C445.25 321.273 455.488 311.046 455.501 298.428V275.572H485.09L516.065 306.509C520.541 310.923 527.745 310.902 532.194 306.458C536.642 302.016 536.665 294.82 532.245 290.348L517.45 275.572H741.557C744.591 275.573 747.502 274.369 749.649 272.225C751.795 270.082 753 267.175 753 264.142V104.145C753.001 101.115 751.796 98.2072 749.649 96.063C747.504 93.9202 744.593 92.7162 741.557 92.7162H615.692V69.8602C615.68 57.2416 605.44 47.0163 592.807 47.0029H409.732C397.099 47.015 386.861 57.2416 386.847 69.8602V92.7175H345.816L314.842 61.7804C310.366 57.3662 303.161 57.3876 298.712 61.8313C294.264 66.2737 294.242 73.4695 298.661 77.9414L313.455 92.7188H271.268C265.246 63.2549 237.392 43.4941 207.556 47.5199C177.72 51.5444 156.111 77.9775 158.131 107.981C160.15 137.985 185.107 161.288 215.214 161.288ZM695.788 435.57C714.746 435.57 730.115 450.919 730.115 469.855C730.115 488.791 714.746 504.141 695.788 504.141C676.831 504.141 661.462 488.791 661.462 469.855C661.482 450.929 676.839 435.59 695.788 435.57ZM425.543 435.57L392.599 501.379C391.751 503.072 390.021 504.141 388.128 504.141H256.614L289.558 438.332C290.405 436.639 292.136 435.57 294.029 435.57H425.543ZM254.54 298.429C251.779 298.429 249.54 296.19 249.54 293.429V234.859C249.54 232.097 251.779 229.859 254.54 229.859H427.617C430.378 229.859 432.617 232.096 432.617 234.857L432.624 264.102L432.616 264.144L432.624 264.185L432.631 293.428C432.632 296.19 430.393 298.429 427.631 298.429H254.54ZM409.732 74.8602C409.732 72.0988 411.971 69.8602 414.732 69.8602H587.809C590.57 69.8602 592.809 72.0981 592.809 74.859L592.816 104.104L592.808 104.145L592.816 104.187L592.823 133.43C592.824 136.191 590.585 138.431 587.823 138.431H414.732C411.971 138.431 409.732 136.192 409.732 133.431V74.8602ZM215.214 69.8602C234.171 69.8602 249.54 85.2096 249.54 104.145C249.54 123.08 234.171 138.431 215.214 138.431C196.256 138.431 180.887 123.081 180.887 104.145C180.907 85.219 196.264 69.8803 215.214 69.8602Z" fill="url(#paint0_linear)" />
  <g filter="url(#filter0_d)">
    <path d="M730.115 469.855C730.115 450.919 714.746 435.57 695.788 435.57C676.839 435.59 661.482 450.929 661.462 469.855C661.462 488.791 676.831 504.14 695.788 504.14C714.746 504.14 730.115 488.791 730.115 469.855Z" fill="white" />
  </g>
  <g filter="url(#filter1_d)">
    <path d="M249.54 104.146C249.54 85.2097 234.171 69.8604 215.214 69.8604C196.264 69.8804 180.907 85.2191 180.887 104.146C180.887 123.082 196.256 138.431 215.214 138.431C234.171 138.431 249.54 123.08 249.54 104.146Z" fill="white" />
  </g>
  <path d="M424 83H574V97H424V83Z" fill="#909090" />
  <path d="M424 109H511V124H424V109Z" fill="#909090" />
  <path d="M261 245H419V259H261V245Z" fill="#909090" />
  <path d="M315 449H400V462H315V449Z" fill="#909090" />
  <path d="M279 476H364V489H279V476Z" fill="#909090" />
  <path d="M261 272H347V287H261V272Z" fill="#909090" />
  <defs>
    <filter id="filter0_d" x="651.462" y="425.57" width="88.6535" height="88.5705" filterUnits="userSpaceOnUse" color-interpolation-filters="sRGB">
      <feFlood flood-opacity="0" result="BackgroundImageFix" />
      <feColorMatrix in="SourceAlpha" type="matrix" values="0 0 0 0 0 0 0 0 0 0 0 0 0 0 0 0 0 0 127 0" />
      <feOffset />
      <feGaussianBlur stdDeviation="5" />
      <feColorMatrix type="matrix" values="0 0 0 0 0 0 0 0 0 0 0 0 0 0 0 0 0 0 0.25 0" />
      <feBlend mode="normal" in2="BackgroundImageFix" result="effect1_dropShadow" />
      <feBlend mode="normal" in="SourceGraphic" in2="effect1_dropShadow" result="shape" />
    </filter>
    <filter id="filter1_d" x="170.887" y="59.8604" width="88.6535" height="88.5705" filterUnits="userSpaceOnUse" color-interpolation-filters="sRGB">
      <feFlood flood-opacity="0" result="BackgroundImageFix" />
      <feColorMatrix in="SourceAlpha" type="matrix" values="0 0 0 0 0 0 0 0 0 0 0 0 0 0 0 0 0 0 127 0" />
      <feOffset />
      <feGaussianBlur stdDeviation="5" />
      <feColorMatrix type="matrix" values="0 0 0 0 0 0 0 0 0 0 0 0 0 0 0 0 0 0 0.25 0" />
      <feBlend mode="normal" in2="BackgroundImageFix" result="effect1_dropShadow" />
      <feBlend mode="normal" in="SourceGraphic" in2="effect1_dropShadow" result="shape" />
    </filter>
    <linearGradient id="paint0_linear" x1="1024.88" y1="659.045" x2="32.393" y2="-258.88" gradientUnits="userSpaceOnUse">
      <stop stop-color="#2DA8E6" />
      <stop offset="1" stop-color="white" stop-opacity="0" />
    </linearGradient>
  </defs>
</svg>
