<svg width="1418" height="1323" viewBox="0 0 1418 1323" fill="none" xmlns="http://www.w3.org/2000/svg">
<circle r="67" transform="matrix(-0.989064 -0.147486 -0.147486 0.989064 1109.56 1119.68)" fill="#CDE0ED" stroke="#57A4FF" stroke-width="6"/>
<circle r="60.6667" transform="matrix(-0.989064 -0.147486 -0.147486 0.989064 1109.56 1119.67)" fill="#A4E0F7"/>
<ellipse rx="60.4334" ry="58.5666" transform="matrix(-0.989064 -0.147486 -0.147486 0.989064 1107.95 1113.95)" fill="#CDE0ED"/>
<path d="M1110.85 1072.08C1110.79 1071.61 1110.68 1071.14 1110.57 1070.62C1109 1065 1102.75 1061.65 1096.51 1063.1C1081.95 1066.7 1069.78 1075.95 1063.2 1088.4C1060.42 1093.72 1062.77 1100.06 1068.51 1102.5C1074.26 1104.95 1081.22 1102.68 1084 1097.36C1087.6 1090.56 1094.2 1085.56 1102.13 1083.61C1107.79 1082.23 1111.43 1077.24 1110.85 1072.08Z" fill="white"/>
<circle r="76" transform="matrix(0.862337 -0.506335 -0.506335 -0.862337 1243.12 963.125)" fill="#CDE0ED" stroke="#57A4FF" stroke-width="6"/>
<circle r="68.4667" transform="matrix(0.862337 -0.506335 -0.506335 -0.862337 1243.12 963.131)" fill="#A4E0F7"/>
<ellipse rx="68.2033" ry="66.0966" transform="matrix(0.862337 -0.506335 -0.506335 -0.862337 1246.42 966.619)" fill="#CDE0ED"/>
<ellipse rx="10.5333" ry="10.208" transform="matrix(0.862337 -0.506335 -0.506335 -0.862337 1297.79 977.196)" fill="white"/>
<path d="M1288.74 954.482C1289.55 959.091 1293.77 961.423 1298.05 959.529L1301.3 958.093C1306.1 955.967 1308.35 949.351 1306.5 944.431C1306.32 943.949 1306.14 943.443 1305.95 942.912C1305.91 942.825 1305.88 942.738 1305.85 942.651C1305.54 941.729 1303.51 935.946 1299.22 928.637V928.637C1296.31 923.684 1288.57 919.955 1283.31 922.28V922.28C1278.58 924.375 1277.08 930.444 1280.07 934.669C1280.89 935.819 1281.75 937.06 1282.64 938.375C1286.85 944.621 1287.04 947.445 1287.74 949.69C1287.9 950.225 1288.07 950.762 1288.17 951.314C1288.37 952.453 1288.56 953.509 1288.74 954.482Z" fill="white"/>
<path d="M1154.12 1068.13L1200.12 1028.13" stroke="#57A4FF" stroke-width="6"/>
<circle r="62.5903" transform="matrix(0.247521 -0.968883 -0.968883 -0.247521 1317.78 87.7842)" fill="#CDE0ED" stroke="#57A4FF" stroke-width="6"/>
<circle r="56.845" transform="matrix(0.247521 -0.968883 -0.968883 -0.247521 1317.79 87.785)" fill="#A4E0F7"/>
<ellipse rx="56.6263" ry="54.8772" transform="matrix(0.247521 -0.968883 -0.968883 -0.247521 1320.15 87.8943)" fill="#CDE0ED"/>
<ellipse rx="8.74537" ry="8.47524" transform="matrix(0.247521 -0.968883 -0.968883 -0.247521 1358.04 63.7715)" fill="white"/>
<path d="M1338.25 55.0656C1342.04 57.6819 1346.61 56.3382 1348.25 52.0334L1348.35 51.7747C1350.15 47.0725 1347.34 41.1065 1342.77 39.0008V39.0008C1342.69 38.9637 1342.45 38.8496 1342.37 38.8107C1341.59 38.4298 1337.01 36.2669 1330.25 34.5388V34.5388C1325.62 33.3583 1318.9 35.7466 1317.2 40.2025V40.2025C1315.67 44.2195 1318.37 48.651 1322.61 49.3551C1323.76 49.5467 1325 49.7644 1326.29 50.0101C1332.29 51.1487 1334.12 52.6404 1335.82 53.5504C1336.31 53.8158 1336.81 54.0758 1337.27 54.3932C1337.61 54.6243 1337.94 54.8485 1338.25 55.0656Z" fill="white"/>
<circle r="89.5" transform="matrix(-0.370723 -0.928743 -0.928743 0.370723 626.2 120.201)" fill="#CDE0ED" stroke="#57A4FF" stroke-width="6"/>
<circle r="80.1668" transform="matrix(-0.370723 -0.928743 -0.928743 0.370723 626.211 120.194)" fill="#A4E0F7"/>
<ellipse rx="79.8584" ry="77.3917" transform="matrix(-0.370723 -0.928743 -0.928743 0.370723 628.984 118.363)" fill="#CDE0ED"/>
<ellipse rx="12.3333" ry="11.9524" transform="matrix(-0.370723 -0.928743 -0.928743 0.370723 652.121 59.3967)" fill="white"/>
<path d="M625.719 65.8296C630.398 65.7299 633.336 61.9189 632.108 57.403L630.161 50.2452C628.783 45.1753 622.598 42.0041 617.469 43.1462C616.378 43.3891 615.176 43.6433 613.851 43.9071C613.76 43.9252 613.672 43.9413 613.58 43.9573C612.54 44.1396 605.452 45.4615 596.166 49.1682C595.566 49.4075 594.988 49.6302 594.432 49.8373C588.939 51.8826 583.974 59.0014 585.512 64.6579L586.415 67.9797C587.8 73.0708 593.678 75.5023 598.377 73.1032C600.227 72.1586 602.293 71.1349 604.514 70.0831C612.625 66.2428 615.902 66.5959 618.652 66.1537C619.206 66.0647 619.763 65.9806 620.323 65.9648C622.338 65.9077 624.137 65.8633 625.719 65.8296Z" fill="white"/>
<circle r="80.5839" transform="matrix(-0.99314 0.116931 0.116931 0.99314 1304.29 458.134)" fill="#CDE0ED" stroke="#57A4FF" stroke-width="6"/>
<circle r="72.4394" transform="matrix(-0.99314 0.116931 0.116931 0.99314 1304.29 458.124)" fill="#A4E0F7"/>
<ellipse rx="72.1608" ry="69.9318" transform="matrix(-0.99314 0.116931 0.116931 0.99314 1301.15 452.94)" fill="#CDE0ED"/>
<path d="M1304.14 398.368C1304.01 397.814 1303.82 397.276 1303.6 396.676C1300.96 390.219 1293.08 387.125 1285.88 389.711C1269.13 396.017 1255.98 408.684 1249.92 424.371C1247.37 431.065 1251.03 438.258 1258.18 440.353C1265.34 442.449 1273.28 438.782 1275.83 432.088C1279.15 423.527 1286.28 416.676 1295.41 413.25C1301.94 410.821 1305.55 404.399 1304.14 398.368Z" fill="white"/>
<circle r="94.017" transform="matrix(-0.99314 0.116931 0.116931 0.99314 1166.7 248.234)" fill="#CDE0ED" stroke="#57A4FF" stroke-width="6"/>
<circle r="84.0814" transform="matrix(-0.99314 0.116931 0.116931 0.99314 1166.69 248.23)" fill="#A4E0F7"/>
<ellipse rx="83.758" ry="81.1709" transform="matrix(-0.99314 0.116931 0.116931 0.99314 1165.07 242.242)" fill="#CDE0ED"/>
<ellipse rx="12.9356" ry="12.536" transform="matrix(-0.99314 0.116931 0.116931 0.99314 1115.42 197.758)" fill="white"/>
<path d="M1107.91 218.697C1107.53 218.422 1107.13 218.192 1106.69 217.931C1101.66 215.325 1095.11 217.598 1091.97 223.033C1084.8 235.862 1083.22 250.721 1087.65 263.687C1089.55 269.202 1095.61 271.721 1101.17 269.216C1106.74 266.712 1109.78 260.212 1107.87 254.696C1105.47 247.612 1106.33 239.566 1110.24 232.582C1113.05 227.602 1111.94 221.695 1107.91 218.697Z" fill="white"/>
<circle r="72.4578" transform="matrix(-0.99314 0.116931 0.116931 0.99314 1255.14 646.272)" fill="#CDE0ED" stroke="#57A4FF" stroke-width="6"/>
<circle r="65.3968" transform="matrix(-0.99314 0.116931 0.116931 0.99314 1255.14 646.261)" fill="#A4E0F7"/>
<ellipse rx="65.1453" ry="63.133" transform="matrix(-0.99314 0.116931 0.116931 0.99314 1252.34 643.539)" fill="#CDE0ED"/>
<path d="M1227.12 601.01C1226.95 600.699 1226.74 600.409 1226.52 600.085C1223.87 596.65 1218.64 596.094 1214.75 598.829C1205.76 605.368 1199.97 615.124 1198.93 625.523C1198.5 629.955 1201.88 633.662 1206.51 633.739C1211.14 633.817 1215.3 630.312 1215.72 625.88C1216.3 620.202 1219.44 614.923 1224.34 611.366C1227.85 608.835 1228.96 604.393 1227.12 601.01Z" fill="white"/>
<ellipse rx="10.061" ry="9.75028" transform="matrix(-0.99314 0.116931 0.116931 0.99314 1203.29 649.337)" fill="white"/>
<path d="M1272.36 574.11L1283.88 533.01" stroke="#57A4FF" stroke-width="6"/>
<path d="M1258.98 390.997L1210.89 330.031" stroke="#57A4FF" stroke-width="6"/>
<ellipse cx="665.501" cy="1258.19" rx="394.5" ry="64.5" fill="black" fill-opacity="0.19"/>
<path d="M841.419 318.154L993.245 429.104C993.906 429.587 994.835 429.115 994.835 428.297L994.835 284.605C994.835 276.031 992.794 267.579 988.879 259.951L985.138 252.662C978.167 239.076 964.18 230.533 948.909 230.533C938.534 230.533 928.55 234.493 920.995 241.606L841.324 316.619C840.868 317.048 840.914 317.785 841.419 318.154Z" fill="#50CBE5" stroke="black" stroke-width="6"/>
<path d="M238.342 693.704C238.342 921.708 429.788 1106.72 666.172 1106.72C902.556 1106.72 1094 921.708 1094 693.704C1094 465.701 902.556 280.689 666.172 280.689C429.788 280.689 238.342 465.701 238.342 693.704Z" fill="#30A8FF" stroke="black" stroke-width="6"/>
<ellipse rx="162.758" ry="157.161" transform="matrix(-1 0 0 1 782.963 545.821)" fill="#7ECEF0"/>
<path d="M640.364 545.802C640.364 621.803 704.179 683.474 782.974 683.474C861.768 683.474 925.583 621.803 925.583 545.802C925.583 469.801 861.768 408.13 782.974 408.13C704.179 408.13 640.364 469.801 640.364 545.802Z" fill="white" stroke="black" stroke-width="2"/>
<ellipse rx="124.462" ry="120.182" transform="matrix(-1 0 0 1 782.974 545.811)" fill="#B6B4B1"/>
<ellipse rx="95.7399" ry="92.4478" transform="matrix(-1 0 0 1 782.968 545.801)" fill="black"/>
<ellipse rx="28.722" ry="27.7344" transform="matrix(-1 0 0 1 855.734 508.815)" fill="white"/>
<ellipse rx="19.148" ry="18.4896" transform="matrix(-1 0 0 1 712.13 597.604)" fill="white"/>
<path d="M243.925 656.4C224.891 829.78 346.924 1103.69 664.502 1103.69C895.736 1103.69 1091 923.21 1091 696.693C975.836 1009.92 860.455 902.485 807.161 862.403C753.868 822.321 694.864 763.594 590.18 668.515C485.496 573.437 365.739 600.471 243.925 656.4Z" fill="url(#paint0_linear)" fill-opacity="0.52"/>
<path d="M243.418 706.918C233.899 844.002 387.819 1105.69 675.346 1105.69C895.232 1105.69 1078.64 919.033 1089 730.316C964.412 1030.93 862.644 922.301 812.01 888.217C761.376 854.134 705.317 804.196 605.858 723.348C506.398 642.5 344.318 618.328 243.418 706.918Z" fill="url(#paint1_linear)" fill-opacity="0.52"/>
<path d="M282.391 851.22C283.573 848.092 284.158 822.57 283.086 820.997C282.393 819.981 281.094 821.918 280.207 825.298C276.692 838.637 267.93 862.247 259.55 880.934C245.35 912.603 246.228 921.304 263.07 915.892C278.986 910.778 308.502 908.966 338.352 911.27C364.105 913.259 323.126 901.892 292.69 898.601L271.065 896.268L276.529 874.272C279.53 862.177 282.172 851.804 282.391 851.22Z" fill="black"/>
<path d="M397.401 1000.42C397.061 997.257 385.929 975.779 384.22 974.98C383.116 974.464 382.804 976.689 383.531 979.916C386.388 992.662 389.101 1016.42 389.916 1035.92C391.297 1068.95 396.087 1075.76 409.15 1063.29C421.497 1051.5 447.901 1036.02 476.495 1023.8C501.166 1013.25 458.158 1023.22 428.571 1034.9L407.553 1043.2L402.535 1022.34C399.773 1010.87 397.465 1001 397.401 1000.42Z" fill="black"/>
<path d="M833.171 1061.21C830.375 1059.74 807.161 1057.62 805.68 1058.71C804.724 1059.41 806.43 1060.95 809.469 1062.12C821.459 1066.75 842.567 1077.74 859.211 1088.02C887.416 1105.45 895.379 1104.98 891.201 1086.17C887.254 1068.39 886.92 1035.86 890.349 1003.2C893.309 975.027 881.131 1019.39 876.777 1052.63L873.688 1076.25L853.901 1068.98C843.022 1064.99 833.693 1061.49 833.171 1061.21Z" fill="black"/>
<path d="M669.47 1082.43C670.758 1079.31 687.284 1062.96 689.04 1063.07C690.173 1063.13 689.752 1065.64 688.101 1068.62C681.597 1080.39 671.77 1103.78 664.952 1123.75C653.397 1157.59 647.047 1162.08 639.444 1141.8C632.259 1122.63 613.85 1091.82 592.491 1063.22C574.062 1038.55 608.822 1072.75 631.225 1101.33L647.138 1121.64L658.087 1102.56C664.109 1092.07 669.229 1083.01 669.47 1082.43Z" fill="black"/>
<path d="M243.653 680.763C245.853 678.827 255.265 660.824 254.802 659.443C254.502 658.552 252.605 659.612 250.596 661.799C242.653 670.424 226.201 685.07 211.817 696.309C187.443 715.356 185.25 721.758 202.996 722.024C219.767 722.277 248.204 728.2 275.526 737.131C299.098 744.837 264.437 726.743 236.905 716.967L217.342 710.025L230.127 695.721C237.154 687.855 243.244 681.124 243.653 680.763Z" fill="black"/>
<path d="M457.49 775.838C458.557 772.959 459.523 752.364 459.123 740.995C458.856 733.362 455.826 735.545 455.826 743.372C455.826 749.983 449.543 770.092 442.755 785.208C436.824 798.419 442.239 803.686 453.193 795.361C459.48 790.584 483.603 782.929 496.104 781.746C506.88 780.724 509.576 779.314 504.362 777.424C499.262 775.575 469.34 778.311 463.305 781.179C456.974 784.186 455.051 782.42 457.49 775.838Z" fill="black"/>
<path d="M334.709 774.212C337.898 767.986 340.861 756.444 342.087 745.478C342.514 741.651 342.25 738.519 341.501 738.519C340.753 738.519 339.224 741.651 338.107 745.478C335.815 753.338 331.184 762.217 321.25 777.765C312.763 791.057 312.961 793.599 322.429 793.079C326.25 792.87 340.198 792.555 353.425 792.379C366.652 792.207 375.903 791.837 373.983 791.562C372.063 791.284 370.492 790.533 370.492 789.896C370.492 787.779 356.908 783.786 350.066 783.893C333.654 784.145 330.613 782.226 334.709 774.212Z" fill="black"/>
<path d="M581.218 830.819C580.52 830.819 579.895 829.665 579.825 828.255C579.748 826.633 579.41 826.384 578.902 827.578C578.46 828.618 578.914 833.881 579.911 839.276C580.904 844.675 581.536 858.213 581.315 869.362C580.985 885.723 581.338 889.895 583.146 890.972C586.435 892.939 587.486 892.693 591.353 889.056C595.69 884.98 624.362 860.385 635.766 850.964C640.397 847.137 643.279 844.005 642.174 844.005C637.744 844.005 623.427 852.451 595.325 871.644C591.78 874.061 591.834 874.186 589.394 857.942C587.443 844.972 583.177 830.819 581.218 830.819Z" fill="black"/>
<path d="M420.618 901.143C421.056 898.982 418.314 882.324 417.372 881.416C416.763 880.83 416.095 882.229 415.894 884.522C415.087 893.572 411.887 909.864 408.346 922.914C402.345 945.03 404.032 950.593 415.118 945.268C425.595 940.235 445.97 935.891 467.087 934.188C485.306 932.719 455.303 929.723 433.655 930.848L418.275 931.65L419.373 916.761C419.974 908.575 420.537 901.546 420.618 901.143Z" fill="black"/>
<path d="M716.155 950.352C715.057 949.267 712.412 946.4 710.279 943.979C705.042 938.034 704.604 940.356 709.328 949C714.794 959.003 721.36 975.273 727.947 995.128C735.142 1016.81 741.965 1019.7 745.382 1002.5C747.426 992.216 760.929 972.222 776.94 955.769C778.678 953.985 780.098 951.897 780.098 951.132C780.098 950.363 780.971 949.403 782.037 948.996C783.104 948.59 783.278 948.213 782.425 948.154C779.031 947.934 759.416 963.49 751.763 972.474C747.294 977.719 742.105 983.759 740.231 985.895L736.825 989.781L734.94 984.653C732.493 978.009 718.746 952.908 716.155 950.352Z" fill="black"/>
<path d="M541.262 993.443C540.308 984.177 539.105 974.405 538.597 971.724C536.743 961.988 535.005 969.892 533.159 996.465C530.673 1032.22 531.53 1033.8 547.491 1022.83C552.115 1019.64 562.184 1013.31 569.864 1008.75C591.272 996.037 598.444 991.29 596.993 990.788C594.13 989.803 573.879 997.476 554.058 1007.05C542.356 1012.71 543.36 1013.78 541.262 993.443Z" fill="black"/>
<path d="M920.312 684.172C908.374 685.684 898.826 690.76 893.119 702.669C891.767 712.413 893.699 725.507 898.302 739.858C902.944 754.333 910.228 769.854 919.253 784.107C928.283 798.369 938.998 811.271 950.459 820.581C961.879 829.857 973.834 835.405 985.481 835.466C1035.5 827.512 1067.31 790.105 1076.29 753.736C1080.67 735.978 1082.84 720.557 1083 707.875C1083.15 695.149 1081.28 685.394 1077.78 678.803C1074.34 672.34 1069.39 668.948 1062.98 668.553C1056.45 668.149 1048.01 670.828 1037.7 677.536C1030.4 688.756 1018.67 692.464 1005.5 692.817C993.503 693.138 979.807 690.688 966.323 688.276C964.909 688.023 963.497 687.771 962.091 687.522C947.078 684.866 932.56 682.621 920.312 684.172Z" fill="#E15C5C" stroke="black" stroke-width="5"/>
<path d="M938.227 769.682C936.031 779.536 935.015 790.612 938.816 800.887C942.615 811.156 951.238 820.657 968.392 827.336C988.603 831.484 1003.92 830.035 1015.83 825.748C1027.76 821.46 1036.3 814.326 1042.95 807.075C1049.34 800.124 1051.97 794.079 1051.8 788.76C1051.63 783.445 1048.67 778.803 1043.74 774.663C1038.82 770.522 1031.96 766.9 1024.05 763.626C1016.14 760.354 1007.19 757.435 998.089 754.694C978.82 750.927 965.956 750.064 956.858 752.446C947.793 754.819 942.446 760.422 938.227 769.682Z" fill="url(#paint2_linear)" stroke="black" stroke-width="0.4"/>
<path d="M293.733 444.422C290.955 466.897 283.901 494.765 278.122 517.591L278.106 517.655C275.21 529.095 272.642 539.241 271.05 546.918C270.252 550.77 269.72 553.905 269.507 556.223C269.4 557.386 269.383 558.253 269.428 558.856C269.441 559.034 269.458 559.165 269.473 559.257C269.603 559.339 269.846 559.475 270.266 559.643C271.113 559.979 272.353 560.315 274.031 560.615C277.376 561.212 282.054 561.596 287.903 561.739C299.574 562.025 315.531 561.343 333.991 559.685C370.904 556.368 417.557 549.168 459.493 538.153C515.795 523.364 543.163 498.09 560.426 482.148C562.028 480.668 563.543 479.269 564.986 477.966C569.819 473.603 572.509 466.669 572.94 457.251C573.371 447.84 571.52 436.296 567.643 423.255C559.895 397.19 544.242 365.76 523.819 334.659C503.408 303.576 478.326 272.964 451.825 248.506C425.276 224.002 397.538 205.894 371.831 199.45C359.69 196.406 352.114 197.546 346.88 201.099C341.517 204.738 337.885 211.373 334.769 221.059C332.608 227.776 330.806 235.56 328.782 244.307C327.887 248.171 326.949 252.223 325.918 256.453C322.581 270.139 318.325 285.392 311.512 301.239C298.261 332.06 295.188 356.537 294.741 378.865C294.582 386.763 294.751 394.347 294.92 401.907C294.992 405.111 295.063 408.31 295.109 411.527C295.264 422.276 295.133 433.093 293.733 444.422Z" fill="#50CBE5" stroke="black" stroke-width="6"/>
<path d="M512.973 346.051C480.553 304.33 410.333 243.949 398.861 243.949C400.501 247.694 456.669 295.258 502.303 343.88L512.973 346.051Z" fill="#060B1E"/>
<path d="M502.303 383.818C502.303 380.195 387.002 285.194 361.347 279.391C363.002 290.194 434.502 336.345 480.377 371.694C498.987 386.033 502.303 385.918 502.303 383.818Z" fill="#060B1E"/>
<path d="M449.758 385.267C426.966 370.972 417.032 366.419 398.861 357.694C398.861 357.694 346.734 335.79 344.416 335.828C344.416 335.828 344.506 337.984 356.648 343.88C376.46 353.505 396.437 363.669 402.851 367.382C405.435 368.88 413.892 373.455 421.645 377.549C429.397 381.643 445.169 390.173 456.692 396.498C476.567 407.414 480.377 409.126 480.377 407.155C480.377 405.597 461.923 392.898 449.758 385.267Z" fill="#060B1E"/>
<path d="M440.439 420.031C414.119 409.48 343.002 396.498 325.324 394.531C325.324 401.694 390.239 415.395 396.699 416.694C404.883 418.744 457.949 431.451 462.123 432.82C478.564 438.22 472.82 432.737 454.535 425.577C448.505 423.218 442.162 420.719 440.439 420.031Z" fill="#060B1E"/>
<path d="M461.304 466.583C457.42 464.495 437.502 461.194 379.358 462.979C348.751 465.199 311.926 471.825 310.508 475.369C309.956 476.754 345.713 473.956 350.002 473.694C374.502 472.194 368.626 471.678 407.549 470.466C445.079 469.3 463.834 467.945 461.304 466.583Z" fill="#060B1E"/>
<path d="M365.502 530.694C371.101 530.186 449.758 520.694 456.896 513.403C452.502 509.194 295.002 528.194 301.502 533.694C308.002 539.194 365.502 530.694 365.502 530.694Z" fill="#060B1E"/>
<path d="M943.501 262.726C946.056 260.07 947.981 257.577 947.979 256.855C947.972 254.417 946.283 255.116 939.691 260.283C938.022 261.914 907.869 286 899.153 293.354C890.437 300.708 883.265 307.504 883.219 308.451C883.061 311.524 940.439 265.543 943.501 262.726Z" fill="#060B1E"/>
<path d="M976.002 289.192C1001 277.692 916.204 330.369 912.169 329.082C905.435 326.932 951.002 300.692 976.002 289.192Z" fill="#060B1E"/>
<path d="M957.413 355.469C974.085 354.545 979.145 355.293 977.002 352.692C974.858 350.091 956.502 350.692 933.502 352.692C938.502 355.469 943.502 355.469 957.413 355.469Z" fill="#060B1E"/>
<circle r="83.5" transform="matrix(-0.763879 -0.645359 -0.645359 0.763879 222.9 1099.9)" fill="#CDE0ED" stroke="#57A4FF" stroke-width="6"/>
<circle r="74.9667" transform="matrix(-0.763879 -0.645359 -0.645359 0.763879 222.909 1099.89)" fill="#A4E0F7"/>
<ellipse rx="74.6783" ry="72.3717" transform="matrix(-0.763879 -0.645359 -0.645359 0.763879 222.998 1095.42)" fill="#CDE0ED"/>
<path d="M238.846 1041C238.974 1040.61 239.055 1040.21 239.151 1039.77C239.954 1034.86 236.321 1030.05 230.988 1028.94C218.468 1026.53 205.769 1029.32 196.248 1036.59C192.204 1039.71 191.748 1045.44 195.31 1049.38C198.872 1053.32 205.057 1054.05 209.101 1050.93C214.307 1046.97 221.185 1045.46 228.003 1046.78C232.869 1047.74 237.452 1045.18 238.846 1041Z" fill="white"/>
<ellipse rx="11.5333" ry="11.1771" transform="matrix(-0.763879 -0.645359 -0.645359 0.763879 179.728 1058.9)" fill="white"/>
<circle r="59.5" transform="matrix(0.620024 -0.784583 -0.784583 -0.620024 87.788 480.788)" fill="#CDE0ED" stroke="#57A4FF" stroke-width="6"/>
<circle r="54.1667" transform="matrix(0.620024 -0.784583 -0.784583 -0.620024 87.7946 480.794)" fill="#A4E0F7"/>
<ellipse rx="53.9583" ry="52.2916" transform="matrix(0.620024 -0.784583 -0.784583 -0.620024 91.0259 480.753)" fill="#CDE0ED"/>
<path d="M130.703 490.91C130.983 490.994 131.274 491.043 131.596 491.101C135.157 491.566 138.549 488.828 139.225 484.951C140.67 475.852 138.351 466.748 132.875 460.044C130.53 457.197 126.38 457.003 123.62 459.669C120.86 462.334 120.479 466.818 122.824 469.665C125.808 473.331 127.059 478.262 126.267 483.217C125.692 486.754 127.646 490.003 130.703 490.91Z" fill="white"/>
<ellipse rx="8.33333" ry="8.07594" transform="matrix(0.620024 -0.784583 -0.784583 -0.620024 116.378 448.641)" fill="white"/>
<defs>
<linearGradient id="paint0_linear" x1="700.574" y1="620.975" x2="499.297" y2="1088.26" gradientUnits="userSpaceOnUse">
<stop offset="0.0267148" stop-color="white"/>
<stop offset="0.984415" stop-color="#FBFF30" stop-opacity="0"/>
</linearGradient>
<linearGradient id="paint1_linear" x1="707.043" y1="694.449" x2="548.938" y2="1104.57" gradientUnits="userSpaceOnUse">
<stop offset="0.0267148" stop-color="#FEFEFE"/>
<stop offset="0.984415" stop-color="#FBFF30" stop-opacity="0"/>
</linearGradient>
<linearGradient id="paint2_linear" x1="995.987" y1="759.394" x2="977.727" y2="827.776" gradientUnits="userSpaceOnUse">
<stop stop-color="#E2A0A0"/>
<stop offset="1" stop-color="#E2A0A0" stop-opacity="0"/>
</linearGradient>
</defs>
</svg>
